M48
; DRILL file {KiCad (5.1.6-0-10_14)} date Friday, September 10, 2021 at 12:16:33 PM
; FORMAT={-:-/ absolute / inch / decimal}
; #@! TF.CreationDate,2021-09-10T12:16:33-05:00
; #@! TF.GenerationSoftware,Kicad,Pcbnew,(5.1.6-0-10_14)
FMAT,2
INCH
T1C0.0157
T2C0.0236
T3C0.0390
T4C0.0335
T5C0.0390
T6C0.0669
T7C0.1063
%
G90
G05
T1
X5.01Y-4.345
X5.02Y-3.975
X5.065Y-3.3
X5.065Y-3.34
X5.065Y-3.42
X5.155Y-3.965
X5.155Y-4.0044
X5.18Y-3.26
X5.22Y-3.215
X5.24Y-3.595
X5.25Y-3.51
X5.26Y-3.23
X5.26Y-3.85
X5.29Y-3.725
X5.295Y-3.095
X5.31Y-4.26
X5.315Y-3.49
X5.32Y-3.69
X5.32Y-3.765
X5.335Y-3.095
X5.375Y-3.57
X5.385Y-3.935
X5.39Y-4.035
X5.4Y-3.225
X5.405Y-3.265
X5.445Y-3.255
X5.455Y-3.835
X5.465Y-3.995
X5.475Y-3.225
X5.495Y-3.845
X5.52Y-3.52
X5.58Y-4.35
X5.585Y-3.585
X5.585Y-4.105
X5.6Y-4.255
X5.62Y-4.175
X5.62Y-4.355
X5.625Y-4.105
X5.635Y-4.275
X5.675Y-4.375
X5.675Y-4.415
X5.68Y-4.165
X5.685Y-4.105
X5.69Y-4.275
X5.695Y-4.065
X5.8Y-4.14
X5.8Y-4.41
X5.83Y-4.17
X5.83Y-4.305
X5.835Y-3.875
X5.835Y-4.265
X5.84Y-4.225
X5.85Y-4.34
X5.865Y-3.95
X5.87Y-4.175
X5.87Y-4.415
X5.885Y-4.215
X5.9Y-3.815
X5.9Y-4.0
X5.925Y-4.34
X5.93Y-4.415
X5.9425Y-4.0
X5.945Y-3.895
X5.965Y-4.175
X5.965Y-4.215
X5.965Y-4.255
X5.965Y-4.3
X5.97Y-3.41
X5.985Y-3.895
X5.985Y-4.0
X6.0Y-4.14
X6.005Y-4.415
X6.01Y-3.6
X6.03Y-3.46
X6.045Y-3.57
X6.06Y-3.615
X6.065Y-4.005
X6.075Y-3.915
X6.095Y-4.035
X6.105Y-3.19
X6.105Y-3.59
X6.105Y-4.2
X6.105Y-4.26
X6.11Y-4.105
X6.11Y-4.3
X6.11Y-4.34
X6.115Y-3.55
X6.115Y-3.915
X6.122Y-3.487
X6.125Y-4.375
X6.14Y-4.415
X6.15Y-3.19
X6.15Y-3.44
X6.2Y-4.035
X6.2Y-4.075
X6.215Y-3.255
X6.215Y-3.64
X6.23Y-3.415
X6.24Y-3.21
X6.245Y-4.34
X6.285Y-4.27
X6.31Y-3.65
X6.32Y-3.215
X6.355Y-3.795
X6.365Y-3.39
X6.375Y-4.16
X6.4Y-3.585
X6.405Y-4.27
X6.425Y-3.795
X6.465Y-3.385
X6.475Y-3.145
X6.495Y-4.27
X6.495Y-4.35
X6.5Y-4.31
X6.505Y-3.795
X6.505Y-4.165
X6.52Y-3.295
X6.555Y-3.675
X6.555Y-4.155
X6.58Y-3.92
X6.58Y-4.455
X6.61Y-4.42
X6.615Y-3.94
X6.615Y-4.215
X6.625Y-3.295
X6.645Y-4.095
X6.645Y-4.185
X6.645Y-4.39
X6.66Y-4.265
X6.665Y-3.795
X6.675Y-3.2
X6.685Y-4.185
X6.695Y-4.08
X6.74Y-4.035
X6.74Y-4.3475
X6.745Y-3.795
X6.785Y-4.18
X6.85Y-3.72
X6.9Y-3.715
X5.9879Y-3.3234
X6.0036Y-3.2959
X6.0351Y-3.2959
X6.0508Y-3.3234
X6.0666Y-3.2959
X6.0823Y-3.3234
X6.1138Y-3.3234
X6.1296Y-3.2959
X6.1453Y-3.3234
X6.1611Y-3.2959
X6.1926Y-3.2959
X6.2083Y-3.3234
X5.1419Y-3.6388
X5.1419Y-3.6703
X5.1419Y-3.7018
X5.1419Y-3.7648
X5.1419Y-3.7963
X5.1419Y-3.8278
X5.1694Y-3.623
X5.1694Y-3.686
X5.1694Y-3.7175
X5.1694Y-3.749
X5.1694Y-3.7805
X5.1694Y-3.8435
T2
X5.9276Y-3.29
X5.9404Y-3.3096
X6.2558Y-3.3096
X6.2686Y-3.29
X5.136Y-3.5628
X5.136Y-3.9037
X5.1556Y-3.5756
X5.1556Y-3.8909
T3
X6.965Y-3.415
X6.965Y-3.515
X6.965Y-3.615
X6.965Y-3.715
X6.965Y-3.815
X6.965Y-3.915
X6.965Y-4.015
X6.965Y-4.115
X6.965Y-4.215
X6.965Y-4.315
X7.065Y-3.415
X7.065Y-3.515
X7.065Y-3.615
X7.065Y-3.715
X7.065Y-3.815
X7.065Y-3.915
X7.065Y-4.015
X7.065Y-4.115
X7.065Y-4.215
X7.065Y-4.315
T4
X5.9564Y-3.349
X6.2398Y-3.349
X5.195Y-3.5915
X5.195Y-3.875
T5
X6.7Y-4.365
X6.74Y-4.165
X6.78Y-4.365
T6
X4.985Y-4.195
X5.2606Y-4.195
X6.61Y-3.135
X6.61Y-3.4106
T7
X6.69Y-4.51
X4.96Y-4.51
X4.96Y-3.095
X6.93Y-3.095
T2
G00X5.9276Y-3.0754
M15
G01X5.9276Y-3.0557
M16
G05
G00X6.2686Y-3.0754
M15
G01X6.2686Y-3.0557
M16
G05
G00X4.9214Y-3.5628
M15
G01X4.9017Y-3.5628
M16
G05
G00X4.9214Y-3.9037
M15
G01X4.9017Y-3.9037
M16
G05
T0
M30
