G04 #@! TF.GenerationSoftware,KiCad,Pcbnew,(5.1.6-0-10_14)*
G04 #@! TF.CreationDate,2021-09-10T12:16:29-05:00*
G04 #@! TF.ProjectId,DFC_REV_D,4446435f-5245-4565-9f44-2e6b69636164,rev?*
G04 #@! TF.SameCoordinates,Original*
G04 #@! TF.FileFunction,Copper,L4,Bot*
G04 #@! TF.FilePolarity,Positive*
%FSLAX46Y46*%
G04 Gerber Fmt 4.6, Leading zero omitted, Abs format (unit mm)*
G04 Created by KiCad (PCBNEW (5.1.6-0-10_14)) date 2021-09-10 12:16:29*
%MOMM*%
%LPD*%
G01*
G04 APERTURE LIST*
G04 #@! TA.AperFunction,SMDPad,CuDef*
%ADD10C,0.100000*%
G04 #@! TD*
G04 #@! TA.AperFunction,SMDPad,CuDef*
%ADD11R,3.302000X4.318000*%
G04 #@! TD*
G04 #@! TA.AperFunction,ConnectorPad*
%ADD12C,0.787400*%
G04 #@! TD*
G04 #@! TA.AperFunction,ComponentPad*
%ADD13O,1.800000X0.900000*%
G04 #@! TD*
G04 #@! TA.AperFunction,ComponentPad*
%ADD14C,0.600000*%
G04 #@! TD*
G04 #@! TA.AperFunction,ComponentPad*
%ADD15O,0.800000X1.600000*%
G04 #@! TD*
G04 #@! TA.AperFunction,ComponentPad*
%ADD16O,0.900000X1.800000*%
G04 #@! TD*
G04 #@! TA.AperFunction,ComponentPad*
%ADD17O,1.600000X0.800000*%
G04 #@! TD*
G04 #@! TA.AperFunction,ComponentPad*
%ADD18C,1.498600*%
G04 #@! TD*
G04 #@! TA.AperFunction,SMDPad,CuDef*
%ADD19R,1.500000X1.000000*%
G04 #@! TD*
G04 #@! TA.AperFunction,ViaPad*
%ADD20C,0.800000*%
G04 #@! TD*
G04 #@! TA.AperFunction,Conductor*
%ADD21C,0.250000*%
G04 #@! TD*
G04 #@! TA.AperFunction,Conductor*
%ADD22C,0.320000*%
G04 #@! TD*
G04 #@! TA.AperFunction,Conductor*
%ADD23C,0.406400*%
G04 #@! TD*
G04 #@! TA.AperFunction,Conductor*
%ADD24C,0.200000*%
G04 #@! TD*
G04 #@! TA.AperFunction,Conductor*
%ADD25C,0.152400*%
G04 #@! TD*
G04 APERTURE END LIST*
G04 #@! TA.AperFunction,SMDPad,CuDef*
D10*
G36*
X165115000Y-90055602D02*
G01*
X165139534Y-90055602D01*
X165188365Y-90060412D01*
X165236490Y-90069984D01*
X165283445Y-90084228D01*
X165328778Y-90103005D01*
X165372051Y-90126136D01*
X165412850Y-90153396D01*
X165450779Y-90184524D01*
X165485476Y-90219221D01*
X165516604Y-90257150D01*
X165543864Y-90297949D01*
X165566995Y-90341222D01*
X165585772Y-90386555D01*
X165600016Y-90433510D01*
X165609588Y-90481635D01*
X165614398Y-90530466D01*
X165614398Y-90555000D01*
X165615000Y-90555000D01*
X165615000Y-91055000D01*
X165614398Y-91055000D01*
X165614398Y-91079534D01*
X165609588Y-91128365D01*
X165600016Y-91176490D01*
X165585772Y-91223445D01*
X165566995Y-91268778D01*
X165543864Y-91312051D01*
X165516604Y-91352850D01*
X165485476Y-91390779D01*
X165450779Y-91425476D01*
X165412850Y-91456604D01*
X165372051Y-91483864D01*
X165328778Y-91506995D01*
X165283445Y-91525772D01*
X165236490Y-91540016D01*
X165188365Y-91549588D01*
X165139534Y-91554398D01*
X165115000Y-91554398D01*
X165115000Y-91555000D01*
X164615000Y-91555000D01*
X164615000Y-90055000D01*
X165115000Y-90055000D01*
X165115000Y-90055602D01*
G37*
G04 #@! TD.AperFunction*
G04 #@! TA.AperFunction,SMDPad,CuDef*
G36*
X164315000Y-91555000D02*
G01*
X163815000Y-91555000D01*
X163815000Y-91554398D01*
X163790466Y-91554398D01*
X163741635Y-91549588D01*
X163693510Y-91540016D01*
X163646555Y-91525772D01*
X163601222Y-91506995D01*
X163557949Y-91483864D01*
X163517150Y-91456604D01*
X163479221Y-91425476D01*
X163444524Y-91390779D01*
X163413396Y-91352850D01*
X163386136Y-91312051D01*
X163363005Y-91268778D01*
X163344228Y-91223445D01*
X163329984Y-91176490D01*
X163320412Y-91128365D01*
X163315602Y-91079534D01*
X163315602Y-91055000D01*
X163315000Y-91055000D01*
X163315000Y-90555000D01*
X163315602Y-90555000D01*
X163315602Y-90530466D01*
X163320412Y-90481635D01*
X163329984Y-90433510D01*
X163344228Y-90386555D01*
X163363005Y-90341222D01*
X163386136Y-90297949D01*
X163413396Y-90257150D01*
X163444524Y-90219221D01*
X163479221Y-90184524D01*
X163517150Y-90153396D01*
X163557949Y-90126136D01*
X163601222Y-90103005D01*
X163646555Y-90084228D01*
X163693510Y-90069984D01*
X163741635Y-90060412D01*
X163790466Y-90055602D01*
X163815000Y-90055602D01*
X163815000Y-90055000D01*
X164315000Y-90055000D01*
X164315000Y-91555000D01*
G37*
G04 #@! TD.AperFunction*
D11*
X134493000Y-100838000D03*
X163703000Y-100838000D03*
D12*
X171831000Y-107061000D03*
X170561000Y-107061000D03*
X171831000Y-108331000D03*
X170561000Y-108331000D03*
X171831000Y-109601000D03*
X170561000Y-109601000D03*
G04 #@! TA.AperFunction,SMDPad,CuDef*
G36*
G01*
X144788000Y-89281000D02*
X144788000Y-89281000D01*
G75*
G02*
X145288000Y-88781000I500000J0D01*
G01*
X145288000Y-88781000D01*
G75*
G02*
X145788000Y-89281000I0J-500000D01*
G01*
X145788000Y-89281000D01*
G75*
G02*
X145288000Y-89781000I-500000J0D01*
G01*
X145288000Y-89781000D01*
G75*
G02*
X144788000Y-89281000I0J500000D01*
G01*
G37*
G04 #@! TD.AperFunction*
G04 #@! TA.AperFunction,SMDPad,CuDef*
G36*
G01*
X130056000Y-110998000D02*
X130056000Y-110998000D01*
G75*
G02*
X130556000Y-110498000I500000J0D01*
G01*
X130556000Y-110498000D01*
G75*
G02*
X131056000Y-110998000I0J-500000D01*
G01*
X131056000Y-110998000D01*
G75*
G02*
X130556000Y-111498000I-500000J0D01*
G01*
X130556000Y-111498000D01*
G75*
G02*
X130056000Y-110998000I0J500000D01*
G01*
G37*
G04 #@! TD.AperFunction*
G04 #@! TA.AperFunction,SMDPad,CuDef*
G36*
G01*
X169680000Y-89281000D02*
X169680000Y-89281000D01*
G75*
G02*
X170180000Y-88781000I500000J0D01*
G01*
X170180000Y-88781000D01*
G75*
G02*
X170680000Y-89281000I0J-500000D01*
G01*
X170680000Y-89281000D01*
G75*
G02*
X170180000Y-89781000I-500000J0D01*
G01*
X170180000Y-89781000D01*
G75*
G02*
X169680000Y-89281000I0J500000D01*
G01*
G37*
G04 #@! TD.AperFunction*
D13*
X124753400Y-99155000D03*
X124753400Y-90495000D03*
D14*
X130603400Y-97225000D03*
X130603400Y-96425000D03*
X130603400Y-95625000D03*
X130603400Y-92425000D03*
X130603400Y-93225000D03*
X130603400Y-94025000D03*
X131303400Y-97625000D03*
X131303400Y-96025000D03*
X131303400Y-95225000D03*
X131303400Y-92025000D03*
X131303400Y-93625000D03*
D15*
X130953400Y-90820000D03*
D14*
X131303400Y-94425000D03*
D15*
X130953400Y-98830000D03*
D13*
X130453400Y-99155000D03*
X130453400Y-90495000D03*
D16*
X159221500Y-83565000D03*
X150561500Y-83565000D03*
D17*
X150886500Y-84065000D03*
D14*
X155291500Y-84415000D03*
D17*
X158896500Y-84065000D03*
D14*
X156091500Y-84415000D03*
X157691500Y-84415000D03*
X154491500Y-84415000D03*
X153691500Y-84415000D03*
X152091500Y-84415000D03*
X155691500Y-83715000D03*
X156491500Y-83715000D03*
X157291500Y-83715000D03*
X154091500Y-83715000D03*
X153291500Y-83715000D03*
X152491500Y-83715000D03*
D16*
X159221500Y-77865000D03*
X150561500Y-77865000D03*
D18*
X179451000Y-86741000D03*
X176911000Y-86741000D03*
X179451000Y-89281000D03*
X176911000Y-89281000D03*
X179451000Y-91821000D03*
X176911000Y-91821000D03*
X179451000Y-94361000D03*
X176911000Y-94361000D03*
X179451000Y-96901000D03*
X176911000Y-96901000D03*
X179451000Y-99441000D03*
X176911000Y-99441000D03*
X179451000Y-101981000D03*
X176911000Y-101981000D03*
X179451000Y-104521000D03*
X176911000Y-104521000D03*
X179451000Y-107061000D03*
X176911000Y-107061000D03*
X179451000Y-109601000D03*
X176911000Y-109601000D03*
D19*
X161671000Y-83693000D03*
G04 #@! TA.AperFunction,SMDPad,CuDef*
D10*
G36*
X162420398Y-84993000D02*
G01*
X162420398Y-85017534D01*
X162415588Y-85066365D01*
X162406016Y-85114490D01*
X162391772Y-85161445D01*
X162372995Y-85206778D01*
X162349864Y-85250051D01*
X162322604Y-85290850D01*
X162291476Y-85328779D01*
X162256779Y-85363476D01*
X162218850Y-85394604D01*
X162178051Y-85421864D01*
X162134778Y-85444995D01*
X162089445Y-85463772D01*
X162042490Y-85478016D01*
X161994365Y-85487588D01*
X161945534Y-85492398D01*
X161921000Y-85492398D01*
X161921000Y-85493000D01*
X161421000Y-85493000D01*
X161421000Y-85492398D01*
X161396466Y-85492398D01*
X161347635Y-85487588D01*
X161299510Y-85478016D01*
X161252555Y-85463772D01*
X161207222Y-85444995D01*
X161163949Y-85421864D01*
X161123150Y-85394604D01*
X161085221Y-85363476D01*
X161050524Y-85328779D01*
X161019396Y-85290850D01*
X160992136Y-85250051D01*
X160969005Y-85206778D01*
X160950228Y-85161445D01*
X160935984Y-85114490D01*
X160926412Y-85066365D01*
X160921602Y-85017534D01*
X160921602Y-84993000D01*
X160921000Y-84993000D01*
X160921000Y-84443000D01*
X162421000Y-84443000D01*
X162421000Y-84993000D01*
X162420398Y-84993000D01*
G37*
G04 #@! TD.AperFunction*
G04 #@! TA.AperFunction,SMDPad,CuDef*
G36*
X160921000Y-82943000D02*
G01*
X160921000Y-82393000D01*
X160921602Y-82393000D01*
X160921602Y-82368466D01*
X160926412Y-82319635D01*
X160935984Y-82271510D01*
X160950228Y-82224555D01*
X160969005Y-82179222D01*
X160992136Y-82135949D01*
X161019396Y-82095150D01*
X161050524Y-82057221D01*
X161085221Y-82022524D01*
X161123150Y-81991396D01*
X161163949Y-81964136D01*
X161207222Y-81941005D01*
X161252555Y-81922228D01*
X161299510Y-81907984D01*
X161347635Y-81898412D01*
X161396466Y-81893602D01*
X161421000Y-81893602D01*
X161421000Y-81893000D01*
X161921000Y-81893000D01*
X161921000Y-81893602D01*
X161945534Y-81893602D01*
X161994365Y-81898412D01*
X162042490Y-81907984D01*
X162089445Y-81922228D01*
X162134778Y-81941005D01*
X162178051Y-81964136D01*
X162218850Y-81991396D01*
X162256779Y-82022524D01*
X162291476Y-82057221D01*
X162322604Y-82095150D01*
X162349864Y-82135949D01*
X162372995Y-82179222D01*
X162391772Y-82224555D01*
X162406016Y-82271510D01*
X162415588Y-82319635D01*
X162420398Y-82368466D01*
X162420398Y-82393000D01*
X162421000Y-82393000D01*
X162421000Y-82943000D01*
X160921000Y-82943000D01*
G37*
G04 #@! TD.AperFunction*
D19*
X164211000Y-83693000D03*
G04 #@! TA.AperFunction,SMDPad,CuDef*
D10*
G36*
X164960398Y-84993000D02*
G01*
X164960398Y-85017534D01*
X164955588Y-85066365D01*
X164946016Y-85114490D01*
X164931772Y-85161445D01*
X164912995Y-85206778D01*
X164889864Y-85250051D01*
X164862604Y-85290850D01*
X164831476Y-85328779D01*
X164796779Y-85363476D01*
X164758850Y-85394604D01*
X164718051Y-85421864D01*
X164674778Y-85444995D01*
X164629445Y-85463772D01*
X164582490Y-85478016D01*
X164534365Y-85487588D01*
X164485534Y-85492398D01*
X164461000Y-85492398D01*
X164461000Y-85493000D01*
X163961000Y-85493000D01*
X163961000Y-85492398D01*
X163936466Y-85492398D01*
X163887635Y-85487588D01*
X163839510Y-85478016D01*
X163792555Y-85463772D01*
X163747222Y-85444995D01*
X163703949Y-85421864D01*
X163663150Y-85394604D01*
X163625221Y-85363476D01*
X163590524Y-85328779D01*
X163559396Y-85290850D01*
X163532136Y-85250051D01*
X163509005Y-85206778D01*
X163490228Y-85161445D01*
X163475984Y-85114490D01*
X163466412Y-85066365D01*
X163461602Y-85017534D01*
X163461602Y-84993000D01*
X163461000Y-84993000D01*
X163461000Y-84443000D01*
X164961000Y-84443000D01*
X164961000Y-84993000D01*
X164960398Y-84993000D01*
G37*
G04 #@! TD.AperFunction*
G04 #@! TA.AperFunction,SMDPad,CuDef*
G36*
X163461000Y-82943000D02*
G01*
X163461000Y-82393000D01*
X163461602Y-82393000D01*
X163461602Y-82368466D01*
X163466412Y-82319635D01*
X163475984Y-82271510D01*
X163490228Y-82224555D01*
X163509005Y-82179222D01*
X163532136Y-82135949D01*
X163559396Y-82095150D01*
X163590524Y-82057221D01*
X163625221Y-82022524D01*
X163663150Y-81991396D01*
X163703949Y-81964136D01*
X163747222Y-81941005D01*
X163792555Y-81922228D01*
X163839510Y-81907984D01*
X163887635Y-81898412D01*
X163936466Y-81893602D01*
X163961000Y-81893602D01*
X163961000Y-81893000D01*
X164461000Y-81893000D01*
X164461000Y-81893602D01*
X164485534Y-81893602D01*
X164534365Y-81898412D01*
X164582490Y-81907984D01*
X164629445Y-81922228D01*
X164674778Y-81941005D01*
X164718051Y-81964136D01*
X164758850Y-81991396D01*
X164796779Y-82022524D01*
X164831476Y-82057221D01*
X164862604Y-82095150D01*
X164889864Y-82135949D01*
X164912995Y-82179222D01*
X164931772Y-82224555D01*
X164946016Y-82271510D01*
X164955588Y-82319635D01*
X164960398Y-82368466D01*
X164960398Y-82393000D01*
X164961000Y-82393000D01*
X164961000Y-82943000D01*
X163461000Y-82943000D01*
G37*
G04 #@! TD.AperFunction*
D19*
X169545000Y-83693000D03*
G04 #@! TA.AperFunction,SMDPad,CuDef*
D10*
G36*
X168795602Y-82393000D02*
G01*
X168795602Y-82368466D01*
X168800412Y-82319635D01*
X168809984Y-82271510D01*
X168824228Y-82224555D01*
X168843005Y-82179222D01*
X168866136Y-82135949D01*
X168893396Y-82095150D01*
X168924524Y-82057221D01*
X168959221Y-82022524D01*
X168997150Y-81991396D01*
X169037949Y-81964136D01*
X169081222Y-81941005D01*
X169126555Y-81922228D01*
X169173510Y-81907984D01*
X169221635Y-81898412D01*
X169270466Y-81893602D01*
X169295000Y-81893602D01*
X169295000Y-81893000D01*
X169795000Y-81893000D01*
X169795000Y-81893602D01*
X169819534Y-81893602D01*
X169868365Y-81898412D01*
X169916490Y-81907984D01*
X169963445Y-81922228D01*
X170008778Y-81941005D01*
X170052051Y-81964136D01*
X170092850Y-81991396D01*
X170130779Y-82022524D01*
X170165476Y-82057221D01*
X170196604Y-82095150D01*
X170223864Y-82135949D01*
X170246995Y-82179222D01*
X170265772Y-82224555D01*
X170280016Y-82271510D01*
X170289588Y-82319635D01*
X170294398Y-82368466D01*
X170294398Y-82393000D01*
X170295000Y-82393000D01*
X170295000Y-82943000D01*
X168795000Y-82943000D01*
X168795000Y-82393000D01*
X168795602Y-82393000D01*
G37*
G04 #@! TD.AperFunction*
G04 #@! TA.AperFunction,SMDPad,CuDef*
G36*
X170295000Y-84443000D02*
G01*
X170295000Y-84993000D01*
X170294398Y-84993000D01*
X170294398Y-85017534D01*
X170289588Y-85066365D01*
X170280016Y-85114490D01*
X170265772Y-85161445D01*
X170246995Y-85206778D01*
X170223864Y-85250051D01*
X170196604Y-85290850D01*
X170165476Y-85328779D01*
X170130779Y-85363476D01*
X170092850Y-85394604D01*
X170052051Y-85421864D01*
X170008778Y-85444995D01*
X169963445Y-85463772D01*
X169916490Y-85478016D01*
X169868365Y-85487588D01*
X169819534Y-85492398D01*
X169795000Y-85492398D01*
X169795000Y-85493000D01*
X169295000Y-85493000D01*
X169295000Y-85492398D01*
X169270466Y-85492398D01*
X169221635Y-85487588D01*
X169173510Y-85478016D01*
X169126555Y-85463772D01*
X169081222Y-85444995D01*
X169037949Y-85421864D01*
X168997150Y-85394604D01*
X168959221Y-85363476D01*
X168924524Y-85328779D01*
X168893396Y-85290850D01*
X168866136Y-85250051D01*
X168843005Y-85206778D01*
X168824228Y-85161445D01*
X168809984Y-85114490D01*
X168800412Y-85066365D01*
X168795602Y-85017534D01*
X168795602Y-84993000D01*
X168795000Y-84993000D01*
X168795000Y-84443000D01*
X170295000Y-84443000D01*
G37*
G04 #@! TD.AperFunction*
G04 #@! TA.AperFunction,SMDPad,CuDef*
G36*
X166128000Y-82943000D02*
G01*
X166128000Y-82393000D01*
X166128602Y-82393000D01*
X166128602Y-82368466D01*
X166133412Y-82319635D01*
X166142984Y-82271510D01*
X166157228Y-82224555D01*
X166176005Y-82179222D01*
X166199136Y-82135949D01*
X166226396Y-82095150D01*
X166257524Y-82057221D01*
X166292221Y-82022524D01*
X166330150Y-81991396D01*
X166370949Y-81964136D01*
X166414222Y-81941005D01*
X166459555Y-81922228D01*
X166506510Y-81907984D01*
X166554635Y-81898412D01*
X166603466Y-81893602D01*
X166628000Y-81893602D01*
X166628000Y-81893000D01*
X167128000Y-81893000D01*
X167128000Y-81893602D01*
X167152534Y-81893602D01*
X167201365Y-81898412D01*
X167249490Y-81907984D01*
X167296445Y-81922228D01*
X167341778Y-81941005D01*
X167385051Y-81964136D01*
X167425850Y-81991396D01*
X167463779Y-82022524D01*
X167498476Y-82057221D01*
X167529604Y-82095150D01*
X167556864Y-82135949D01*
X167579995Y-82179222D01*
X167598772Y-82224555D01*
X167613016Y-82271510D01*
X167622588Y-82319635D01*
X167627398Y-82368466D01*
X167627398Y-82393000D01*
X167628000Y-82393000D01*
X167628000Y-82943000D01*
X166128000Y-82943000D01*
G37*
G04 #@! TD.AperFunction*
G04 #@! TA.AperFunction,SMDPad,CuDef*
G36*
X167627398Y-84993000D02*
G01*
X167627398Y-85017534D01*
X167622588Y-85066365D01*
X167613016Y-85114490D01*
X167598772Y-85161445D01*
X167579995Y-85206778D01*
X167556864Y-85250051D01*
X167529604Y-85290850D01*
X167498476Y-85328779D01*
X167463779Y-85363476D01*
X167425850Y-85394604D01*
X167385051Y-85421864D01*
X167341778Y-85444995D01*
X167296445Y-85463772D01*
X167249490Y-85478016D01*
X167201365Y-85487588D01*
X167152534Y-85492398D01*
X167128000Y-85492398D01*
X167128000Y-85493000D01*
X166628000Y-85493000D01*
X166628000Y-85492398D01*
X166603466Y-85492398D01*
X166554635Y-85487588D01*
X166506510Y-85478016D01*
X166459555Y-85463772D01*
X166414222Y-85444995D01*
X166370949Y-85421864D01*
X166330150Y-85394604D01*
X166292221Y-85363476D01*
X166257524Y-85328779D01*
X166226396Y-85290850D01*
X166199136Y-85250051D01*
X166176005Y-85206778D01*
X166157228Y-85161445D01*
X166142984Y-85114490D01*
X166133412Y-85066365D01*
X166128602Y-85017534D01*
X166128602Y-84993000D01*
X166128000Y-84993000D01*
X166128000Y-84443000D01*
X167628000Y-84443000D01*
X167628000Y-84993000D01*
X167627398Y-84993000D01*
G37*
G04 #@! TD.AperFunction*
D19*
X166878000Y-83693000D03*
D20*
X149860000Y-96901000D03*
X148209000Y-98425000D03*
X168021000Y-100076000D03*
X152400000Y-105156000D03*
X165227000Y-105791000D03*
X152527000Y-112141000D03*
X133096000Y-91313000D03*
X158242000Y-86741000D03*
X151638000Y-86614000D03*
X149098000Y-112141000D03*
X144145000Y-112141000D03*
X150495000Y-110236000D03*
X155194000Y-110236000D03*
X141859000Y-91059000D03*
X155321000Y-99441000D03*
X152019000Y-98933000D03*
X154813000Y-102489000D03*
X157480000Y-103505000D03*
X158623000Y-110236000D03*
X135001000Y-88646000D03*
X136525000Y-90678000D03*
X137160000Y-81915000D03*
X139065000Y-81915000D03*
X169291000Y-96393000D03*
X171323000Y-96393000D03*
X164465000Y-79883000D03*
X127254000Y-110363000D03*
X128651000Y-83820000D03*
X155956000Y-112141000D03*
X133604000Y-97790000D03*
X149098000Y-106045000D03*
X144653000Y-103251000D03*
X143129000Y-108585000D03*
X155575000Y-111125000D03*
X150622000Y-112141000D03*
X164973000Y-108458000D03*
X164973000Y-110490000D03*
X161417000Y-96393000D03*
X163195000Y-96393000D03*
X165227000Y-96393000D03*
X171196000Y-110426500D03*
X135509000Y-78613000D03*
X142240000Y-108077000D03*
X137287000Y-82931000D03*
X133604000Y-82042000D03*
X151003000Y-98933000D03*
X154305000Y-99441000D03*
X133350000Y-89154000D03*
X131572000Y-82804000D03*
X128651000Y-84836000D03*
X165100000Y-109474000D03*
X169799000Y-106299000D03*
X172339000Y-106172000D03*
X134493000Y-78613000D03*
X138303000Y-82677000D03*
X132588000Y-81661000D03*
X144526000Y-108585000D03*
X168783000Y-106299000D03*
X168783000Y-104013000D03*
X166497000Y-93345000D03*
X144272000Y-105791000D03*
X144399000Y-104267000D03*
X173990000Y-94488000D03*
X142875000Y-104267000D03*
X141859000Y-104267000D03*
X147320000Y-105156000D03*
X136906000Y-102489000D03*
X128651000Y-86868000D03*
X168783000Y-111506000D03*
X149479000Y-107061000D03*
X167894000Y-112268000D03*
X144145000Y-111125000D03*
X169164000Y-108331000D03*
X167132000Y-113157000D03*
X147320000Y-112014000D03*
X168021000Y-107061000D03*
X148082000Y-109347000D03*
X142748000Y-110617000D03*
X148209000Y-108331000D03*
X141732000Y-110490000D03*
X148336000Y-107315000D03*
X142748000Y-106045000D03*
X155067000Y-108204000D03*
X159639000Y-108458000D03*
X130937000Y-100711000D03*
X127508000Y-100965000D03*
X169545000Y-81280000D03*
X160528000Y-81661000D03*
X134874000Y-108204000D03*
X161671000Y-86106000D03*
X164211000Y-85979000D03*
X139573000Y-97663000D03*
X157861000Y-92456000D03*
X162560000Y-91059000D03*
X155194000Y-109220000D03*
X162687000Y-108458000D03*
X161925000Y-105664000D03*
X151511000Y-108077000D03*
X157480000Y-102489000D03*
X151511000Y-109220000D03*
X160274000Y-92710000D03*
X148590000Y-110236000D03*
X155067000Y-106680000D03*
X166497000Y-105537000D03*
X165608000Y-83693000D03*
X155498482Y-88569482D03*
X152654000Y-91440000D03*
X134366000Y-94615000D03*
X130937000Y-101711003D03*
X138811000Y-101473000D03*
X168275000Y-83693000D03*
X155067000Y-81026000D03*
X135128000Y-95631000D03*
X155321000Y-90170000D03*
X153924000Y-91821000D03*
X136779000Y-99949000D03*
X157861000Y-82677000D03*
X156210000Y-81026000D03*
X135128000Y-93726000D03*
X153543000Y-90678000D03*
X158496000Y-81534000D03*
X155067000Y-91186000D03*
X153162000Y-87884000D03*
X156210000Y-87376000D03*
X154051000Y-101727000D03*
X167132000Y-99568000D03*
X138557000Y-97409000D03*
X140208000Y-89408000D03*
X155194000Y-104267000D03*
X152019000Y-101600000D03*
X151511000Y-106045000D03*
X171196000Y-102489000D03*
X150939500Y-101600000D03*
X149860000Y-101600000D03*
X148971000Y-100330000D03*
X148082000Y-105918000D03*
X175260000Y-94361000D03*
X151511000Y-107061000D03*
X170053000Y-103632000D03*
D21*
X171831000Y-109601000D02*
X171831000Y-109855000D01*
X171831000Y-109791500D02*
X171196000Y-110426500D01*
X171831000Y-109601000D02*
X171831000Y-109791500D01*
D22*
X167259000Y-100838000D02*
X168021000Y-100076000D01*
X163703000Y-100838000D02*
X167259000Y-100838000D01*
X171831000Y-107061000D02*
X171831000Y-106934000D01*
X171831000Y-107061000D02*
X171831000Y-106807000D01*
X171831000Y-106680000D02*
X172339000Y-106172000D01*
X171831000Y-107061000D02*
X171831000Y-106680000D01*
D23*
X132588000Y-82214738D02*
X132588000Y-81661000D01*
X137709201Y-87335939D02*
X132588000Y-82214738D01*
X134493000Y-100838000D02*
X135042201Y-101387201D01*
X137709201Y-100969537D02*
X137709201Y-87335939D01*
X137291537Y-101387201D02*
X137709201Y-100969537D01*
X135042201Y-101387201D02*
X137291537Y-101387201D01*
D24*
X141158999Y-104582999D02*
X141158999Y-97543302D01*
X141158999Y-97543302D02*
X144976301Y-93726000D01*
X166116000Y-93726000D02*
X166497000Y-93345000D01*
X144976301Y-93726000D02*
X166116000Y-93726000D01*
X141924011Y-105348011D02*
X141158999Y-104582999D01*
X141924011Y-106257013D02*
X141924011Y-105348011D01*
X144251998Y-108585000D02*
X141924011Y-106257013D01*
X144526000Y-108585000D02*
X144251998Y-108585000D01*
D21*
X173318001Y-106843999D02*
X171831000Y-108331000D01*
X173318001Y-105950999D02*
X173318001Y-106843999D01*
X169740699Y-104970699D02*
X172337701Y-104970699D01*
X172337701Y-104970699D02*
X173318001Y-105950999D01*
X168783000Y-104013000D02*
X169740699Y-104970699D01*
D22*
X168783000Y-104013000D02*
X168783000Y-106299000D01*
D24*
X143552989Y-103986688D02*
X143552989Y-96731011D01*
X143698999Y-104132698D02*
X143552989Y-103986688D01*
X143698999Y-105217999D02*
X143698999Y-104132698D01*
X143552989Y-96731011D02*
X145757980Y-94526020D01*
X144272000Y-105791000D02*
X143698999Y-105217999D01*
X172917602Y-94526020D02*
X145757980Y-94526020D01*
X177960301Y-93857335D02*
X177373277Y-93270311D01*
X177960301Y-97950301D02*
X177960301Y-93857335D01*
X179451000Y-99441000D02*
X177960301Y-97950301D01*
X174173311Y-93270311D02*
X172917602Y-94526020D01*
X177373277Y-93270311D02*
X174173311Y-93270311D01*
X173551970Y-94926030D02*
X173990000Y-94488000D01*
X145923668Y-94926030D02*
X173551970Y-94926030D01*
X143952999Y-96896699D02*
X145923668Y-94926030D01*
X143952999Y-103820999D02*
X143952999Y-96896699D01*
X144399000Y-104267000D02*
X143952999Y-103820999D01*
X142748000Y-104140000D02*
X142875000Y-104267000D01*
X166751992Y-94126010D02*
X145141990Y-94126010D01*
X179451000Y-96901000D02*
X178401699Y-95851699D01*
X142748000Y-96520000D02*
X142748000Y-104140000D01*
X168021000Y-92857002D02*
X166751992Y-94126010D01*
X145141990Y-94126010D02*
X142748000Y-96520000D01*
X168034299Y-92870301D02*
X168021000Y-92857002D01*
X177538965Y-92870301D02*
X168034299Y-92870301D01*
X178401699Y-93733035D02*
X177538965Y-92870301D01*
X178401699Y-95851699D02*
X178401699Y-93733035D01*
X142936999Y-105344999D02*
X143084001Y-105344999D01*
X143571999Y-106127001D02*
X143935999Y-106491001D01*
X143571999Y-105832997D02*
X143571999Y-106127001D01*
X143084001Y-105344999D02*
X143571999Y-105832997D01*
X145984999Y-106491001D02*
X147320000Y-105156000D01*
X143935999Y-106491001D02*
X145984999Y-106491001D01*
X141859000Y-104267000D02*
X142936999Y-105344999D01*
D21*
X129773725Y-99985999D02*
X129717736Y-99930010D01*
X128651000Y-98898629D02*
X128651000Y-86868000D01*
X129738370Y-99985999D02*
X128651000Y-98898629D01*
X129773725Y-99985999D02*
X129738370Y-99985999D01*
X136404001Y-103322001D02*
X136906000Y-102820002D01*
X131285001Y-99985999D02*
X131953000Y-100653998D01*
X131953000Y-102693002D02*
X132581999Y-103322001D01*
X131953000Y-100653998D02*
X131953000Y-102693002D01*
X136906000Y-102820002D02*
X136906000Y-102489000D01*
X132581999Y-103322001D02*
X136404001Y-103322001D01*
X129773725Y-99985999D02*
X131285001Y-99985999D01*
D24*
X168721001Y-111567999D02*
X168783000Y-111506000D01*
X167119300Y-111567999D02*
X168721001Y-111567999D01*
X165846299Y-112841001D02*
X167119300Y-111567999D01*
X155619999Y-112841001D02*
X165846299Y-112841001D01*
X152698998Y-109920001D02*
X155619999Y-112841001D01*
X151174999Y-109920001D02*
X152698998Y-109920001D01*
X149479000Y-108224002D02*
X151174999Y-109920001D01*
X149479000Y-107061000D02*
X149479000Y-108224002D01*
D21*
X168783000Y-110822225D02*
X168783000Y-111506000D01*
X170004225Y-109601000D02*
X168783000Y-110822225D01*
X170561000Y-109601000D02*
X170004225Y-109601000D01*
D24*
X144145000Y-111125000D02*
X144151310Y-111118690D01*
X144206999Y-111063001D02*
X144145000Y-111125000D01*
X153250150Y-111036851D02*
X155454310Y-113241011D01*
X144233149Y-111036851D02*
X153250150Y-111036851D01*
X144145000Y-111125000D02*
X144233149Y-111036851D01*
X166984998Y-112268000D02*
X167894000Y-112268000D01*
X166011987Y-113241011D02*
X166984998Y-112268000D01*
X155454310Y-113241011D02*
X166011987Y-113241011D01*
D21*
X170561000Y-108331000D02*
X169164000Y-108331000D01*
D24*
X147893001Y-111440999D02*
X147320000Y-112014000D01*
X152863001Y-111440999D02*
X147893001Y-111440999D01*
X153553001Y-112130999D02*
X152863001Y-111440999D01*
X153967981Y-112545979D02*
X153553001Y-112130999D01*
X167140400Y-113030000D02*
X167259000Y-113030000D01*
D21*
X168021000Y-107061000D02*
X170561000Y-107061000D01*
D24*
X166647979Y-113641021D02*
X167132000Y-113157000D01*
X155063023Y-113641021D02*
X166647979Y-113641021D01*
X153553001Y-112130999D02*
X155063023Y-113641021D01*
X143402010Y-109962990D02*
X142748000Y-110617000D01*
X147573008Y-109962990D02*
X143402010Y-109962990D01*
X148188998Y-109347000D02*
X147573008Y-109962990D01*
X148082000Y-109347000D02*
X148188998Y-109347000D01*
X142659020Y-109562980D02*
X141732000Y-110490000D01*
X144564020Y-109562980D02*
X142659020Y-109562980D01*
X145796000Y-108331000D02*
X144564020Y-109562980D01*
X148209000Y-108331000D02*
X145796000Y-108331000D01*
X144018000Y-107315000D02*
X142748000Y-106045000D01*
X148336000Y-107315000D02*
X144018000Y-107315000D01*
D21*
X159385000Y-108204000D02*
X159639000Y-108458000D01*
X155067000Y-108204000D02*
X159385000Y-108204000D01*
D22*
X169545000Y-82139000D02*
X169291000Y-82393000D01*
X169545000Y-81280000D02*
X169545000Y-82139000D01*
X169291000Y-82393000D02*
X161671000Y-82393000D01*
X161671000Y-82393000D02*
X161260000Y-82393000D01*
X161260000Y-82393000D02*
X160528000Y-81661000D01*
X130683000Y-100965000D02*
X130937000Y-100711000D01*
X127508000Y-100965000D02*
X130683000Y-100965000D01*
X161671000Y-86106000D02*
X161671000Y-84993000D01*
X169291000Y-84993000D02*
X164211000Y-84993000D01*
X139573000Y-103505000D02*
X134874000Y-108204000D01*
X139573000Y-97663000D02*
X139573000Y-103505000D01*
X164211000Y-86106000D02*
X164211000Y-85979000D01*
X157861000Y-92456000D02*
X164211000Y-86106000D01*
X164211000Y-84993000D02*
X164211000Y-85979000D01*
X165115000Y-86883000D02*
X164211000Y-85979000D01*
X165115000Y-90805000D02*
X165115000Y-86883000D01*
X163561000Y-91059000D02*
X163815000Y-90805000D01*
X162560000Y-91059000D02*
X163561000Y-91059000D01*
D24*
X155194000Y-109093000D02*
X155386001Y-109285001D01*
X162539998Y-108458000D02*
X162687000Y-108458000D01*
X161777998Y-109220000D02*
X162539998Y-108458000D01*
X155194000Y-109220000D02*
X161777998Y-109220000D01*
X151531002Y-108331000D02*
X151511000Y-108331000D01*
X160085001Y-107503999D02*
X161925000Y-105664000D01*
X152084001Y-107503999D02*
X160085001Y-107503999D01*
X151511000Y-108077000D02*
X152084001Y-107503999D01*
X151363998Y-109220000D02*
X151511000Y-109220000D01*
X156779999Y-103189001D02*
X157480000Y-102489000D01*
X153330997Y-103189001D02*
X156779999Y-103189001D01*
X150810999Y-108413001D02*
X150810999Y-105708999D01*
X151511000Y-109113002D02*
X150810999Y-108413001D01*
X150810999Y-105708999D02*
X153330997Y-103189001D01*
X151511000Y-109220000D02*
X151511000Y-109113002D01*
X140758989Y-97377613D02*
X144810612Y-93325990D01*
X140758989Y-104748688D02*
X140758989Y-97377613D01*
X141524001Y-105513699D02*
X140758989Y-104748688D01*
X141031999Y-110826001D02*
X141031999Y-109825003D01*
X141522999Y-111317001D02*
X141031999Y-110826001D01*
X141524001Y-109333001D02*
X141524001Y-105513699D01*
X143084001Y-111317001D02*
X141522999Y-111317001D01*
X143870998Y-110363000D02*
X143448001Y-110785997D01*
X141031999Y-109825003D02*
X141524001Y-109333001D01*
X148590000Y-110236000D02*
X148463000Y-110363000D01*
X143448001Y-110953001D02*
X143084001Y-111317001D01*
X143448001Y-110785997D02*
X143448001Y-110953001D01*
X148463000Y-110363000D02*
X143870998Y-110363000D01*
X159658010Y-93325990D02*
X160274000Y-92710000D01*
X144810612Y-93325990D02*
X159658010Y-93325990D01*
X161224999Y-105327999D02*
X161715999Y-104836999D01*
X161224999Y-105602001D02*
X161224999Y-105327999D01*
X160147000Y-106680000D02*
X161224999Y-105602001D01*
X155067000Y-106680000D02*
X160147000Y-106680000D01*
X165796999Y-104836999D02*
X166497000Y-105537000D01*
X161715999Y-104836999D02*
X165796999Y-104836999D01*
X156910001Y-87712001D02*
X156052520Y-88569482D01*
X156910001Y-87039999D02*
X156910001Y-87712001D01*
X156052520Y-88569482D02*
X155498482Y-88569482D01*
X154491500Y-84621498D02*
X156910001Y-87039999D01*
X154491500Y-84415000D02*
X154491500Y-84621498D01*
X131727664Y-95225000D02*
X132337664Y-94615000D01*
X131303400Y-95225000D02*
X131727664Y-95225000D01*
X132337664Y-94615000D02*
X134366000Y-94615000D01*
X154615516Y-88569482D02*
X155498482Y-88569482D01*
X152654000Y-90530998D02*
X154615516Y-88569482D01*
X152654000Y-91313000D02*
X152654000Y-90530998D01*
D22*
X165608000Y-83693000D02*
X166878000Y-83693000D01*
D24*
X138811000Y-101620002D02*
X138811000Y-101473000D01*
X136683991Y-103747011D02*
X138811000Y-101620002D01*
X132405955Y-103747011D02*
X136683991Y-103747011D01*
X130937000Y-102278056D02*
X132405955Y-103747011D01*
X130937000Y-101711003D02*
X130937000Y-102278056D01*
X131303400Y-94425000D02*
X131091402Y-94425000D01*
X135339011Y-95419989D02*
X135128000Y-95631000D01*
X155091499Y-81255501D02*
X155321000Y-81026000D01*
X155291500Y-84203002D02*
X155091499Y-84003001D01*
X155291500Y-84415000D02*
X155291500Y-84203002D01*
X155091499Y-81050499D02*
X155067000Y-81026000D01*
X155091499Y-84003001D02*
X155091499Y-81050499D01*
D21*
X153924000Y-91821000D02*
X153924000Y-91567000D01*
X154323999Y-90855999D02*
X155009998Y-90170000D01*
X154323999Y-91421001D02*
X154323999Y-90855999D01*
X155009998Y-90170000D02*
X155321000Y-90170000D01*
X153924000Y-91821000D02*
X154323999Y-91421001D01*
D22*
X168275000Y-83693000D02*
X169545000Y-83693000D01*
D21*
X136779013Y-99948987D02*
X136779000Y-99949000D01*
X136779013Y-98806123D02*
X136779013Y-99948987D01*
X135128000Y-97155110D02*
X136779013Y-98806123D01*
X135128000Y-95631000D02*
X135128000Y-97155110D01*
D24*
X157861000Y-82677000D02*
X156210000Y-81026000D01*
X132538992Y-89719990D02*
X134747000Y-91927998D01*
X129717736Y-89719990D02*
X132538992Y-89719990D01*
X129253390Y-90184336D02*
X129717736Y-89719990D01*
X129253390Y-93099254D02*
X129253390Y-90184336D01*
X130179136Y-94025000D02*
X129253390Y-93099254D01*
X130603400Y-94025000D02*
X130179136Y-94025000D01*
D21*
X134747000Y-93345000D02*
X135128000Y-93726000D01*
X134747000Y-91927998D02*
X134747000Y-93345000D01*
X153543000Y-90678000D02*
X154776001Y-89444999D01*
D22*
X158496000Y-81534000D02*
X159061685Y-81534000D01*
D21*
X158851501Y-85815001D02*
X160973502Y-83693000D01*
X158094997Y-85815001D02*
X158851501Y-85815001D01*
X157516999Y-86392999D02*
X158094997Y-85815001D01*
X157516999Y-87706057D02*
X157516999Y-86392999D01*
X155778057Y-89444999D02*
X157516999Y-87706057D01*
X160021510Y-82493825D02*
X159061685Y-81534000D01*
X154776001Y-89444999D02*
X155778057Y-89444999D01*
X160973502Y-83693000D02*
X161671000Y-83693000D01*
X160671000Y-83693000D02*
X161671000Y-83693000D01*
X160021510Y-83043510D02*
X160671000Y-83693000D01*
X160021510Y-82493825D02*
X160021510Y-83043510D01*
X163751364Y-83693000D02*
X164211000Y-83693000D01*
X163135990Y-84308374D02*
X163751364Y-83693000D01*
X163135990Y-85714012D02*
X163135990Y-84308374D01*
X162019001Y-86831001D02*
X159225001Y-86831001D01*
X163135990Y-85714012D02*
X162019001Y-86831001D01*
X155378002Y-91186000D02*
X155067000Y-91186000D01*
X156046001Y-90518001D02*
X155378002Y-91186000D01*
X156046001Y-90010001D02*
X156046001Y-90518001D01*
X159225001Y-86831001D02*
X156046001Y-90010001D01*
X153670000Y-87376000D02*
X153162000Y-87884000D01*
X156210000Y-87376000D02*
X153670000Y-87376000D01*
D24*
X167132000Y-99568000D02*
X165857031Y-98293031D01*
X157484969Y-98293031D02*
X154051000Y-101727000D01*
X165857031Y-98293031D02*
X157484969Y-98293031D01*
X160539604Y-104267000D02*
X161301604Y-103505000D01*
X155194000Y-104267000D02*
X160539604Y-104267000D01*
X178401699Y-108551699D02*
X179451000Y-109601000D01*
X176848733Y-108551699D02*
X178401699Y-108551699D01*
X175861699Y-107564665D02*
X176848733Y-108551699D01*
X171532001Y-101788999D02*
X175861699Y-106118697D01*
X165529645Y-103505000D02*
X167245646Y-101788999D01*
X175861699Y-106118697D02*
X175861699Y-107564665D01*
X167245646Y-101788999D02*
X171532001Y-101788999D01*
X161301604Y-103505000D02*
X165529645Y-103505000D01*
X168730055Y-97893021D02*
X176848733Y-106011699D01*
X178401699Y-106011699D02*
X179451000Y-107061000D01*
X176848733Y-106011699D02*
X178401699Y-106011699D01*
X154816977Y-97893021D02*
X152019000Y-100690998D01*
X152019000Y-100690998D02*
X152019000Y-101600000D01*
X168730055Y-97893021D02*
X154816977Y-97893021D01*
X151511000Y-106045000D02*
X151576001Y-105979999D01*
X167111343Y-102489000D02*
X171196000Y-102489000D01*
X165671354Y-103928989D02*
X167111343Y-102489000D01*
X161443313Y-103928989D02*
X165671354Y-103928989D01*
X151511000Y-106045000D02*
X152547002Y-106045000D01*
X152547002Y-106045000D02*
X153625001Y-104967001D01*
X160405301Y-104967001D02*
X161443313Y-103928989D01*
X153625001Y-104967001D02*
X160405301Y-104967001D01*
X176848733Y-103471699D02*
X178401699Y-103471699D01*
X170870045Y-97493011D02*
X176848733Y-103471699D01*
X178401699Y-103471699D02*
X179451000Y-104521000D01*
X154494991Y-97493011D02*
X150939500Y-101048502D01*
X150939500Y-101048502D02*
X150939500Y-101600000D01*
X170870045Y-97493011D02*
X154494991Y-97493011D01*
X149860000Y-99039998D02*
X149860000Y-99441000D01*
X151806997Y-97093001D02*
X149860000Y-99039998D01*
X176718999Y-97093001D02*
X151806997Y-97093001D01*
X176911000Y-96901000D02*
X176718999Y-97093001D01*
X149860000Y-101600000D02*
X149860000Y-99441000D01*
X149860000Y-99441000D02*
X149860000Y-99334002D01*
D25*
X152651158Y-95716799D02*
X148971000Y-99396957D01*
X148971000Y-99396957D02*
X148971000Y-100330000D01*
X175555201Y-95716799D02*
X152651158Y-95716799D01*
X176911000Y-94361000D02*
X175555201Y-95716799D01*
D24*
X148209000Y-105918000D02*
X148082000Y-106045000D01*
X148082000Y-105918000D02*
X148209000Y-105791000D01*
D25*
X148082000Y-99787575D02*
X148082000Y-105918000D01*
X152567335Y-95302240D02*
X148082000Y-99787575D01*
X174318760Y-95302240D02*
X152567335Y-95302240D01*
X175260000Y-94361000D02*
X174318760Y-95302240D01*
D24*
X154730999Y-105979999D02*
X159958001Y-105979999D01*
X161417000Y-104521000D02*
X161466299Y-104521000D01*
X161466299Y-104521000D02*
X161658300Y-104328999D01*
X159958001Y-105979999D02*
X161417000Y-104521000D01*
X153649998Y-107061000D02*
X154730999Y-105979999D01*
X151511000Y-107061000D02*
X153649998Y-107061000D01*
X168446999Y-103312999D02*
X169733999Y-103312999D01*
X167430999Y-104328999D02*
X168446999Y-103312999D01*
X169733999Y-103312999D02*
X170053000Y-103632000D01*
X161658300Y-104328999D02*
X167430999Y-104328999D01*
X149733000Y-96901000D02*
X149860000Y-96901000D01*
X148209000Y-98425000D02*
X149733000Y-96901000D01*
X138557000Y-91059000D02*
X140208000Y-89408000D01*
X138557000Y-97409000D02*
X138557000Y-91059000D01*
M02*
