G04 #@! TF.GenerationSoftware,KiCad,Pcbnew,(5.1.6-0-10_14)*
G04 #@! TF.CreationDate,2021-09-10T12:16:29-05:00*
G04 #@! TF.ProjectId,DFC_REV_D,4446435f-5245-4565-9f44-2e6b69636164,rev?*
G04 #@! TF.SameCoordinates,Original*
G04 #@! TF.FileFunction,Legend,Top*
G04 #@! TF.FilePolarity,Positive*
%FSLAX46Y46*%
G04 Gerber Fmt 4.6, Leading zero omitted, Abs format (unit mm)*
G04 Created by KiCad (PCBNEW (5.1.6-0-10_14)) date 2021-09-10 12:16:29*
%MOMM*%
%LPD*%
G01*
G04 APERTURE LIST*
%ADD10C,0.100000*%
%ADD11C,0.152400*%
%ADD12C,0.120000*%
%ADD13C,0.200000*%
%ADD14C,0.127000*%
%ADD15C,0.304800*%
%ADD16C,0.203200*%
%ADD17C,0.300000*%
%ADD18C,0.150000*%
%ADD19C,0.146304*%
G04 APERTURE END LIST*
D10*
X172435761Y-109396932D02*
X172530042Y-109349792D01*
X172647893Y-109231941D01*
X172671463Y-109161230D01*
X172671463Y-109114089D01*
X172647893Y-109043379D01*
X172600752Y-108996238D01*
X172530042Y-108972668D01*
X172482901Y-108972668D01*
X172412190Y-108996238D01*
X172294339Y-109066949D01*
X172223629Y-109090519D01*
X172176488Y-109090519D01*
X172105778Y-109066949D01*
X172058637Y-109019809D01*
X172035067Y-108949098D01*
X172035067Y-108901957D01*
X172058637Y-108831247D01*
X172176488Y-108713396D01*
X172270769Y-108666255D01*
X172412190Y-108477693D02*
X173025016Y-108854817D01*
X172765744Y-108406983D01*
X173213578Y-108666255D01*
X172836455Y-108053429D01*
X173755693Y-108029859D02*
X173755693Y-108076999D01*
X173708553Y-108171280D01*
X173661412Y-108218421D01*
X173567132Y-108265561D01*
X173472851Y-108265561D01*
X173402140Y-108241991D01*
X173284289Y-108171280D01*
X173213578Y-108100570D01*
X173142867Y-107982719D01*
X173119297Y-107912008D01*
X173119297Y-107817727D01*
X173166438Y-107723446D01*
X173213578Y-107676306D01*
X173307859Y-107629165D01*
X173355000Y-107629165D01*
X174250668Y-107629165D02*
X174014966Y-107864867D01*
X173519991Y-107369893D01*
X174415660Y-107464174D02*
X173920685Y-106969199D01*
X174698502Y-107181331D02*
X174203528Y-107110620D01*
X174203528Y-106686356D02*
X174203528Y-107252042D01*
X172629595Y-107933098D02*
X172723876Y-107885957D01*
X172841727Y-107768106D01*
X172865297Y-107697396D01*
X172865297Y-107650255D01*
X172841727Y-107579544D01*
X172794587Y-107532404D01*
X172723876Y-107508834D01*
X172676735Y-107508834D01*
X172606025Y-107532404D01*
X172488174Y-107603115D01*
X172417463Y-107626685D01*
X172370322Y-107626685D01*
X172299612Y-107603115D01*
X172252471Y-107555974D01*
X172228901Y-107485264D01*
X172228901Y-107438123D01*
X172252471Y-107367412D01*
X172370322Y-107249561D01*
X172464603Y-107202421D01*
X172606025Y-107013859D02*
X173218851Y-107390983D01*
X172959578Y-106943148D01*
X173407412Y-107202421D01*
X173030289Y-106589595D01*
X173713825Y-106896008D02*
X173218851Y-106401033D01*
X173336702Y-106283182D01*
X173430983Y-106236042D01*
X173525264Y-106236042D01*
X173595974Y-106259612D01*
X173713825Y-106330322D01*
X173784536Y-106401033D01*
X173855247Y-106518884D01*
X173878817Y-106589595D01*
X173878817Y-106683876D01*
X173831677Y-106778157D01*
X173713825Y-106896008D01*
X172744810Y-110357883D02*
X172839091Y-110310743D01*
X172956942Y-110192891D01*
X172980512Y-110122181D01*
X172980512Y-110075040D01*
X172956942Y-110004330D01*
X172909801Y-109957189D01*
X172839091Y-109933619D01*
X172791950Y-109933619D01*
X172721240Y-109957189D01*
X172603389Y-110027900D01*
X172532678Y-110051470D01*
X172485537Y-110051470D01*
X172414827Y-110027900D01*
X172367686Y-109980759D01*
X172344116Y-109910049D01*
X172344116Y-109862908D01*
X172367686Y-109792198D01*
X172485537Y-109674346D01*
X172579818Y-109627206D01*
X172721240Y-109438644D02*
X173334066Y-109815768D01*
X173074793Y-109367933D01*
X173522627Y-109627206D01*
X173145504Y-109014380D01*
X173428346Y-108731537D02*
X173522627Y-108637256D01*
X173593338Y-108613686D01*
X173687619Y-108613686D01*
X173805470Y-108684397D01*
X173970462Y-108849389D01*
X174041172Y-108967240D01*
X174041172Y-109061521D01*
X174017602Y-109132231D01*
X173923321Y-109226512D01*
X173852610Y-109250082D01*
X173758330Y-109250082D01*
X173640478Y-109179372D01*
X173475487Y-109014380D01*
X173404776Y-108896529D01*
X173404776Y-108802248D01*
X173428346Y-108731537D01*
X168907363Y-108849389D02*
X168883793Y-108778678D01*
X168813082Y-108707967D01*
X168718801Y-108660827D01*
X168624521Y-108660827D01*
X168553810Y-108684397D01*
X168435959Y-108755108D01*
X168365248Y-108825818D01*
X168294537Y-108943669D01*
X168270967Y-109014380D01*
X168270967Y-109108661D01*
X168318108Y-109202942D01*
X168365248Y-109250082D01*
X168459529Y-109297223D01*
X168506669Y-109297223D01*
X168671661Y-109132231D01*
X168577380Y-109037950D01*
X168671661Y-109556495D02*
X169166636Y-109061521D01*
X168954504Y-109839338D01*
X169449478Y-109344363D01*
X169190206Y-110075040D02*
X169685181Y-109580066D01*
X169803032Y-109697917D01*
X169850172Y-109792198D01*
X169850172Y-109886478D01*
X169826602Y-109957189D01*
X169755891Y-110075040D01*
X169685181Y-110145751D01*
X169567330Y-110216462D01*
X169496619Y-110240032D01*
X169402338Y-110240032D01*
X169308057Y-110192891D01*
X169190206Y-110075040D01*
X168796025Y-108283859D02*
X168866735Y-107883165D01*
X168513182Y-108001016D02*
X169008157Y-107506042D01*
X169196719Y-107694603D01*
X169220289Y-107765314D01*
X169220289Y-107812455D01*
X169196719Y-107883165D01*
X169126008Y-107953876D01*
X169055297Y-107977446D01*
X169008157Y-107977446D01*
X168937446Y-107953876D01*
X168748884Y-107765314D01*
X169008157Y-108448851D02*
X169055297Y-108543132D01*
X169173148Y-108660983D01*
X169243859Y-108684553D01*
X169291000Y-108684553D01*
X169361710Y-108660983D01*
X169408851Y-108613842D01*
X169432421Y-108543132D01*
X169432421Y-108495991D01*
X169408851Y-108425280D01*
X169338140Y-108307429D01*
X169314570Y-108236719D01*
X169314570Y-108189578D01*
X169338140Y-108118867D01*
X169385280Y-108071727D01*
X169455991Y-108048157D01*
X169503132Y-108048157D01*
X169573842Y-108071727D01*
X169691693Y-108189578D01*
X169738834Y-108283859D01*
X169903825Y-108401710D02*
X170186668Y-108684553D01*
X169550272Y-109038106D02*
X170045247Y-108543132D01*
X169043512Y-106271397D02*
X169349925Y-106577810D01*
X168996372Y-106601380D01*
X169067082Y-106672091D01*
X169090653Y-106742801D01*
X169090653Y-106789942D01*
X169067082Y-106860653D01*
X168949231Y-106978504D01*
X168878521Y-107002074D01*
X168831380Y-107002074D01*
X168760669Y-106978504D01*
X168619248Y-106837082D01*
X168595678Y-106766372D01*
X168595678Y-106719231D01*
X169114223Y-107237776D02*
X169114223Y-107284917D01*
X169067082Y-107284917D01*
X169067082Y-107237776D01*
X169114223Y-107237776D01*
X169067082Y-107284917D01*
X169750619Y-106978504D02*
X170057032Y-107284917D01*
X169703478Y-107308487D01*
X169774189Y-107379198D01*
X169797759Y-107449908D01*
X169797759Y-107497049D01*
X169774189Y-107567759D01*
X169656338Y-107685610D01*
X169585627Y-107709181D01*
X169538487Y-107709181D01*
X169467776Y-107685610D01*
X169326355Y-107544189D01*
X169302785Y-107473478D01*
X169302785Y-107426338D01*
X172701142Y-92182904D02*
X172701142Y-91382904D01*
X173005904Y-91382904D01*
X173082095Y-91421000D01*
X173120190Y-91459095D01*
X173158285Y-91535285D01*
X173158285Y-91649571D01*
X173120190Y-91725761D01*
X173082095Y-91763857D01*
X173005904Y-91801952D01*
X172701142Y-91801952D01*
X173653523Y-91382904D02*
X173729714Y-91382904D01*
X173805904Y-91421000D01*
X173844000Y-91459095D01*
X173882095Y-91535285D01*
X173920190Y-91687666D01*
X173920190Y-91878142D01*
X173882095Y-92030523D01*
X173844000Y-92106714D01*
X173805904Y-92144809D01*
X173729714Y-92182904D01*
X173653523Y-92182904D01*
X173577333Y-92144809D01*
X173539238Y-92106714D01*
X173501142Y-92030523D01*
X173463047Y-91878142D01*
X173463047Y-91687666D01*
X173501142Y-91535285D01*
X173539238Y-91459095D01*
X173577333Y-91421000D01*
X173653523Y-91382904D01*
X174263047Y-92106714D02*
X174301142Y-92144809D01*
X174263047Y-92182904D01*
X174224952Y-92144809D01*
X174263047Y-92106714D01*
X174263047Y-92182904D01*
X175063047Y-92182904D02*
X174605904Y-92182904D01*
X174834476Y-92182904D02*
X174834476Y-91382904D01*
X174758285Y-91497190D01*
X174682095Y-91573380D01*
X174605904Y-91611476D01*
X175558285Y-91382904D02*
X175634476Y-91382904D01*
X175710666Y-91421000D01*
X175748761Y-91459095D01*
X175786857Y-91535285D01*
X175824952Y-91687666D01*
X175824952Y-91878142D01*
X175786857Y-92030523D01*
X175748761Y-92106714D01*
X175710666Y-92144809D01*
X175634476Y-92182904D01*
X175558285Y-92182904D01*
X175482095Y-92144809D01*
X175444000Y-92106714D01*
X175405904Y-92030523D01*
X175367809Y-91878142D01*
X175367809Y-91687666D01*
X175405904Y-91535285D01*
X175444000Y-91459095D01*
X175482095Y-91421000D01*
X175558285Y-91382904D01*
X172701142Y-102342904D02*
X172701142Y-101542904D01*
X173005904Y-101542904D01*
X173082095Y-101581000D01*
X173120190Y-101619095D01*
X173158285Y-101695285D01*
X173158285Y-101809571D01*
X173120190Y-101885761D01*
X173082095Y-101923857D01*
X173005904Y-101961952D01*
X172701142Y-101961952D01*
X173653523Y-101542904D02*
X173729714Y-101542904D01*
X173805904Y-101581000D01*
X173844000Y-101619095D01*
X173882095Y-101695285D01*
X173920190Y-101847666D01*
X173920190Y-102038142D01*
X173882095Y-102190523D01*
X173844000Y-102266714D01*
X173805904Y-102304809D01*
X173729714Y-102342904D01*
X173653523Y-102342904D01*
X173577333Y-102304809D01*
X173539238Y-102266714D01*
X173501142Y-102190523D01*
X173463047Y-102038142D01*
X173463047Y-101847666D01*
X173501142Y-101695285D01*
X173539238Y-101619095D01*
X173577333Y-101581000D01*
X173653523Y-101542904D01*
X174263047Y-102266714D02*
X174301142Y-102304809D01*
X174263047Y-102342904D01*
X174224952Y-102304809D01*
X174263047Y-102266714D01*
X174263047Y-102342904D01*
X174796380Y-101542904D02*
X174872571Y-101542904D01*
X174948761Y-101581000D01*
X174986857Y-101619095D01*
X175024952Y-101695285D01*
X175063047Y-101847666D01*
X175063047Y-102038142D01*
X175024952Y-102190523D01*
X174986857Y-102266714D01*
X174948761Y-102304809D01*
X174872571Y-102342904D01*
X174796380Y-102342904D01*
X174720190Y-102304809D01*
X174682095Y-102266714D01*
X174644000Y-102190523D01*
X174605904Y-102038142D01*
X174605904Y-101847666D01*
X174644000Y-101695285D01*
X174682095Y-101619095D01*
X174720190Y-101581000D01*
X174796380Y-101542904D01*
X175748761Y-101809571D02*
X175748761Y-102342904D01*
X175558285Y-101504809D02*
X175367809Y-102076238D01*
X175863047Y-102076238D01*
X179940142Y-108692904D02*
X179940142Y-107892904D01*
X180244904Y-107892904D01*
X180321095Y-107931000D01*
X180359190Y-107969095D01*
X180397285Y-108045285D01*
X180397285Y-108159571D01*
X180359190Y-108235761D01*
X180321095Y-108273857D01*
X180244904Y-108311952D01*
X179940142Y-108311952D01*
X180892523Y-107892904D02*
X180968714Y-107892904D01*
X181044904Y-107931000D01*
X181083000Y-107969095D01*
X181121095Y-108045285D01*
X181159190Y-108197666D01*
X181159190Y-108388142D01*
X181121095Y-108540523D01*
X181083000Y-108616714D01*
X181044904Y-108654809D01*
X180968714Y-108692904D01*
X180892523Y-108692904D01*
X180816333Y-108654809D01*
X180778238Y-108616714D01*
X180740142Y-108540523D01*
X180702047Y-108388142D01*
X180702047Y-108197666D01*
X180740142Y-108045285D01*
X180778238Y-107969095D01*
X180816333Y-107931000D01*
X180892523Y-107892904D01*
X181502047Y-108616714D02*
X181540142Y-108654809D01*
X181502047Y-108692904D01*
X181463952Y-108654809D01*
X181502047Y-108616714D01*
X181502047Y-108692904D01*
X182035380Y-107892904D02*
X182111571Y-107892904D01*
X182187761Y-107931000D01*
X182225857Y-107969095D01*
X182263952Y-108045285D01*
X182302047Y-108197666D01*
X182302047Y-108388142D01*
X182263952Y-108540523D01*
X182225857Y-108616714D01*
X182187761Y-108654809D01*
X182111571Y-108692904D01*
X182035380Y-108692904D01*
X181959190Y-108654809D01*
X181921095Y-108616714D01*
X181883000Y-108540523D01*
X181844904Y-108388142D01*
X181844904Y-108197666D01*
X181883000Y-108045285D01*
X181921095Y-107969095D01*
X181959190Y-107931000D01*
X182035380Y-107892904D01*
X182568714Y-107892904D02*
X183063952Y-107892904D01*
X182797285Y-108197666D01*
X182911571Y-108197666D01*
X182987761Y-108235761D01*
X183025857Y-108273857D01*
X183063952Y-108350047D01*
X183063952Y-108540523D01*
X183025857Y-108616714D01*
X182987761Y-108654809D01*
X182911571Y-108692904D01*
X182683000Y-108692904D01*
X182606809Y-108654809D01*
X182568714Y-108616714D01*
X179940142Y-111232904D02*
X179940142Y-110432904D01*
X180244904Y-110432904D01*
X180321095Y-110471000D01*
X180359190Y-110509095D01*
X180397285Y-110585285D01*
X180397285Y-110699571D01*
X180359190Y-110775761D01*
X180321095Y-110813857D01*
X180244904Y-110851952D01*
X179940142Y-110851952D01*
X180892523Y-110432904D02*
X180968714Y-110432904D01*
X181044904Y-110471000D01*
X181083000Y-110509095D01*
X181121095Y-110585285D01*
X181159190Y-110737666D01*
X181159190Y-110928142D01*
X181121095Y-111080523D01*
X181083000Y-111156714D01*
X181044904Y-111194809D01*
X180968714Y-111232904D01*
X180892523Y-111232904D01*
X180816333Y-111194809D01*
X180778238Y-111156714D01*
X180740142Y-111080523D01*
X180702047Y-110928142D01*
X180702047Y-110737666D01*
X180740142Y-110585285D01*
X180778238Y-110509095D01*
X180816333Y-110471000D01*
X180892523Y-110432904D01*
X181502047Y-111156714D02*
X181540142Y-111194809D01*
X181502047Y-111232904D01*
X181463952Y-111194809D01*
X181502047Y-111156714D01*
X181502047Y-111232904D01*
X182035380Y-110432904D02*
X182111571Y-110432904D01*
X182187761Y-110471000D01*
X182225857Y-110509095D01*
X182263952Y-110585285D01*
X182302047Y-110737666D01*
X182302047Y-110928142D01*
X182263952Y-111080523D01*
X182225857Y-111156714D01*
X182187761Y-111194809D01*
X182111571Y-111232904D01*
X182035380Y-111232904D01*
X181959190Y-111194809D01*
X181921095Y-111156714D01*
X181883000Y-111080523D01*
X181844904Y-110928142D01*
X181844904Y-110737666D01*
X181883000Y-110585285D01*
X181921095Y-110509095D01*
X181959190Y-110471000D01*
X182035380Y-110432904D01*
X182606809Y-110509095D02*
X182644904Y-110471000D01*
X182721095Y-110432904D01*
X182911571Y-110432904D01*
X182987761Y-110471000D01*
X183025857Y-110509095D01*
X183063952Y-110585285D01*
X183063952Y-110661476D01*
X183025857Y-110775761D01*
X182568714Y-111232904D01*
X183063952Y-111232904D01*
X173455637Y-104815471D02*
X173950612Y-104320497D01*
X174068463Y-104438348D01*
X174115603Y-104532629D01*
X174115603Y-104626910D01*
X174092033Y-104697620D01*
X174021322Y-104815471D01*
X173950612Y-104886182D01*
X173832761Y-104956893D01*
X173762050Y-104980463D01*
X173667769Y-104980463D01*
X173573488Y-104933322D01*
X173455637Y-104815471D01*
X174539867Y-104909752D02*
X174634148Y-105004033D01*
X174657719Y-105074744D01*
X174657719Y-105169025D01*
X174587008Y-105286876D01*
X174422016Y-105451867D01*
X174304165Y-105522578D01*
X174209884Y-105522578D01*
X174139174Y-105499008D01*
X174044893Y-105404727D01*
X174021322Y-105334016D01*
X174021322Y-105239735D01*
X174092033Y-105121884D01*
X174257025Y-104956893D01*
X174374876Y-104886182D01*
X174469157Y-104886182D01*
X174539867Y-104909752D01*
X174964132Y-105334016D02*
X174563438Y-105734710D01*
X174539867Y-105805421D01*
X174539867Y-105852561D01*
X174563438Y-105923272D01*
X174657719Y-106017553D01*
X174728429Y-106041123D01*
X174775570Y-106041123D01*
X174846280Y-106017553D01*
X175246974Y-105616859D01*
X175411966Y-105781851D02*
X175694809Y-106064693D01*
X175058412Y-106418247D02*
X175553387Y-105923272D01*
X175789089Y-106253255D02*
X175836230Y-106253255D01*
X175906941Y-106276825D01*
X176024792Y-106394677D01*
X176048362Y-106465387D01*
X176048362Y-106512528D01*
X176024792Y-106583238D01*
X175977651Y-106630379D01*
X175883370Y-106677519D01*
X175317685Y-106677519D01*
X175624098Y-106983932D01*
X172701142Y-94087904D02*
X172701142Y-93287904D01*
X173005904Y-93287904D01*
X173082095Y-93326000D01*
X173120190Y-93364095D01*
X173158285Y-93440285D01*
X173158285Y-93554571D01*
X173120190Y-93630761D01*
X173082095Y-93668857D01*
X173005904Y-93706952D01*
X172701142Y-93706952D01*
X173653523Y-93287904D02*
X173729714Y-93287904D01*
X173805904Y-93326000D01*
X173844000Y-93364095D01*
X173882095Y-93440285D01*
X173920190Y-93592666D01*
X173920190Y-93783142D01*
X173882095Y-93935523D01*
X173844000Y-94011714D01*
X173805904Y-94049809D01*
X173729714Y-94087904D01*
X173653523Y-94087904D01*
X173577333Y-94049809D01*
X173539238Y-94011714D01*
X173501142Y-93935523D01*
X173463047Y-93783142D01*
X173463047Y-93592666D01*
X173501142Y-93440285D01*
X173539238Y-93364095D01*
X173577333Y-93326000D01*
X173653523Y-93287904D01*
X174263047Y-94011714D02*
X174301142Y-94049809D01*
X174263047Y-94087904D01*
X174224952Y-94049809D01*
X174263047Y-94011714D01*
X174263047Y-94087904D01*
X174796380Y-93287904D02*
X174872571Y-93287904D01*
X174948761Y-93326000D01*
X174986857Y-93364095D01*
X175024952Y-93440285D01*
X175063047Y-93592666D01*
X175063047Y-93783142D01*
X175024952Y-93935523D01*
X174986857Y-94011714D01*
X174948761Y-94049809D01*
X174872571Y-94087904D01*
X174796380Y-94087904D01*
X174720190Y-94049809D01*
X174682095Y-94011714D01*
X174644000Y-93935523D01*
X174605904Y-93783142D01*
X174605904Y-93592666D01*
X174644000Y-93440285D01*
X174682095Y-93364095D01*
X174720190Y-93326000D01*
X174796380Y-93287904D01*
X175444000Y-94087904D02*
X175596380Y-94087904D01*
X175672571Y-94049809D01*
X175710666Y-94011714D01*
X175786857Y-93897428D01*
X175824952Y-93745047D01*
X175824952Y-93440285D01*
X175786857Y-93364095D01*
X175748761Y-93326000D01*
X175672571Y-93287904D01*
X175520190Y-93287904D01*
X175444000Y-93326000D01*
X175405904Y-93364095D01*
X175367809Y-93440285D01*
X175367809Y-93630761D01*
X175405904Y-93706952D01*
X175444000Y-93745047D01*
X175520190Y-93783142D01*
X175672571Y-93783142D01*
X175748761Y-93745047D01*
X175786857Y-93706952D01*
X175824952Y-93630761D01*
X179940142Y-106152904D02*
X179940142Y-105352904D01*
X180244904Y-105352904D01*
X180321095Y-105391000D01*
X180359190Y-105429095D01*
X180397285Y-105505285D01*
X180397285Y-105619571D01*
X180359190Y-105695761D01*
X180321095Y-105733857D01*
X180244904Y-105771952D01*
X179940142Y-105771952D01*
X180892523Y-105352904D02*
X180968714Y-105352904D01*
X181044904Y-105391000D01*
X181083000Y-105429095D01*
X181121095Y-105505285D01*
X181159190Y-105657666D01*
X181159190Y-105848142D01*
X181121095Y-106000523D01*
X181083000Y-106076714D01*
X181044904Y-106114809D01*
X180968714Y-106152904D01*
X180892523Y-106152904D01*
X180816333Y-106114809D01*
X180778238Y-106076714D01*
X180740142Y-106000523D01*
X180702047Y-105848142D01*
X180702047Y-105657666D01*
X180740142Y-105505285D01*
X180778238Y-105429095D01*
X180816333Y-105391000D01*
X180892523Y-105352904D01*
X181502047Y-106076714D02*
X181540142Y-106114809D01*
X181502047Y-106152904D01*
X181463952Y-106114809D01*
X181502047Y-106076714D01*
X181502047Y-106152904D01*
X182035380Y-105352904D02*
X182111571Y-105352904D01*
X182187761Y-105391000D01*
X182225857Y-105429095D01*
X182263952Y-105505285D01*
X182302047Y-105657666D01*
X182302047Y-105848142D01*
X182263952Y-106000523D01*
X182225857Y-106076714D01*
X182187761Y-106114809D01*
X182111571Y-106152904D01*
X182035380Y-106152904D01*
X181959190Y-106114809D01*
X181921095Y-106076714D01*
X181883000Y-106000523D01*
X181844904Y-105848142D01*
X181844904Y-105657666D01*
X181883000Y-105505285D01*
X181921095Y-105429095D01*
X181959190Y-105391000D01*
X182035380Y-105352904D01*
X183025857Y-105352904D02*
X182644904Y-105352904D01*
X182606809Y-105733857D01*
X182644904Y-105695761D01*
X182721095Y-105657666D01*
X182911571Y-105657666D01*
X182987761Y-105695761D01*
X183025857Y-105733857D01*
X183063952Y-105810047D01*
X183063952Y-106000523D01*
X183025857Y-106076714D01*
X182987761Y-106114809D01*
X182911571Y-106152904D01*
X182721095Y-106152904D01*
X182644904Y-106114809D01*
X182606809Y-106076714D01*
X179940142Y-103612904D02*
X179940142Y-102812904D01*
X180244904Y-102812904D01*
X180321095Y-102851000D01*
X180359190Y-102889095D01*
X180397285Y-102965285D01*
X180397285Y-103079571D01*
X180359190Y-103155761D01*
X180321095Y-103193857D01*
X180244904Y-103231952D01*
X179940142Y-103231952D01*
X180892523Y-102812904D02*
X180968714Y-102812904D01*
X181044904Y-102851000D01*
X181083000Y-102889095D01*
X181121095Y-102965285D01*
X181159190Y-103117666D01*
X181159190Y-103308142D01*
X181121095Y-103460523D01*
X181083000Y-103536714D01*
X181044904Y-103574809D01*
X180968714Y-103612904D01*
X180892523Y-103612904D01*
X180816333Y-103574809D01*
X180778238Y-103536714D01*
X180740142Y-103460523D01*
X180702047Y-103308142D01*
X180702047Y-103117666D01*
X180740142Y-102965285D01*
X180778238Y-102889095D01*
X180816333Y-102851000D01*
X180892523Y-102812904D01*
X181502047Y-103536714D02*
X181540142Y-103574809D01*
X181502047Y-103612904D01*
X181463952Y-103574809D01*
X181502047Y-103536714D01*
X181502047Y-103612904D01*
X182302047Y-103612904D02*
X181844904Y-103612904D01*
X182073476Y-103612904D02*
X182073476Y-102812904D01*
X181997285Y-102927190D01*
X181921095Y-103003380D01*
X181844904Y-103041476D01*
X182568714Y-102812904D02*
X183063952Y-102812904D01*
X182797285Y-103117666D01*
X182911571Y-103117666D01*
X182987761Y-103155761D01*
X183025857Y-103193857D01*
X183063952Y-103270047D01*
X183063952Y-103460523D01*
X183025857Y-103536714D01*
X182987761Y-103574809D01*
X182911571Y-103612904D01*
X182683000Y-103612904D01*
X182606809Y-103574809D01*
X182568714Y-103536714D01*
X179940142Y-98405904D02*
X179940142Y-97605904D01*
X180244904Y-97605904D01*
X180321095Y-97644000D01*
X180359190Y-97682095D01*
X180397285Y-97758285D01*
X180397285Y-97872571D01*
X180359190Y-97948761D01*
X180321095Y-97986857D01*
X180244904Y-98024952D01*
X179940142Y-98024952D01*
X180892523Y-97605904D02*
X180968714Y-97605904D01*
X181044904Y-97644000D01*
X181083000Y-97682095D01*
X181121095Y-97758285D01*
X181159190Y-97910666D01*
X181159190Y-98101142D01*
X181121095Y-98253523D01*
X181083000Y-98329714D01*
X181044904Y-98367809D01*
X180968714Y-98405904D01*
X180892523Y-98405904D01*
X180816333Y-98367809D01*
X180778238Y-98329714D01*
X180740142Y-98253523D01*
X180702047Y-98101142D01*
X180702047Y-97910666D01*
X180740142Y-97758285D01*
X180778238Y-97682095D01*
X180816333Y-97644000D01*
X180892523Y-97605904D01*
X181502047Y-98329714D02*
X181540142Y-98367809D01*
X181502047Y-98405904D01*
X181463952Y-98367809D01*
X181502047Y-98329714D01*
X181502047Y-98405904D01*
X182302047Y-98405904D02*
X181844904Y-98405904D01*
X182073476Y-98405904D02*
X182073476Y-97605904D01*
X181997285Y-97720190D01*
X181921095Y-97796380D01*
X181844904Y-97834476D01*
X182987761Y-97872571D02*
X182987761Y-98405904D01*
X182797285Y-97567809D02*
X182606809Y-98139238D01*
X183102047Y-98139238D01*
X174167904Y-86302904D02*
X174663142Y-86302904D01*
X174396476Y-86607666D01*
X174510761Y-86607666D01*
X174586952Y-86645761D01*
X174625047Y-86683857D01*
X174663142Y-86760047D01*
X174663142Y-86950523D01*
X174625047Y-87026714D01*
X174586952Y-87064809D01*
X174510761Y-87102904D01*
X174282190Y-87102904D01*
X174206000Y-87064809D01*
X174167904Y-87026714D01*
X175006000Y-87026714D02*
X175044095Y-87064809D01*
X175006000Y-87102904D01*
X174967904Y-87064809D01*
X175006000Y-87026714D01*
X175006000Y-87102904D01*
X175310761Y-86302904D02*
X175806000Y-86302904D01*
X175539333Y-86607666D01*
X175653619Y-86607666D01*
X175729809Y-86645761D01*
X175767904Y-86683857D01*
X175806000Y-86760047D01*
X175806000Y-86950523D01*
X175767904Y-87026714D01*
X175729809Y-87064809D01*
X175653619Y-87102904D01*
X175425047Y-87102904D01*
X175348857Y-87064809D01*
X175310761Y-87026714D01*
X180517904Y-86302904D02*
X181013142Y-86302904D01*
X180746476Y-86607666D01*
X180860761Y-86607666D01*
X180936952Y-86645761D01*
X180975047Y-86683857D01*
X181013142Y-86760047D01*
X181013142Y-86950523D01*
X180975047Y-87026714D01*
X180936952Y-87064809D01*
X180860761Y-87102904D01*
X180632190Y-87102904D01*
X180556000Y-87064809D01*
X180517904Y-87026714D01*
X181356000Y-87026714D02*
X181394095Y-87064809D01*
X181356000Y-87102904D01*
X181317904Y-87064809D01*
X181356000Y-87026714D01*
X181356000Y-87102904D01*
X181660761Y-86302904D02*
X182156000Y-86302904D01*
X181889333Y-86607666D01*
X182003619Y-86607666D01*
X182079809Y-86645761D01*
X182117904Y-86683857D01*
X182156000Y-86760047D01*
X182156000Y-86950523D01*
X182117904Y-87026714D01*
X182079809Y-87064809D01*
X182003619Y-87102904D01*
X181775047Y-87102904D01*
X181698857Y-87064809D01*
X181660761Y-87026714D01*
X174449463Y-108349297D02*
X174520174Y-107948603D01*
X174166620Y-108066455D02*
X174661595Y-107571480D01*
X174850157Y-107760042D01*
X174873727Y-107830752D01*
X174873727Y-107877893D01*
X174850157Y-107948603D01*
X174779446Y-108019314D01*
X174708735Y-108042884D01*
X174661595Y-108042884D01*
X174590884Y-108019314D01*
X174402322Y-107830752D01*
X174661595Y-108561429D02*
X175156570Y-108066455D01*
X174897297Y-108797132D02*
X175392272Y-108302157D01*
X175180140Y-109079974D01*
X175675115Y-108585000D01*
X175840106Y-108844272D02*
X175887247Y-108844272D01*
X175957957Y-108867842D01*
X176075809Y-108985693D01*
X176099379Y-109056404D01*
X176099379Y-109103544D01*
X176075809Y-109174255D01*
X176028668Y-109221396D01*
X175934387Y-109268536D01*
X175368702Y-109268536D01*
X175675115Y-109574949D01*
X174142476Y-88881000D02*
X174066285Y-88842904D01*
X173952000Y-88842904D01*
X173837714Y-88881000D01*
X173761523Y-88957190D01*
X173723428Y-89033380D01*
X173685333Y-89185761D01*
X173685333Y-89300047D01*
X173723428Y-89452428D01*
X173761523Y-89528619D01*
X173837714Y-89604809D01*
X173952000Y-89642904D01*
X174028190Y-89642904D01*
X174142476Y-89604809D01*
X174180571Y-89566714D01*
X174180571Y-89300047D01*
X174028190Y-89300047D01*
X174523428Y-89642904D02*
X174523428Y-88842904D01*
X174980571Y-89642904D01*
X174980571Y-88842904D01*
X175361523Y-89642904D02*
X175361523Y-88842904D01*
X175552000Y-88842904D01*
X175666285Y-88881000D01*
X175742476Y-88957190D01*
X175780571Y-89033380D01*
X175818666Y-89185761D01*
X175818666Y-89300047D01*
X175780571Y-89452428D01*
X175742476Y-89528619D01*
X175666285Y-89604809D01*
X175552000Y-89642904D01*
X175361523Y-89642904D01*
X172701142Y-99802904D02*
X172701142Y-99002904D01*
X173005904Y-99002904D01*
X173082095Y-99041000D01*
X173120190Y-99079095D01*
X173158285Y-99155285D01*
X173158285Y-99269571D01*
X173120190Y-99345761D01*
X173082095Y-99383857D01*
X173005904Y-99421952D01*
X172701142Y-99421952D01*
X173920190Y-99802904D02*
X173463047Y-99802904D01*
X173691619Y-99802904D02*
X173691619Y-99002904D01*
X173615428Y-99117190D01*
X173539238Y-99193380D01*
X173463047Y-99231476D01*
X174263047Y-99726714D02*
X174301142Y-99764809D01*
X174263047Y-99802904D01*
X174224952Y-99764809D01*
X174263047Y-99726714D01*
X174263047Y-99802904D01*
X174796380Y-99002904D02*
X174872571Y-99002904D01*
X174948761Y-99041000D01*
X174986857Y-99079095D01*
X175024952Y-99155285D01*
X175063047Y-99307666D01*
X175063047Y-99498142D01*
X175024952Y-99650523D01*
X174986857Y-99726714D01*
X174948761Y-99764809D01*
X174872571Y-99802904D01*
X174796380Y-99802904D01*
X174720190Y-99764809D01*
X174682095Y-99726714D01*
X174644000Y-99650523D01*
X174605904Y-99498142D01*
X174605904Y-99307666D01*
X174644000Y-99155285D01*
X174682095Y-99079095D01*
X174720190Y-99041000D01*
X174796380Y-99002904D01*
X175444000Y-99802904D02*
X175596380Y-99802904D01*
X175672571Y-99764809D01*
X175710666Y-99726714D01*
X175786857Y-99612428D01*
X175824952Y-99460047D01*
X175824952Y-99155285D01*
X175786857Y-99079095D01*
X175748761Y-99041000D01*
X175672571Y-99002904D01*
X175520190Y-99002904D01*
X175444000Y-99041000D01*
X175405904Y-99079095D01*
X175367809Y-99155285D01*
X175367809Y-99345761D01*
X175405904Y-99421952D01*
X175444000Y-99460047D01*
X175520190Y-99498142D01*
X175672571Y-99498142D01*
X175748761Y-99460047D01*
X175786857Y-99421952D01*
X175824952Y-99345761D01*
X172701142Y-97389904D02*
X172701142Y-96589904D01*
X173005904Y-96589904D01*
X173082095Y-96628000D01*
X173120190Y-96666095D01*
X173158285Y-96742285D01*
X173158285Y-96856571D01*
X173120190Y-96932761D01*
X173082095Y-96970857D01*
X173005904Y-97008952D01*
X172701142Y-97008952D01*
X173653523Y-96589904D02*
X173729714Y-96589904D01*
X173805904Y-96628000D01*
X173844000Y-96666095D01*
X173882095Y-96742285D01*
X173920190Y-96894666D01*
X173920190Y-97085142D01*
X173882095Y-97237523D01*
X173844000Y-97313714D01*
X173805904Y-97351809D01*
X173729714Y-97389904D01*
X173653523Y-97389904D01*
X173577333Y-97351809D01*
X173539238Y-97313714D01*
X173501142Y-97237523D01*
X173463047Y-97085142D01*
X173463047Y-96894666D01*
X173501142Y-96742285D01*
X173539238Y-96666095D01*
X173577333Y-96628000D01*
X173653523Y-96589904D01*
X174263047Y-97313714D02*
X174301142Y-97351809D01*
X174263047Y-97389904D01*
X174224952Y-97351809D01*
X174263047Y-97313714D01*
X174263047Y-97389904D01*
X174796380Y-96589904D02*
X174872571Y-96589904D01*
X174948761Y-96628000D01*
X174986857Y-96666095D01*
X175024952Y-96742285D01*
X175063047Y-96894666D01*
X175063047Y-97085142D01*
X175024952Y-97237523D01*
X174986857Y-97313714D01*
X174948761Y-97351809D01*
X174872571Y-97389904D01*
X174796380Y-97389904D01*
X174720190Y-97351809D01*
X174682095Y-97313714D01*
X174644000Y-97237523D01*
X174605904Y-97085142D01*
X174605904Y-96894666D01*
X174644000Y-96742285D01*
X174682095Y-96666095D01*
X174720190Y-96628000D01*
X174796380Y-96589904D01*
X175329714Y-96589904D02*
X175863047Y-96589904D01*
X175520190Y-97389904D01*
X180975095Y-92182904D02*
X180708428Y-91801952D01*
X180517952Y-92182904D02*
X180517952Y-91382904D01*
X180822714Y-91382904D01*
X180898904Y-91421000D01*
X180937000Y-91459095D01*
X180975095Y-91535285D01*
X180975095Y-91649571D01*
X180937000Y-91725761D01*
X180898904Y-91763857D01*
X180822714Y-91801952D01*
X180517952Y-91801952D01*
X181317952Y-92182904D02*
X181317952Y-91382904D01*
X181698904Y-92182904D02*
X181698904Y-91382904D01*
X182156047Y-92182904D01*
X182156047Y-91382904D01*
X182956047Y-91421000D02*
X182879857Y-91382904D01*
X182765571Y-91382904D01*
X182651285Y-91421000D01*
X182575095Y-91497190D01*
X182537000Y-91573380D01*
X182498904Y-91725761D01*
X182498904Y-91840047D01*
X182537000Y-91992428D01*
X182575095Y-92068619D01*
X182651285Y-92144809D01*
X182765571Y-92182904D01*
X182841761Y-92182904D01*
X182956047Y-92144809D01*
X182994142Y-92106714D01*
X182994142Y-91840047D01*
X182841761Y-91840047D01*
X181000476Y-88881000D02*
X180924285Y-88842904D01*
X180810000Y-88842904D01*
X180695714Y-88881000D01*
X180619523Y-88957190D01*
X180581428Y-89033380D01*
X180543333Y-89185761D01*
X180543333Y-89300047D01*
X180581428Y-89452428D01*
X180619523Y-89528619D01*
X180695714Y-89604809D01*
X180810000Y-89642904D01*
X180886190Y-89642904D01*
X181000476Y-89604809D01*
X181038571Y-89566714D01*
X181038571Y-89300047D01*
X180886190Y-89300047D01*
X181381428Y-89642904D02*
X181381428Y-88842904D01*
X181838571Y-89642904D01*
X181838571Y-88842904D01*
X182219523Y-89642904D02*
X182219523Y-88842904D01*
X182410000Y-88842904D01*
X182524285Y-88881000D01*
X182600476Y-88957190D01*
X182638571Y-89033380D01*
X182676666Y-89185761D01*
X182676666Y-89300047D01*
X182638571Y-89452428D01*
X182600476Y-89528619D01*
X182524285Y-89604809D01*
X182410000Y-89642904D01*
X182219523Y-89642904D01*
X179940142Y-100945904D02*
X179940142Y-100145904D01*
X180244904Y-100145904D01*
X180321095Y-100184000D01*
X180359190Y-100222095D01*
X180397285Y-100298285D01*
X180397285Y-100412571D01*
X180359190Y-100488761D01*
X180321095Y-100526857D01*
X180244904Y-100564952D01*
X179940142Y-100564952D01*
X180892523Y-100145904D02*
X180968714Y-100145904D01*
X181044904Y-100184000D01*
X181083000Y-100222095D01*
X181121095Y-100298285D01*
X181159190Y-100450666D01*
X181159190Y-100641142D01*
X181121095Y-100793523D01*
X181083000Y-100869714D01*
X181044904Y-100907809D01*
X180968714Y-100945904D01*
X180892523Y-100945904D01*
X180816333Y-100907809D01*
X180778238Y-100869714D01*
X180740142Y-100793523D01*
X180702047Y-100641142D01*
X180702047Y-100450666D01*
X180740142Y-100298285D01*
X180778238Y-100222095D01*
X180816333Y-100184000D01*
X180892523Y-100145904D01*
X181502047Y-100869714D02*
X181540142Y-100907809D01*
X181502047Y-100945904D01*
X181463952Y-100907809D01*
X181502047Y-100869714D01*
X181502047Y-100945904D01*
X182302047Y-100945904D02*
X181844904Y-100945904D01*
X182073476Y-100945904D02*
X182073476Y-100145904D01*
X181997285Y-100260190D01*
X181921095Y-100336380D01*
X181844904Y-100374476D01*
X183025857Y-100145904D02*
X182644904Y-100145904D01*
X182606809Y-100526857D01*
X182644904Y-100488761D01*
X182721095Y-100450666D01*
X182911571Y-100450666D01*
X182987761Y-100488761D01*
X183025857Y-100526857D01*
X183063952Y-100603047D01*
X183063952Y-100793523D01*
X183025857Y-100869714D01*
X182987761Y-100907809D01*
X182911571Y-100945904D01*
X182721095Y-100945904D01*
X182644904Y-100907809D01*
X182606809Y-100869714D01*
X180409952Y-93922904D02*
X180867095Y-93922904D01*
X180638523Y-94722904D02*
X180638523Y-93922904D01*
X181133761Y-94722904D02*
X181133761Y-93922904D01*
X181514714Y-94722904D02*
X181514714Y-93922904D01*
X181819476Y-93922904D01*
X181895666Y-93961000D01*
X181933761Y-93999095D01*
X181971857Y-94075285D01*
X181971857Y-94189571D01*
X181933761Y-94265761D01*
X181895666Y-94303857D01*
X181819476Y-94341952D01*
X181514714Y-94341952D01*
X174857844Y-102918158D02*
X174830906Y-102837346D01*
X174750094Y-102756534D01*
X174642345Y-102702659D01*
X174534595Y-102702659D01*
X174453783Y-102729597D01*
X174319096Y-102810409D01*
X174238284Y-102891221D01*
X174157471Y-103025908D01*
X174130534Y-103106720D01*
X174130534Y-103214470D01*
X174184409Y-103322219D01*
X174238284Y-103376094D01*
X174346033Y-103429969D01*
X174399908Y-103429969D01*
X174588470Y-103241407D01*
X174480720Y-103133658D01*
X174588470Y-103726280D02*
X175154155Y-103160595D01*
X174911719Y-104049529D01*
X175477404Y-103483844D01*
X175181093Y-104318903D02*
X175746778Y-103753218D01*
X175881465Y-103887905D01*
X175935340Y-103995654D01*
X175935340Y-104103404D01*
X175908402Y-104184216D01*
X175827590Y-104318903D01*
X175746778Y-104399715D01*
X175612091Y-104480528D01*
X175531279Y-104507465D01*
X175423529Y-104507465D01*
X175315780Y-104453590D01*
X175181093Y-104318903D01*
D11*
X166319200Y-100838000D02*
G75*
G03*
X166319200Y-100838000I-381000J0D01*
G01*
D12*
X134018000Y-100270000D02*
X136238000Y-100270000D01*
X134018000Y-102930000D02*
X136238000Y-102930000D01*
X136238000Y-101550000D02*
X136238000Y-102920000D01*
X134018000Y-100280000D02*
X134018000Y-101650000D01*
X136238000Y-100380000D02*
X138068000Y-100380000D01*
X136238000Y-100270000D02*
X136238000Y-100380000D01*
X134018000Y-102820000D02*
X134018000Y-102930000D01*
X139606000Y-100270000D02*
X141826000Y-100270000D01*
X139606000Y-102930000D02*
X141826000Y-102930000D01*
X141826000Y-101550000D02*
X141826000Y-102920000D01*
X139606000Y-100280000D02*
X139606000Y-101650000D01*
X141826000Y-100380000D02*
X143656000Y-100380000D01*
X141826000Y-100270000D02*
X141826000Y-100380000D01*
X139606000Y-102820000D02*
X139606000Y-102930000D01*
X162112000Y-89314000D02*
X162112000Y-91534000D01*
X159452000Y-89314000D02*
X159452000Y-91534000D01*
X160832000Y-91534000D02*
X159462000Y-91534000D01*
X162102000Y-89314000D02*
X160732000Y-89314000D01*
X162002000Y-91534000D02*
X162002000Y-93364000D01*
X162112000Y-91534000D02*
X162002000Y-91534000D01*
X159562000Y-89314000D02*
X159452000Y-89314000D01*
D13*
X132813400Y-89575000D02*
G75*
G03*
X132813400Y-89575000I-200000J0D01*
G01*
D14*
X122353400Y-99305000D02*
X123603400Y-99305000D01*
X122353400Y-90345000D02*
X122353400Y-99305000D01*
X123603400Y-90345000D02*
X122353400Y-90345000D01*
X129203400Y-90345000D02*
X125953400Y-90345000D01*
X125953400Y-99305000D02*
X129203400Y-99305000D01*
X133203400Y-90345000D02*
X131703400Y-90345000D01*
X133203400Y-99305000D02*
X131703400Y-99305000D01*
X133203400Y-90345000D02*
X133203400Y-99305000D01*
X159371500Y-86315000D02*
X150411500Y-86315000D01*
X150411500Y-86315000D02*
X150411500Y-84815000D01*
X159371500Y-86315000D02*
X159371500Y-84815000D01*
X150411500Y-79065000D02*
X150411500Y-82315000D01*
X159371500Y-82315000D02*
X159371500Y-79065000D01*
X159371500Y-76715000D02*
X159371500Y-75465000D01*
X159371500Y-75465000D02*
X150411500Y-75465000D01*
X150411500Y-75465000D02*
X150411500Y-76715000D01*
D13*
X160341500Y-85725000D02*
G75*
G03*
X160341500Y-85725000I-200000J0D01*
G01*
D11*
X138214100Y-78828900D02*
G75*
G03*
X138214100Y-78828900I-127000J0D01*
G01*
X143700500Y-79971900D02*
X139763500Y-79971900D01*
X143700500Y-86906100D02*
X143700500Y-79971900D01*
X139763500Y-86906100D02*
X143700500Y-86906100D01*
X139763500Y-79971900D02*
X139763500Y-86906100D01*
D12*
X160020000Y-108966000D02*
G75*
G03*
X160020000Y-108966000I-254000J0D01*
G01*
D10*
G36*
X159321500Y-110857500D02*
G01*
X160210500Y-110857500D01*
X160210500Y-110667000D01*
X159321500Y-110667000D01*
X159321500Y-110857500D01*
G37*
G36*
X159766000Y-110744000D02*
G01*
X159385000Y-111252000D01*
X160147000Y-111252000D01*
X159766000Y-110744000D01*
G37*
D11*
X179832000Y-80962500D02*
G75*
G03*
X179832000Y-80962500I-381000J0D01*
G01*
D10*
G36*
X132715000Y-80645000D02*
G01*
X133223000Y-81153000D01*
X132715000Y-81661000D01*
X132715000Y-80645000D01*
G37*
X132715000Y-80645000D02*
X133223000Y-81153000D01*
X132715000Y-81661000D01*
X132715000Y-80645000D01*
D12*
X133223000Y-81661000D02*
X133223000Y-80645000D01*
D13*
X135169000Y-81153000D02*
G75*
G03*
X135169000Y-81153000I-100000J0D01*
G01*
D14*
X133819000Y-80383000D02*
X132119000Y-80383000D01*
X133819000Y-81923000D02*
X132119000Y-81923000D01*
D11*
X139512040Y-91897200D02*
X139801600Y-91897200D01*
X137347960Y-87934800D02*
X137058400Y-87934800D01*
X139801600Y-87934800D02*
X139512040Y-87934800D01*
X139801600Y-91897200D02*
X139801600Y-87934800D01*
X137058400Y-91897200D02*
X137347960Y-91897200D01*
X137058400Y-87934800D02*
X137058400Y-91897200D01*
D10*
G36*
X137668000Y-90678000D02*
G01*
X138430000Y-89408000D01*
X139192000Y-90678000D01*
X137668000Y-90678000D01*
G37*
X137668000Y-90678000D02*
X138430000Y-89408000D01*
X139192000Y-90678000D01*
X137668000Y-90678000D01*
D12*
X139192000Y-89408000D02*
X137668000Y-89408000D01*
D14*
X120619000Y-109053000D02*
X123119000Y-109053000D01*
X120619000Y-104053000D02*
X120619000Y-109053000D01*
X123119000Y-104053000D02*
X120619000Y-104053000D01*
X136519000Y-109553000D02*
X137619000Y-109553000D01*
D13*
X122419000Y-109853000D02*
G75*
G03*
X122419000Y-109853000I-100000J0D01*
G01*
D14*
X126819000Y-109553000D02*
X133319000Y-109553000D01*
X123119000Y-109553000D02*
X124219000Y-109553000D01*
X137619000Y-103553000D02*
X137619000Y-109553000D01*
X128819000Y-103553000D02*
X137619000Y-103553000D01*
X123119000Y-103553000D02*
X126219000Y-103553000D01*
X123119000Y-104053000D02*
X123119000Y-103553000D01*
X123119000Y-109053000D02*
X123119000Y-104053000D01*
X123119000Y-109553000D02*
X123119000Y-109053000D01*
D11*
X160147000Y-102021236D02*
X160147000Y-106258751D01*
X167005000Y-106258764D02*
X167005000Y-102021249D01*
X160841502Y-99974400D02*
X160460502Y-99974400D01*
X160460502Y-99974400D02*
X160460502Y-100228400D01*
X160460502Y-100228400D02*
X160841502Y-100228400D01*
X160841502Y-100228400D02*
X160841502Y-99974400D01*
X166691498Y-108305600D02*
X166310498Y-108305600D01*
X166310498Y-108305600D02*
X166310498Y-108051600D01*
X166310498Y-108051600D02*
X166691498Y-108051600D01*
X166691498Y-108051600D02*
X166691498Y-108305600D01*
D15*
X164230000Y-109982000D02*
X163430000Y-109982000D01*
X160398000Y-98210000D02*
X161198000Y-98210000D01*
X165462000Y-98210000D02*
X166262000Y-98210000D01*
X166516000Y-109982000D02*
X165716000Y-109982000D01*
X162160000Y-98210000D02*
X162960000Y-98210000D01*
X163772000Y-98210000D02*
X164572000Y-98210000D01*
X168294000Y-102108000D02*
X167494000Y-102108000D01*
D14*
X156162800Y-106234000D02*
X158797200Y-106234000D01*
X159080000Y-106516800D02*
X159080000Y-107410400D01*
X158856400Y-107634000D02*
X156196200Y-107634000D01*
X155880000Y-107317800D02*
X155880000Y-106516800D01*
X158580000Y-107334000D02*
X156480000Y-107334000D01*
X156180000Y-107034000D02*
X156180000Y-106834000D01*
X156480000Y-106534000D02*
X158480000Y-106534000D01*
X158780000Y-106734000D02*
X158780000Y-107034000D01*
X158579999Y-107333999D02*
G75*
G03*
X158780000Y-107034000I-49899J249933D01*
G01*
X158780001Y-106734001D02*
G75*
G03*
X158480000Y-106534000I-250001J-50000D01*
G01*
X156480001Y-106534001D02*
G75*
G03*
X156180000Y-106834000I-1J-300000D01*
G01*
X156180000Y-107034000D02*
G75*
G03*
X156480000Y-107334000I300100J100D01*
G01*
X155880000Y-107317800D02*
G75*
G03*
X156196200Y-107634000I316200J0D01*
G01*
X158856400Y-107634000D02*
G75*
G03*
X159080000Y-107410400I0J223600D01*
G01*
X159080000Y-106516800D02*
G75*
G03*
X158797200Y-106234000I-282800J0D01*
G01*
X156162800Y-106234000D02*
G75*
G03*
X155880000Y-106516800I0J-282800D01*
G01*
D16*
X168207000Y-95629600D02*
X172407000Y-95629600D01*
X172407000Y-98680400D02*
X168207000Y-98680400D01*
D14*
X142002000Y-109931000D02*
X142002000Y-106731000D01*
X142002000Y-106731000D02*
X144002000Y-106731000D01*
X144002000Y-106731000D02*
X144002000Y-109931000D01*
X144002000Y-109931000D02*
X142002000Y-109931000D01*
X142225606Y-109831000D02*
G75*
G03*
X142225606Y-109831000I-223606J0D01*
G01*
D15*
X135001000Y-80029000D02*
X135001000Y-79229000D01*
X157226000Y-108820000D02*
X157226000Y-109620000D01*
X157226000Y-104248000D02*
X157226000Y-105048000D01*
X154940000Y-100857000D02*
X154940000Y-100057000D01*
X151511000Y-100711000D02*
X151511000Y-99695000D01*
X135890000Y-90805000D02*
X134874000Y-90805000D01*
X134874000Y-86614000D02*
X135890000Y-86614000D01*
X136525000Y-82169000D02*
X135509000Y-82169000D01*
X161944000Y-110871000D02*
X161144000Y-110871000D01*
X144888000Y-100076000D02*
X145688000Y-100076000D01*
X146285000Y-100076000D02*
X147085000Y-100076000D01*
D14*
X165394000Y-73629000D02*
X165394000Y-76129000D01*
X170394000Y-73629000D02*
X165394000Y-73629000D01*
X170394000Y-76129000D02*
X170394000Y-73629000D01*
X164894000Y-89529000D02*
X164894000Y-90629000D01*
D13*
X164694000Y-75329000D02*
G75*
G03*
X164694000Y-75329000I-100000J0D01*
G01*
D14*
X164894000Y-79829000D02*
X164894000Y-86329000D01*
X164894000Y-76129000D02*
X164894000Y-77229000D01*
X170894000Y-90629000D02*
X164894000Y-90629000D01*
X170894000Y-81829000D02*
X170894000Y-90629000D01*
X170894000Y-76129000D02*
X170894000Y-79229000D01*
X170394000Y-76129000D02*
X170894000Y-76129000D01*
X165394000Y-76129000D02*
X170394000Y-76129000D01*
X164894000Y-76129000D02*
X165394000Y-76129000D01*
X144760000Y-101847000D02*
X154960000Y-101847000D01*
X144760000Y-101847000D02*
X144760000Y-112147000D01*
X154960000Y-112147000D02*
X154960000Y-101847000D01*
D13*
X155460000Y-112197000D02*
G75*
G03*
X155460000Y-112197000I-100000J0D01*
G01*
D17*
X130533000Y-82894000D02*
G75*
G03*
X130533000Y-82894000I-100000J0D01*
G01*
D14*
X129723000Y-83144000D02*
X129723000Y-82344000D01*
X129723000Y-82344000D02*
X127448000Y-82344000D01*
X129723000Y-87544000D02*
X129723000Y-88344000D01*
X129723000Y-88344000D02*
X127448000Y-88344000D01*
X125473000Y-83544000D02*
X125473000Y-87144000D01*
D12*
X132971000Y-84490779D02*
X132971000Y-84165221D01*
X131951000Y-84490779D02*
X131951000Y-84165221D01*
X132971000Y-87467221D02*
X132971000Y-87792779D01*
X131951000Y-87467221D02*
X131951000Y-87792779D01*
X141353000Y-91348779D02*
X141353000Y-91023221D01*
X140333000Y-91348779D02*
X140333000Y-91023221D01*
X169926000Y-106426000D02*
X170561000Y-106426000D01*
X169926000Y-107061000D02*
X169926000Y-106426000D01*
X146210000Y-89993000D02*
X146210000Y-90103000D01*
X148430000Y-87443000D02*
X148430000Y-87553000D01*
X148430000Y-87553000D02*
X150260000Y-87553000D01*
X146210000Y-87453000D02*
X146210000Y-88823000D01*
X148430000Y-88723000D02*
X148430000Y-90093000D01*
X146210000Y-90103000D02*
X148430000Y-90103000D01*
X146210000Y-87443000D02*
X148430000Y-87443000D01*
D18*
X134294666Y-98722380D02*
X134294666Y-99436666D01*
X134247047Y-99579523D01*
X134151809Y-99674761D01*
X134008952Y-99722380D01*
X133913714Y-99722380D01*
X134770857Y-99722380D02*
X134770857Y-98722380D01*
X135151809Y-98722380D01*
X135247047Y-98770000D01*
X135294666Y-98817619D01*
X135342285Y-98912857D01*
X135342285Y-99055714D01*
X135294666Y-99150952D01*
X135247047Y-99198571D01*
X135151809Y-99246190D01*
X134770857Y-99246190D01*
X136294666Y-99722380D02*
X135723238Y-99722380D01*
X136008952Y-99722380D02*
X136008952Y-98722380D01*
X135913714Y-98865238D01*
X135818476Y-98960476D01*
X135723238Y-99008095D01*
X139882666Y-98722380D02*
X139882666Y-99436666D01*
X139835047Y-99579523D01*
X139739809Y-99674761D01*
X139596952Y-99722380D01*
X139501714Y-99722380D01*
X140358857Y-99722380D02*
X140358857Y-98722380D01*
X140739809Y-98722380D01*
X140835047Y-98770000D01*
X140882666Y-98817619D01*
X140930285Y-98912857D01*
X140930285Y-99055714D01*
X140882666Y-99150952D01*
X140835047Y-99198571D01*
X140739809Y-99246190D01*
X140358857Y-99246190D01*
X141263619Y-98722380D02*
X141882666Y-98722380D01*
X141549333Y-99103333D01*
X141692190Y-99103333D01*
X141787428Y-99150952D01*
X141835047Y-99198571D01*
X141882666Y-99293809D01*
X141882666Y-99531904D01*
X141835047Y-99627142D01*
X141787428Y-99674761D01*
X141692190Y-99722380D01*
X141406476Y-99722380D01*
X141311238Y-99674761D01*
X141263619Y-99627142D01*
X162564380Y-91257333D02*
X163278666Y-91257333D01*
X163421523Y-91304952D01*
X163516761Y-91400190D01*
X163564380Y-91543047D01*
X163564380Y-91638285D01*
X163564380Y-90781142D02*
X162564380Y-90781142D01*
X162564380Y-90400190D01*
X162612000Y-90304952D01*
X162659619Y-90257333D01*
X162754857Y-90209714D01*
X162897714Y-90209714D01*
X162992952Y-90257333D01*
X163040571Y-90304952D01*
X163088190Y-90400190D01*
X163088190Y-90781142D01*
X162564380Y-89876380D02*
X162564380Y-89209714D01*
X163564380Y-89638285D01*
X128440622Y-89316380D02*
X128440622Y-89767188D01*
X128410568Y-89857350D01*
X128350460Y-89917458D01*
X128260299Y-89947512D01*
X128200191Y-89947512D01*
X129071754Y-89947512D02*
X128711107Y-89947512D01*
X128891431Y-89947512D02*
X128891431Y-89316380D01*
X128831323Y-89406541D01*
X128771215Y-89466649D01*
X128711107Y-89496703D01*
X149395622Y-79283380D02*
X149395622Y-79734188D01*
X149365568Y-79824350D01*
X149305460Y-79884458D01*
X149215299Y-79914512D01*
X149155191Y-79914512D01*
X149666107Y-79343487D02*
X149696161Y-79313434D01*
X149756269Y-79283380D01*
X149906539Y-79283380D01*
X149966646Y-79313434D01*
X149996700Y-79343487D01*
X150026754Y-79403595D01*
X150026754Y-79463703D01*
X149996700Y-79553865D01*
X149636053Y-79914512D01*
X150026754Y-79914512D01*
X144284777Y-79965603D02*
X144284777Y-80613222D01*
X144322872Y-80689413D01*
X144360967Y-80727508D01*
X144437158Y-80765603D01*
X144589539Y-80765603D01*
X144665729Y-80727508D01*
X144703824Y-80689413D01*
X144741920Y-80613222D01*
X144741920Y-79965603D01*
X145046681Y-79965603D02*
X145541920Y-79965603D01*
X145275253Y-80270365D01*
X145389539Y-80270365D01*
X145465729Y-80308460D01*
X145503824Y-80346556D01*
X145541920Y-80422746D01*
X145541920Y-80613222D01*
X145503824Y-80689413D01*
X145465729Y-80727508D01*
X145389539Y-80765603D01*
X145160967Y-80765603D01*
X145084777Y-80727508D01*
X145046681Y-80689413D01*
X141184380Y-83439000D02*
X141422476Y-83439000D01*
X141327238Y-83677095D02*
X141422476Y-83439000D01*
X141327238Y-83200904D01*
X141612952Y-83581857D02*
X141422476Y-83439000D01*
X141612952Y-83296142D01*
D19*
X157712199Y-112241390D02*
X157712199Y-111469230D01*
X157896047Y-111469230D01*
X158006355Y-111506000D01*
X158079894Y-111579539D01*
X158116664Y-111653078D01*
X158153433Y-111800156D01*
X158153433Y-111910464D01*
X158116664Y-112057542D01*
X158079894Y-112131081D01*
X158006355Y-112204620D01*
X157896047Y-112241390D01*
X157712199Y-112241390D01*
X158888824Y-112241390D02*
X158447590Y-112241390D01*
X158668207Y-112241390D02*
X158668207Y-111469230D01*
X158594668Y-111579539D01*
X158521129Y-111653078D01*
X158447590Y-111689847D01*
D18*
X177847666Y-97623380D02*
X177847666Y-98337666D01*
X177800047Y-98480523D01*
X177704809Y-98575761D01*
X177561952Y-98623380D01*
X177466714Y-98623380D01*
X178752428Y-97623380D02*
X178561952Y-97623380D01*
X178466714Y-97671000D01*
X178419095Y-97718619D01*
X178323857Y-97861476D01*
X178276238Y-98051952D01*
X178276238Y-98432904D01*
X178323857Y-98528142D01*
X178371476Y-98575761D01*
X178466714Y-98623380D01*
X178657190Y-98623380D01*
X178752428Y-98575761D01*
X178800047Y-98528142D01*
X178847666Y-98432904D01*
X178847666Y-98194809D01*
X178800047Y-98099571D01*
X178752428Y-98051952D01*
X178657190Y-98004333D01*
X178466714Y-98004333D01*
X178371476Y-98051952D01*
X178323857Y-98099571D01*
X178276238Y-98194809D01*
X178903380Y-86741000D02*
X179141476Y-86741000D01*
X179046238Y-86979095D02*
X179141476Y-86741000D01*
X179046238Y-86502904D01*
X179331952Y-86883857D02*
X179141476Y-86741000D01*
X179331952Y-86598142D01*
X131480619Y-80045523D02*
X131480619Y-79405523D01*
X131633000Y-79405523D01*
X131724428Y-79436000D01*
X131785380Y-79496952D01*
X131815857Y-79557904D01*
X131846333Y-79679809D01*
X131846333Y-79771238D01*
X131815857Y-79893142D01*
X131785380Y-79954095D01*
X131724428Y-80015047D01*
X131633000Y-80045523D01*
X131480619Y-80045523D01*
X132394904Y-79618857D02*
X132394904Y-80045523D01*
X132242523Y-79375047D02*
X132090142Y-79832190D01*
X132486333Y-79832190D01*
X140252523Y-88753904D02*
X140252523Y-87953904D01*
X140443000Y-87953904D01*
X140557285Y-87992000D01*
X140633476Y-88068190D01*
X140671571Y-88144380D01*
X140709666Y-88296761D01*
X140709666Y-88411047D01*
X140671571Y-88563428D01*
X140633476Y-88639619D01*
X140557285Y-88715809D01*
X140443000Y-88753904D01*
X140252523Y-88753904D01*
X140976333Y-87953904D02*
X141471571Y-87953904D01*
X141204904Y-88258666D01*
X141319190Y-88258666D01*
X141395380Y-88296761D01*
X141433476Y-88334857D01*
X141471571Y-88411047D01*
X141471571Y-88601523D01*
X141433476Y-88677714D01*
X141395380Y-88715809D01*
X141319190Y-88753904D01*
X141090619Y-88753904D01*
X141014428Y-88715809D01*
X140976333Y-88677714D01*
X136993380Y-86995000D02*
X137231476Y-86995000D01*
X137136238Y-87233095D02*
X137231476Y-86995000D01*
X137136238Y-86756904D01*
X137421952Y-87137857D02*
X137231476Y-86995000D01*
X137421952Y-86852142D01*
X136993380Y-86995000D02*
X137231476Y-86995000D01*
X137136238Y-87233095D02*
X137231476Y-86995000D01*
X137136238Y-86756904D01*
X137421952Y-87137857D02*
X137231476Y-86995000D01*
X137421952Y-86852142D01*
X124828333Y-102431904D02*
X124828333Y-103003333D01*
X124790238Y-103117619D01*
X124714047Y-103193809D01*
X124599761Y-103231904D01*
X124523571Y-103231904D01*
X125133095Y-102431904D02*
X125628333Y-102431904D01*
X125361666Y-102736666D01*
X125475952Y-102736666D01*
X125552142Y-102774761D01*
X125590238Y-102812857D01*
X125628333Y-102889047D01*
X125628333Y-103079523D01*
X125590238Y-103155714D01*
X125552142Y-103193809D01*
X125475952Y-103231904D01*
X125247380Y-103231904D01*
X125171190Y-103193809D01*
X125133095Y-103155714D01*
X158648476Y-102177904D02*
X158648476Y-102825523D01*
X158686571Y-102901714D01*
X158724666Y-102939809D01*
X158800857Y-102977904D01*
X158953238Y-102977904D01*
X159029428Y-102939809D01*
X159067523Y-102901714D01*
X159105619Y-102825523D01*
X159105619Y-102177904D01*
X159448476Y-102254095D02*
X159486571Y-102216000D01*
X159562761Y-102177904D01*
X159753238Y-102177904D01*
X159829428Y-102216000D01*
X159867523Y-102254095D01*
X159905619Y-102330285D01*
X159905619Y-102406476D01*
X159867523Y-102520761D01*
X159410380Y-102977904D01*
X159905619Y-102977904D01*
X166584380Y-100330000D02*
X166822476Y-100330000D01*
X166727238Y-100568095D02*
X166822476Y-100330000D01*
X166727238Y-100091904D01*
X167012952Y-100472857D02*
X166822476Y-100330000D01*
X167012952Y-100187142D01*
X166584380Y-100330000D02*
X166822476Y-100330000D01*
X166727238Y-100568095D02*
X166822476Y-100330000D01*
X166727238Y-100091904D01*
X167012952Y-100472857D02*
X166822476Y-100330000D01*
X167012952Y-100187142D01*
D19*
X163487433Y-112485230D02*
X163230047Y-112117535D01*
X163046199Y-112485230D02*
X163046199Y-111713070D01*
X163340355Y-111713070D01*
X163413894Y-111749840D01*
X163450664Y-111786609D01*
X163487433Y-111860148D01*
X163487433Y-111970457D01*
X163450664Y-112043996D01*
X163413894Y-112080765D01*
X163340355Y-112117535D01*
X163046199Y-112117535D01*
X163744820Y-111713070D02*
X164222824Y-111713070D01*
X163965437Y-112007226D01*
X164075746Y-112007226D01*
X164149285Y-112043996D01*
X164186054Y-112080765D01*
X164222824Y-112154304D01*
X164222824Y-112338152D01*
X164186054Y-112411691D01*
X164149285Y-112448460D01*
X164075746Y-112485230D01*
X163855129Y-112485230D01*
X163781590Y-112448460D01*
X163744820Y-112411691D01*
X160745230Y-95799820D02*
X160377535Y-96057207D01*
X160745230Y-96241054D02*
X159973070Y-96241054D01*
X159973070Y-95946898D01*
X160009840Y-95873359D01*
X160046609Y-95836590D01*
X160120148Y-95799820D01*
X160230457Y-95799820D01*
X160303996Y-95836590D01*
X160340765Y-95873359D01*
X160377535Y-95946898D01*
X160377535Y-96241054D01*
X160230457Y-95137969D02*
X160745230Y-95137969D01*
X159936300Y-95321816D02*
X160487843Y-95505664D01*
X160487843Y-95027660D01*
X166513691Y-95926820D02*
X166550460Y-95963590D01*
X166587230Y-96073898D01*
X166587230Y-96147437D01*
X166550460Y-96257746D01*
X166476921Y-96331285D01*
X166403382Y-96368054D01*
X166256304Y-96404824D01*
X166145996Y-96404824D01*
X165998918Y-96368054D01*
X165925379Y-96331285D01*
X165851840Y-96257746D01*
X165815070Y-96147437D01*
X165815070Y-96073898D01*
X165851840Y-95963590D01*
X165888609Y-95926820D01*
X166587230Y-95191430D02*
X166587230Y-95632664D01*
X166587230Y-95412047D02*
X165815070Y-95412047D01*
X165925379Y-95485586D01*
X165998918Y-95559125D01*
X166035687Y-95632664D01*
X166587230Y-94456039D02*
X166587230Y-94897273D01*
X166587230Y-94676656D02*
X165815070Y-94676656D01*
X165925379Y-94750195D01*
X165998918Y-94823734D01*
X166035687Y-94897273D01*
X165292043Y-112411691D02*
X165255273Y-112448460D01*
X165144965Y-112485230D01*
X165071426Y-112485230D01*
X164961117Y-112448460D01*
X164887578Y-112374921D01*
X164850809Y-112301382D01*
X164814039Y-112154304D01*
X164814039Y-112043996D01*
X164850809Y-111896918D01*
X164887578Y-111823379D01*
X164961117Y-111749840D01*
X165071426Y-111713070D01*
X165144965Y-111713070D01*
X165255273Y-111749840D01*
X165292043Y-111786609D01*
X166027433Y-112485230D02*
X165586199Y-112485230D01*
X165806816Y-112485230D02*
X165806816Y-111713070D01*
X165733277Y-111823379D01*
X165659738Y-111896918D01*
X165586199Y-111933687D01*
X166505437Y-111713070D02*
X166578976Y-111713070D01*
X166652515Y-111749840D01*
X166689285Y-111786609D01*
X166726054Y-111860148D01*
X166762824Y-112007226D01*
X166762824Y-112191074D01*
X166726054Y-112338152D01*
X166689285Y-112411691D01*
X166652515Y-112448460D01*
X166578976Y-112485230D01*
X166505437Y-112485230D01*
X166431898Y-112448460D01*
X166395129Y-112411691D01*
X166358359Y-112338152D01*
X166321590Y-112191074D01*
X166321590Y-112007226D01*
X166358359Y-111860148D01*
X166395129Y-111786609D01*
X166431898Y-111749840D01*
X166505437Y-111713070D01*
X162703691Y-95672820D02*
X162740460Y-95709590D01*
X162777230Y-95819898D01*
X162777230Y-95893437D01*
X162740460Y-96003746D01*
X162666921Y-96077285D01*
X162593382Y-96114054D01*
X162446304Y-96150824D01*
X162335996Y-96150824D01*
X162188918Y-96114054D01*
X162115379Y-96077285D01*
X162041840Y-96003746D01*
X162005070Y-95893437D01*
X162005070Y-95819898D01*
X162041840Y-95709590D01*
X162078609Y-95672820D01*
X162777230Y-95305125D02*
X162777230Y-95158047D01*
X162740460Y-95084508D01*
X162703691Y-95047738D01*
X162593382Y-94974199D01*
X162446304Y-94937430D01*
X162152148Y-94937430D01*
X162078609Y-94974199D01*
X162041840Y-95010969D01*
X162005070Y-95084508D01*
X162005070Y-95231586D01*
X162041840Y-95305125D01*
X162078609Y-95341894D01*
X162152148Y-95378664D01*
X162335996Y-95378664D01*
X162409535Y-95341894D01*
X162446304Y-95305125D01*
X162483074Y-95231586D01*
X162483074Y-95084508D01*
X162446304Y-95010969D01*
X162409535Y-94974199D01*
X162335996Y-94937430D01*
X164481691Y-95672820D02*
X164518460Y-95709590D01*
X164555230Y-95819898D01*
X164555230Y-95893437D01*
X164518460Y-96003746D01*
X164444921Y-96077285D01*
X164371382Y-96114054D01*
X164224304Y-96150824D01*
X164113996Y-96150824D01*
X163966918Y-96114054D01*
X163893379Y-96077285D01*
X163819840Y-96003746D01*
X163783070Y-95893437D01*
X163783070Y-95819898D01*
X163819840Y-95709590D01*
X163856609Y-95672820D01*
X164113996Y-95231586D02*
X164077226Y-95305125D01*
X164040457Y-95341894D01*
X163966918Y-95378664D01*
X163930148Y-95378664D01*
X163856609Y-95341894D01*
X163819840Y-95305125D01*
X163783070Y-95231586D01*
X163783070Y-95084508D01*
X163819840Y-95010969D01*
X163856609Y-94974199D01*
X163930148Y-94937430D01*
X163966918Y-94937430D01*
X164040457Y-94974199D01*
X164077226Y-95010969D01*
X164113996Y-95084508D01*
X164113996Y-95231586D01*
X164150765Y-95305125D01*
X164187535Y-95341894D01*
X164261074Y-95378664D01*
X164408152Y-95378664D01*
X164481691Y-95341894D01*
X164518460Y-95305125D01*
X164555230Y-95231586D01*
X164555230Y-95084508D01*
X164518460Y-95010969D01*
X164481691Y-94974199D01*
X164408152Y-94937430D01*
X164261074Y-94937430D01*
X164187535Y-94974199D01*
X164150765Y-95010969D01*
X164113996Y-95084508D01*
X169434691Y-102196566D02*
X169471460Y-102233335D01*
X169508230Y-102343644D01*
X169508230Y-102417183D01*
X169471460Y-102527491D01*
X169397921Y-102601030D01*
X169324382Y-102637800D01*
X169177304Y-102674569D01*
X169066996Y-102674569D01*
X168919918Y-102637800D01*
X168846379Y-102601030D01*
X168772840Y-102527491D01*
X168736070Y-102417183D01*
X168736070Y-102343644D01*
X168772840Y-102233335D01*
X168809609Y-102196566D01*
X168736070Y-101939179D02*
X168736070Y-101424406D01*
X169508230Y-101755331D01*
D18*
X159071738Y-105371952D02*
X159071738Y-105752904D01*
X158805071Y-104952904D02*
X159071738Y-105371952D01*
X159338404Y-104952904D01*
X160024119Y-105752904D02*
X159566976Y-105752904D01*
X159795547Y-105752904D02*
X159795547Y-104952904D01*
X159719357Y-105067190D01*
X159643166Y-105143380D01*
X159566976Y-105181476D01*
X169145095Y-95230904D02*
X168878428Y-94849952D01*
X168687952Y-95230904D02*
X168687952Y-94430904D01*
X168992714Y-94430904D01*
X169068904Y-94469000D01*
X169107000Y-94507095D01*
X169145095Y-94583285D01*
X169145095Y-94697571D01*
X169107000Y-94773761D01*
X169068904Y-94811857D01*
X168992714Y-94849952D01*
X168687952Y-94849952D01*
X169487952Y-94811857D02*
X169754619Y-94811857D01*
X169868904Y-95230904D02*
X169487952Y-95230904D01*
X169487952Y-94430904D01*
X169868904Y-94430904D01*
X170173666Y-95192809D02*
X170287952Y-95230904D01*
X170478428Y-95230904D01*
X170554619Y-95192809D01*
X170592714Y-95154714D01*
X170630809Y-95078523D01*
X170630809Y-95002333D01*
X170592714Y-94926142D01*
X170554619Y-94888047D01*
X170478428Y-94849952D01*
X170326047Y-94811857D01*
X170249857Y-94773761D01*
X170211761Y-94735666D01*
X170173666Y-94659476D01*
X170173666Y-94583285D01*
X170211761Y-94507095D01*
X170249857Y-94469000D01*
X170326047Y-94430904D01*
X170516523Y-94430904D01*
X170630809Y-94469000D01*
X170973666Y-94811857D02*
X171240333Y-94811857D01*
X171354619Y-95230904D02*
X170973666Y-95230904D01*
X170973666Y-94430904D01*
X171354619Y-94430904D01*
X171583190Y-94430904D02*
X172040333Y-94430904D01*
X171811761Y-95230904D02*
X171811761Y-94430904D01*
X140368976Y-109219904D02*
X140368976Y-108419904D01*
X141207071Y-109143714D02*
X141168976Y-109181809D01*
X141054690Y-109219904D01*
X140978500Y-109219904D01*
X140864214Y-109181809D01*
X140788023Y-109105619D01*
X140749928Y-109029428D01*
X140711833Y-108877047D01*
X140711833Y-108762761D01*
X140749928Y-108610380D01*
X140788023Y-108534190D01*
X140864214Y-108458000D01*
X140978500Y-108419904D01*
X141054690Y-108419904D01*
X141168976Y-108458000D01*
X141207071Y-108496095D01*
X141968976Y-109219904D02*
X141511833Y-109219904D01*
X141740404Y-109219904D02*
X141740404Y-108419904D01*
X141664214Y-108534190D01*
X141588023Y-108610380D01*
X141511833Y-108648476D01*
D19*
X137071433Y-79899691D02*
X137034664Y-79936460D01*
X136924355Y-79973230D01*
X136850816Y-79973230D01*
X136740508Y-79936460D01*
X136666969Y-79862921D01*
X136630199Y-79789382D01*
X136593430Y-79642304D01*
X136593430Y-79531996D01*
X136630199Y-79384918D01*
X136666969Y-79311379D01*
X136740508Y-79237840D01*
X136850816Y-79201070D01*
X136924355Y-79201070D01*
X137034664Y-79237840D01*
X137071433Y-79274609D01*
X137770054Y-79201070D02*
X137402359Y-79201070D01*
X137365590Y-79568765D01*
X137402359Y-79531996D01*
X137475898Y-79495226D01*
X137659746Y-79495226D01*
X137733285Y-79531996D01*
X137770054Y-79568765D01*
X137806824Y-79642304D01*
X137806824Y-79826152D01*
X137770054Y-79899691D01*
X137733285Y-79936460D01*
X137659746Y-79973230D01*
X137475898Y-79973230D01*
X137402359Y-79936460D01*
X137365590Y-79899691D01*
X157184179Y-110770851D02*
X157147409Y-110807620D01*
X157037101Y-110844390D01*
X156963562Y-110844390D01*
X156853253Y-110807620D01*
X156779714Y-110734081D01*
X156742945Y-110660542D01*
X156706175Y-110513464D01*
X156706175Y-110403156D01*
X156742945Y-110256078D01*
X156779714Y-110182539D01*
X156853253Y-110109000D01*
X156963562Y-110072230D01*
X157037101Y-110072230D01*
X157147409Y-110109000D01*
X157184179Y-110145769D01*
X157919569Y-110844390D02*
X157478335Y-110844390D01*
X157698952Y-110844390D02*
X157698952Y-110072230D01*
X157625413Y-110182539D01*
X157551874Y-110256078D01*
X157478335Y-110292847D01*
X156295179Y-103785851D02*
X156258409Y-103822620D01*
X156148101Y-103859390D01*
X156074562Y-103859390D01*
X155964253Y-103822620D01*
X155890714Y-103749081D01*
X155853945Y-103675542D01*
X155817175Y-103528464D01*
X155817175Y-103418156D01*
X155853945Y-103271078D01*
X155890714Y-103197539D01*
X155964253Y-103124000D01*
X156074562Y-103087230D01*
X156148101Y-103087230D01*
X156258409Y-103124000D01*
X156295179Y-103160769D01*
X156589335Y-103160769D02*
X156626105Y-103124000D01*
X156699644Y-103087230D01*
X156883491Y-103087230D01*
X156957030Y-103124000D01*
X156993800Y-103160769D01*
X157030569Y-103234308D01*
X157030569Y-103307847D01*
X156993800Y-103418156D01*
X156552566Y-103859390D01*
X157030569Y-103859390D01*
X156375433Y-99584691D02*
X156338664Y-99621460D01*
X156228355Y-99658230D01*
X156154816Y-99658230D01*
X156044508Y-99621460D01*
X155970969Y-99547921D01*
X155934199Y-99474382D01*
X155897430Y-99327304D01*
X155897430Y-99216996D01*
X155934199Y-99069918D01*
X155970969Y-98996379D01*
X156044508Y-98922840D01*
X156154816Y-98886070D01*
X156228355Y-98886070D01*
X156338664Y-98922840D01*
X156375433Y-98959609D01*
X157037285Y-98886070D02*
X156890207Y-98886070D01*
X156816668Y-98922840D01*
X156779898Y-98959609D01*
X156706359Y-99069918D01*
X156669590Y-99216996D01*
X156669590Y-99511152D01*
X156706359Y-99584691D01*
X156743129Y-99621460D01*
X156816668Y-99658230D01*
X156963746Y-99658230D01*
X157037285Y-99621460D01*
X157074054Y-99584691D01*
X157110824Y-99511152D01*
X157110824Y-99327304D01*
X157074054Y-99253765D01*
X157037285Y-99216996D01*
X156963746Y-99180226D01*
X156816668Y-99180226D01*
X156743129Y-99216996D01*
X156706359Y-99253765D01*
X156669590Y-99327304D01*
X149517433Y-99076691D02*
X149480664Y-99113460D01*
X149370355Y-99150230D01*
X149296816Y-99150230D01*
X149186508Y-99113460D01*
X149112969Y-99039921D01*
X149076199Y-98966382D01*
X149039430Y-98819304D01*
X149039430Y-98708996D01*
X149076199Y-98561918D01*
X149112969Y-98488379D01*
X149186508Y-98414840D01*
X149296816Y-98378070D01*
X149370355Y-98378070D01*
X149480664Y-98414840D01*
X149517433Y-98451609D01*
X149774820Y-98378070D02*
X150252824Y-98378070D01*
X149995437Y-98672226D01*
X150105746Y-98672226D01*
X150179285Y-98708996D01*
X150216054Y-98745765D01*
X150252824Y-98819304D01*
X150252824Y-99003152D01*
X150216054Y-99076691D01*
X150179285Y-99113460D01*
X150105746Y-99150230D01*
X149885129Y-99150230D01*
X149811590Y-99113460D01*
X149774820Y-99076691D01*
X134382691Y-91020566D02*
X134419460Y-91057335D01*
X134456230Y-91167644D01*
X134456230Y-91241183D01*
X134419460Y-91351491D01*
X134345921Y-91425030D01*
X134272382Y-91461800D01*
X134125304Y-91498569D01*
X134014996Y-91498569D01*
X133867918Y-91461800D01*
X133794379Y-91425030D01*
X133720840Y-91351491D01*
X133684070Y-91241183D01*
X133684070Y-91167644D01*
X133720840Y-91057335D01*
X133757609Y-91020566D01*
X133941457Y-90358714D02*
X134456230Y-90358714D01*
X133647300Y-90542562D02*
X134198843Y-90726409D01*
X134198843Y-90248406D01*
X134255691Y-87163820D02*
X134292460Y-87200590D01*
X134329230Y-87310898D01*
X134329230Y-87384437D01*
X134292460Y-87494746D01*
X134218921Y-87568285D01*
X134145382Y-87605054D01*
X133998304Y-87641824D01*
X133887996Y-87641824D01*
X133740918Y-87605054D01*
X133667379Y-87568285D01*
X133593840Y-87494746D01*
X133557070Y-87384437D01*
X133557070Y-87310898D01*
X133593840Y-87200590D01*
X133630609Y-87163820D01*
X134329230Y-86428430D02*
X134329230Y-86869664D01*
X134329230Y-86649047D02*
X133557070Y-86649047D01*
X133667379Y-86722586D01*
X133740918Y-86796125D01*
X133777687Y-86869664D01*
X133630609Y-86134273D02*
X133593840Y-86097504D01*
X133557070Y-86023965D01*
X133557070Y-85840117D01*
X133593840Y-85766578D01*
X133630609Y-85729809D01*
X133704148Y-85693039D01*
X133777687Y-85693039D01*
X133887996Y-85729809D01*
X134329230Y-86171043D01*
X134329230Y-85693039D01*
X137352043Y-84725691D02*
X137315273Y-84762460D01*
X137204965Y-84799230D01*
X137131426Y-84799230D01*
X137021117Y-84762460D01*
X136947578Y-84688921D01*
X136910809Y-84615382D01*
X136874039Y-84468304D01*
X136874039Y-84357996D01*
X136910809Y-84210918D01*
X136947578Y-84137379D01*
X137021117Y-84063840D01*
X137131426Y-84027070D01*
X137204965Y-84027070D01*
X137315273Y-84063840D01*
X137352043Y-84100609D01*
X138087433Y-84799230D02*
X137646199Y-84799230D01*
X137866816Y-84799230D02*
X137866816Y-84027070D01*
X137793277Y-84137379D01*
X137719738Y-84210918D01*
X137646199Y-84247687D01*
X138344820Y-84027070D02*
X138822824Y-84027070D01*
X138565437Y-84321226D01*
X138675746Y-84321226D01*
X138749285Y-84357996D01*
X138786054Y-84394765D01*
X138822824Y-84468304D01*
X138822824Y-84652152D01*
X138786054Y-84725691D01*
X138749285Y-84762460D01*
X138675746Y-84799230D01*
X138455129Y-84799230D01*
X138381590Y-84762460D01*
X138344820Y-84725691D01*
X161502179Y-113257390D02*
X161244792Y-112889695D01*
X161060945Y-113257390D02*
X161060945Y-112485230D01*
X161355101Y-112485230D01*
X161428640Y-112522000D01*
X161465409Y-112558769D01*
X161502179Y-112632308D01*
X161502179Y-112742617D01*
X161465409Y-112816156D01*
X161428640Y-112852925D01*
X161355101Y-112889695D01*
X161060945Y-112889695D01*
X162200800Y-112485230D02*
X161833105Y-112485230D01*
X161796335Y-112852925D01*
X161833105Y-112816156D01*
X161906644Y-112779386D01*
X162090491Y-112779386D01*
X162164030Y-112816156D01*
X162200800Y-112852925D01*
X162237569Y-112926464D01*
X162237569Y-113110312D01*
X162200800Y-113183851D01*
X162164030Y-113220620D01*
X162090491Y-113257390D01*
X161906644Y-113257390D01*
X161833105Y-113220620D01*
X161796335Y-113183851D01*
X144992179Y-98388230D02*
X144734792Y-98020535D01*
X144550945Y-98388230D02*
X144550945Y-97616070D01*
X144845101Y-97616070D01*
X144918640Y-97652840D01*
X144955409Y-97689609D01*
X144992179Y-97763148D01*
X144992179Y-97873457D01*
X144955409Y-97946996D01*
X144918640Y-97983765D01*
X144845101Y-98020535D01*
X144550945Y-98020535D01*
X145286335Y-97689609D02*
X145323105Y-97652840D01*
X145396644Y-97616070D01*
X145580491Y-97616070D01*
X145654030Y-97652840D01*
X145690800Y-97689609D01*
X145727569Y-97763148D01*
X145727569Y-97836687D01*
X145690800Y-97946996D01*
X145249566Y-98388230D01*
X145727569Y-98388230D01*
X146770179Y-98388230D02*
X146512792Y-98020535D01*
X146328945Y-98388230D02*
X146328945Y-97616070D01*
X146623101Y-97616070D01*
X146696640Y-97652840D01*
X146733409Y-97689609D01*
X146770179Y-97763148D01*
X146770179Y-97873457D01*
X146733409Y-97946996D01*
X146696640Y-97983765D01*
X146623101Y-98020535D01*
X146328945Y-98020535D01*
X147505569Y-98388230D02*
X147064335Y-98388230D01*
X147284952Y-98388230D02*
X147284952Y-97616070D01*
X147211413Y-97726379D01*
X147137874Y-97799918D01*
X147064335Y-97836687D01*
D18*
X171564333Y-77793904D02*
X171564333Y-78365333D01*
X171526238Y-78479619D01*
X171450047Y-78555809D01*
X171335761Y-78593904D01*
X171259571Y-78593904D01*
X172288142Y-78060571D02*
X172288142Y-78593904D01*
X172097666Y-77755809D02*
X171907190Y-78327238D01*
X172402428Y-78327238D01*
X143027476Y-113353904D02*
X143027476Y-114001523D01*
X143065571Y-114077714D01*
X143103666Y-114115809D01*
X143179857Y-114153904D01*
X143332238Y-114153904D01*
X143408428Y-114115809D01*
X143446523Y-114077714D01*
X143484619Y-114001523D01*
X143484619Y-113353904D01*
X144284619Y-114153904D02*
X143827476Y-114153904D01*
X144056047Y-114153904D02*
X144056047Y-113353904D01*
X143979857Y-113468190D01*
X143903666Y-113544380D01*
X143827476Y-113582476D01*
X128511333Y-80714904D02*
X128511333Y-81286333D01*
X128473238Y-81400619D01*
X128397047Y-81476809D01*
X128282761Y-81514904D01*
X128206571Y-81514904D01*
X129273238Y-80714904D02*
X128892285Y-80714904D01*
X128854190Y-81095857D01*
X128892285Y-81057761D01*
X128968476Y-81019666D01*
X129158952Y-81019666D01*
X129235142Y-81057761D01*
X129273238Y-81095857D01*
X129311333Y-81172047D01*
X129311333Y-81362523D01*
X129273238Y-81438714D01*
X129235142Y-81476809D01*
X129158952Y-81514904D01*
X128968476Y-81514904D01*
X128892285Y-81476809D01*
X128854190Y-81438714D01*
X133724666Y-84689904D02*
X133458000Y-84308952D01*
X133267523Y-84689904D02*
X133267523Y-83889904D01*
X133572285Y-83889904D01*
X133648476Y-83928000D01*
X133686571Y-83966095D01*
X133724666Y-84042285D01*
X133724666Y-84156571D01*
X133686571Y-84232761D01*
X133648476Y-84270857D01*
X133572285Y-84308952D01*
X133267523Y-84308952D01*
X133991333Y-83889904D02*
X134524666Y-83889904D01*
X134181809Y-84689904D01*
X131552904Y-88525333D02*
X131171952Y-88792000D01*
X131552904Y-88982476D02*
X130752904Y-88982476D01*
X130752904Y-88677714D01*
X130791000Y-88601523D01*
X130829095Y-88563428D01*
X130905285Y-88525333D01*
X131019571Y-88525333D01*
X131095761Y-88563428D01*
X131133857Y-88601523D01*
X131171952Y-88677714D01*
X131171952Y-88982476D01*
X131095761Y-88068190D02*
X131057666Y-88144380D01*
X131019571Y-88182476D01*
X130943380Y-88220571D01*
X130905285Y-88220571D01*
X130829095Y-88182476D01*
X130791000Y-88144380D01*
X130752904Y-88068190D01*
X130752904Y-87915809D01*
X130791000Y-87839619D01*
X130829095Y-87801523D01*
X130905285Y-87763428D01*
X130943380Y-87763428D01*
X131019571Y-87801523D01*
X131057666Y-87839619D01*
X131095761Y-87915809D01*
X131095761Y-88068190D01*
X131133857Y-88144380D01*
X131171952Y-88182476D01*
X131248142Y-88220571D01*
X131400523Y-88220571D01*
X131476714Y-88182476D01*
X131514809Y-88144380D01*
X131552904Y-88068190D01*
X131552904Y-87915809D01*
X131514809Y-87839619D01*
X131476714Y-87801523D01*
X131400523Y-87763428D01*
X131248142Y-87763428D01*
X131171952Y-87801523D01*
X131133857Y-87839619D01*
X131095761Y-87915809D01*
X142233666Y-90531904D02*
X141967000Y-90150952D01*
X141776523Y-90531904D02*
X141776523Y-89731904D01*
X142081285Y-89731904D01*
X142157476Y-89770000D01*
X142195571Y-89808095D01*
X142233666Y-89884285D01*
X142233666Y-89998571D01*
X142195571Y-90074761D01*
X142157476Y-90112857D01*
X142081285Y-90150952D01*
X141776523Y-90150952D01*
X142919380Y-89731904D02*
X142767000Y-89731904D01*
X142690809Y-89770000D01*
X142652714Y-89808095D01*
X142576523Y-89922380D01*
X142538428Y-90074761D01*
X142538428Y-90379523D01*
X142576523Y-90455714D01*
X142614619Y-90493809D01*
X142690809Y-90531904D01*
X142843190Y-90531904D01*
X142919380Y-90493809D01*
X142957476Y-90455714D01*
X142995571Y-90379523D01*
X142995571Y-90189047D01*
X142957476Y-90112857D01*
X142919380Y-90074761D01*
X142843190Y-90036666D01*
X142690809Y-90036666D01*
X142614619Y-90074761D01*
X142576523Y-90112857D01*
X142538428Y-90189047D01*
X149153666Y-88987380D02*
X149153666Y-89701666D01*
X149106047Y-89844523D01*
X149010809Y-89939761D01*
X148867952Y-89987380D01*
X148772714Y-89987380D01*
X149629857Y-89987380D02*
X149629857Y-88987380D01*
X150010809Y-88987380D01*
X150106047Y-89035000D01*
X150153666Y-89082619D01*
X150201285Y-89177857D01*
X150201285Y-89320714D01*
X150153666Y-89415952D01*
X150106047Y-89463571D01*
X150010809Y-89511190D01*
X149629857Y-89511190D01*
X150677476Y-89987380D02*
X150867952Y-89987380D01*
X150963190Y-89939761D01*
X151010809Y-89892142D01*
X151106047Y-89749285D01*
X151153666Y-89558809D01*
X151153666Y-89177857D01*
X151106047Y-89082619D01*
X151058428Y-89035000D01*
X150963190Y-88987380D01*
X150772714Y-88987380D01*
X150677476Y-89035000D01*
X150629857Y-89082619D01*
X150582238Y-89177857D01*
X150582238Y-89415952D01*
X150629857Y-89511190D01*
X150677476Y-89558809D01*
X150772714Y-89606428D01*
X150963190Y-89606428D01*
X151058428Y-89558809D01*
X151106047Y-89511190D01*
X151153666Y-89415952D01*
M02*
