G04 #@! TF.GenerationSoftware,KiCad,Pcbnew,(5.1.6-0-10_14)*
G04 #@! TF.CreationDate,2021-09-10T12:16:29-05:00*
G04 #@! TF.ProjectId,DFC_REV_D,4446435f-5245-4565-9f44-2e6b69636164,rev?*
G04 #@! TF.SameCoordinates,Original*
G04 #@! TF.FileFunction,Soldermask,Bot*
G04 #@! TF.FilePolarity,Negative*
%FSLAX46Y46*%
G04 Gerber Fmt 4.6, Leading zero omitted, Abs format (unit mm)*
G04 Created by KiCad (PCBNEW (5.1.6-0-10_14)) date 2021-09-10 12:16:29*
%MOMM*%
%LPD*%
G01*
G04 APERTURE LIST*
%ADD10C,0.500000*%
%ADD11C,0.050000*%
%ADD12C,0.100000*%
%ADD13R,3.403600X4.419600*%
%ADD14C,0.889000*%
%ADD15O,1.901600X1.001600*%
%ADD16C,0.701600*%
%ADD17O,0.901600X1.701600*%
%ADD18C,0.951600*%
%ADD19O,1.001600X1.901600*%
%ADD20O,1.701600X0.901600*%
%ADD21C,1.600200*%
%ADD22C,2.801600*%
%ADD23R,1.601600X1.101600*%
%ADD24C,1.801600*%
%ADD25C,1.092200*%
G04 APERTURE END LIST*
D10*
X144538000Y-89281000D02*
G75*
G02*
X145288000Y-88531000I750000J0D01*
G01*
X145288000Y-88531000D02*
G75*
G02*
X146038000Y-89281000I0J-750000D01*
G01*
X146038000Y-89281000D02*
G75*
G02*
X145288000Y-90031000I-750000J0D01*
G01*
X145288000Y-90031000D02*
G75*
G02*
X144538000Y-89281000I0J750000D01*
G01*
X130556000Y-111748000D02*
G75*
G02*
X129806000Y-110998000I0J750000D01*
G01*
X131306000Y-110998000D02*
G75*
G02*
X130556000Y-111748000I-750000J0D01*
G01*
X130556000Y-110248000D02*
G75*
G02*
X131306000Y-110998000I0J-750000D01*
G01*
X129806000Y-110998000D02*
G75*
G02*
X130556000Y-110248000I750000J0D01*
G01*
X170180000Y-90031000D02*
G75*
G02*
X169430000Y-89281000I0J750000D01*
G01*
X170930000Y-89281000D02*
G75*
G02*
X170180000Y-90031000I-750000J0D01*
G01*
X170180000Y-88531000D02*
G75*
G02*
X170930000Y-89281000I0J-750000D01*
G01*
X169430000Y-89281000D02*
G75*
G02*
X170180000Y-88531000I750000J0D01*
G01*
D11*
G36*
X132478400Y-98275000D02*
G01*
X132478400Y-98575000D01*
X132475524Y-98629877D01*
X132466927Y-98684154D01*
X132452705Y-98737234D01*
X132433011Y-98788537D01*
X132408063Y-98837500D01*
X132378134Y-98883587D01*
X132343551Y-98926294D01*
X132304694Y-98965151D01*
X132261987Y-98999734D01*
X132215900Y-99029663D01*
X132166937Y-99054611D01*
X132115634Y-99074305D01*
X132062554Y-99088527D01*
X132008277Y-99097124D01*
X131953400Y-99100000D01*
X131898523Y-99097124D01*
X131844246Y-99088527D01*
X131791166Y-99074305D01*
X131739863Y-99054611D01*
X131690900Y-99029663D01*
X131644813Y-98999734D01*
X131602106Y-98965151D01*
X131563249Y-98926294D01*
X131528666Y-98883587D01*
X131498737Y-98837500D01*
X131473789Y-98788537D01*
X131454095Y-98737234D01*
X131439873Y-98684154D01*
X131431276Y-98629877D01*
X131428400Y-98575000D01*
X131428400Y-98275000D01*
X131431276Y-98220123D01*
X131439873Y-98165846D01*
X131454095Y-98112766D01*
X131473789Y-98061463D01*
X131498737Y-98012500D01*
X131528666Y-97966413D01*
X131563249Y-97923706D01*
X131602106Y-97884849D01*
X131644813Y-97850266D01*
X131690900Y-97820337D01*
X131739863Y-97795389D01*
X131791166Y-97775695D01*
X131844246Y-97761473D01*
X131898523Y-97752876D01*
X131953400Y-97750000D01*
X132008277Y-97752876D01*
X132062554Y-97761473D01*
X132115634Y-97775695D01*
X132166937Y-97795389D01*
X132215900Y-97820337D01*
X132261987Y-97850266D01*
X132304694Y-97884849D01*
X132343551Y-97923706D01*
X132378134Y-97966413D01*
X132408063Y-98012500D01*
X132433011Y-98061463D01*
X132452705Y-98112766D01*
X132466927Y-98165846D01*
X132475524Y-98220123D01*
X132478400Y-98275000D01*
G37*
X132478400Y-98275000D02*
X132478400Y-98575000D01*
X132475524Y-98629877D01*
X132466927Y-98684154D01*
X132452705Y-98737234D01*
X132433011Y-98788537D01*
X132408063Y-98837500D01*
X132378134Y-98883587D01*
X132343551Y-98926294D01*
X132304694Y-98965151D01*
X132261987Y-98999734D01*
X132215900Y-99029663D01*
X132166937Y-99054611D01*
X132115634Y-99074305D01*
X132062554Y-99088527D01*
X132008277Y-99097124D01*
X131953400Y-99100000D01*
X131898523Y-99097124D01*
X131844246Y-99088527D01*
X131791166Y-99074305D01*
X131739863Y-99054611D01*
X131690900Y-99029663D01*
X131644813Y-98999734D01*
X131602106Y-98965151D01*
X131563249Y-98926294D01*
X131528666Y-98883587D01*
X131498737Y-98837500D01*
X131473789Y-98788537D01*
X131454095Y-98737234D01*
X131439873Y-98684154D01*
X131431276Y-98629877D01*
X131428400Y-98575000D01*
X131428400Y-98275000D01*
X131431276Y-98220123D01*
X131439873Y-98165846D01*
X131454095Y-98112766D01*
X131473789Y-98061463D01*
X131498737Y-98012500D01*
X131528666Y-97966413D01*
X131563249Y-97923706D01*
X131602106Y-97884849D01*
X131644813Y-97850266D01*
X131690900Y-97820337D01*
X131739863Y-97795389D01*
X131791166Y-97775695D01*
X131844246Y-97761473D01*
X131898523Y-97752876D01*
X131953400Y-97750000D01*
X132008277Y-97752876D01*
X132062554Y-97761473D01*
X132115634Y-97775695D01*
X132166937Y-97795389D01*
X132215900Y-97820337D01*
X132261987Y-97850266D01*
X132304694Y-97884849D01*
X132343551Y-97923706D01*
X132378134Y-97966413D01*
X132408063Y-98012500D01*
X132433011Y-98061463D01*
X132452705Y-98112766D01*
X132466927Y-98165846D01*
X132475524Y-98220123D01*
X132478400Y-98275000D01*
G36*
X151441500Y-85590000D02*
G01*
X151141500Y-85590000D01*
X151086623Y-85587124D01*
X151032346Y-85578527D01*
X150979266Y-85564305D01*
X150927963Y-85544611D01*
X150879000Y-85519663D01*
X150832913Y-85489734D01*
X150790206Y-85455151D01*
X150751349Y-85416294D01*
X150716766Y-85373587D01*
X150686837Y-85327500D01*
X150661889Y-85278537D01*
X150642195Y-85227234D01*
X150627973Y-85174154D01*
X150619376Y-85119877D01*
X150616500Y-85065000D01*
X150619376Y-85010123D01*
X150627973Y-84955846D01*
X150642195Y-84902766D01*
X150661889Y-84851463D01*
X150686837Y-84802500D01*
X150716766Y-84756413D01*
X150751349Y-84713706D01*
X150790206Y-84674849D01*
X150832913Y-84640266D01*
X150879000Y-84610337D01*
X150927963Y-84585389D01*
X150979266Y-84565695D01*
X151032346Y-84551473D01*
X151086623Y-84542876D01*
X151141500Y-84540000D01*
X151441500Y-84540000D01*
X151496377Y-84542876D01*
X151550654Y-84551473D01*
X151603734Y-84565695D01*
X151655037Y-84585389D01*
X151704000Y-84610337D01*
X151750087Y-84640266D01*
X151792794Y-84674849D01*
X151831651Y-84713706D01*
X151866234Y-84756413D01*
X151896163Y-84802500D01*
X151921111Y-84851463D01*
X151940805Y-84902766D01*
X151955027Y-84955846D01*
X151963624Y-85010123D01*
X151966500Y-85065000D01*
X151963624Y-85119877D01*
X151955027Y-85174154D01*
X151940805Y-85227234D01*
X151921111Y-85278537D01*
X151896163Y-85327500D01*
X151866234Y-85373587D01*
X151831651Y-85416294D01*
X151792794Y-85455151D01*
X151750087Y-85489734D01*
X151704000Y-85519663D01*
X151655037Y-85544611D01*
X151603734Y-85564305D01*
X151550654Y-85578527D01*
X151496377Y-85587124D01*
X151441500Y-85590000D01*
G37*
X151441500Y-85590000D02*
X151141500Y-85590000D01*
X151086623Y-85587124D01*
X151032346Y-85578527D01*
X150979266Y-85564305D01*
X150927963Y-85544611D01*
X150879000Y-85519663D01*
X150832913Y-85489734D01*
X150790206Y-85455151D01*
X150751349Y-85416294D01*
X150716766Y-85373587D01*
X150686837Y-85327500D01*
X150661889Y-85278537D01*
X150642195Y-85227234D01*
X150627973Y-85174154D01*
X150619376Y-85119877D01*
X150616500Y-85065000D01*
X150619376Y-85010123D01*
X150627973Y-84955846D01*
X150642195Y-84902766D01*
X150661889Y-84851463D01*
X150686837Y-84802500D01*
X150716766Y-84756413D01*
X150751349Y-84713706D01*
X150790206Y-84674849D01*
X150832913Y-84640266D01*
X150879000Y-84610337D01*
X150927963Y-84585389D01*
X150979266Y-84565695D01*
X151032346Y-84551473D01*
X151086623Y-84542876D01*
X151141500Y-84540000D01*
X151441500Y-84540000D01*
X151496377Y-84542876D01*
X151550654Y-84551473D01*
X151603734Y-84565695D01*
X151655037Y-84585389D01*
X151704000Y-84610337D01*
X151750087Y-84640266D01*
X151792794Y-84674849D01*
X151831651Y-84713706D01*
X151866234Y-84756413D01*
X151896163Y-84802500D01*
X151921111Y-84851463D01*
X151940805Y-84902766D01*
X151955027Y-84955846D01*
X151963624Y-85010123D01*
X151966500Y-85065000D01*
X151963624Y-85119877D01*
X151955027Y-85174154D01*
X151940805Y-85227234D01*
X151921111Y-85278537D01*
X151896163Y-85327500D01*
X151866234Y-85373587D01*
X151831651Y-85416294D01*
X151792794Y-85455151D01*
X151750087Y-85489734D01*
X151704000Y-85519663D01*
X151655037Y-85544611D01*
X151603734Y-85564305D01*
X151550654Y-85578527D01*
X151496377Y-85587124D01*
X151441500Y-85590000D01*
D12*
G36*
X165121113Y-90004802D02*
G01*
X165139534Y-90004802D01*
X165144514Y-90005047D01*
X165193345Y-90009857D01*
X165198275Y-90010588D01*
X165246400Y-90020160D01*
X165251237Y-90021372D01*
X165298192Y-90035616D01*
X165302885Y-90037295D01*
X165348218Y-90056072D01*
X165352726Y-90058204D01*
X165395999Y-90081335D01*
X165400273Y-90083897D01*
X165441072Y-90111157D01*
X165445077Y-90114127D01*
X165483006Y-90145255D01*
X165486700Y-90148603D01*
X165521397Y-90183300D01*
X165524745Y-90186994D01*
X165555873Y-90224923D01*
X165558843Y-90228928D01*
X165586103Y-90269727D01*
X165588665Y-90274001D01*
X165611796Y-90317274D01*
X165613928Y-90321782D01*
X165632705Y-90367115D01*
X165634384Y-90371808D01*
X165648628Y-90418763D01*
X165649840Y-90423600D01*
X165659412Y-90471725D01*
X165660143Y-90476655D01*
X165664953Y-90525486D01*
X165665198Y-90530466D01*
X165665198Y-90548887D01*
X165665800Y-90555000D01*
X165665800Y-91055000D01*
X165665198Y-91061113D01*
X165665198Y-91079534D01*
X165664953Y-91084514D01*
X165660143Y-91133345D01*
X165659412Y-91138275D01*
X165649840Y-91186400D01*
X165648628Y-91191237D01*
X165634384Y-91238192D01*
X165632705Y-91242885D01*
X165613928Y-91288218D01*
X165611796Y-91292726D01*
X165588665Y-91335999D01*
X165586103Y-91340273D01*
X165558843Y-91381072D01*
X165555873Y-91385077D01*
X165524745Y-91423006D01*
X165521397Y-91426700D01*
X165486700Y-91461397D01*
X165483006Y-91464745D01*
X165445077Y-91495873D01*
X165441072Y-91498843D01*
X165400273Y-91526103D01*
X165395999Y-91528665D01*
X165352726Y-91551796D01*
X165348218Y-91553928D01*
X165302885Y-91572705D01*
X165298192Y-91574384D01*
X165251237Y-91588628D01*
X165246400Y-91589840D01*
X165198275Y-91599412D01*
X165193345Y-91600143D01*
X165144514Y-91604953D01*
X165139534Y-91605198D01*
X165121113Y-91605198D01*
X165115000Y-91605800D01*
X164615000Y-91605800D01*
X164605089Y-91604824D01*
X164595560Y-91601933D01*
X164586777Y-91597239D01*
X164579079Y-91590921D01*
X164572761Y-91583223D01*
X164568067Y-91574440D01*
X164565176Y-91564911D01*
X164564200Y-91555000D01*
X164564200Y-90055000D01*
X164565176Y-90045089D01*
X164568067Y-90035560D01*
X164572761Y-90026777D01*
X164579079Y-90019079D01*
X164586777Y-90012761D01*
X164595560Y-90008067D01*
X164605089Y-90005176D01*
X164615000Y-90004200D01*
X165115000Y-90004200D01*
X165121113Y-90004802D01*
G37*
G36*
X164324911Y-90005176D02*
G01*
X164334440Y-90008067D01*
X164343223Y-90012761D01*
X164350921Y-90019079D01*
X164357239Y-90026777D01*
X164361933Y-90035560D01*
X164364824Y-90045089D01*
X164365800Y-90055000D01*
X164365800Y-91555000D01*
X164364824Y-91564911D01*
X164361933Y-91574440D01*
X164357239Y-91583223D01*
X164350921Y-91590921D01*
X164343223Y-91597239D01*
X164334440Y-91601933D01*
X164324911Y-91604824D01*
X164315000Y-91605800D01*
X163815000Y-91605800D01*
X163808887Y-91605198D01*
X163790466Y-91605198D01*
X163785486Y-91604953D01*
X163736655Y-91600143D01*
X163731725Y-91599412D01*
X163683600Y-91589840D01*
X163678763Y-91588628D01*
X163631808Y-91574384D01*
X163627115Y-91572705D01*
X163581782Y-91553928D01*
X163577274Y-91551796D01*
X163534001Y-91528665D01*
X163529727Y-91526103D01*
X163488928Y-91498843D01*
X163484923Y-91495873D01*
X163446994Y-91464745D01*
X163443300Y-91461397D01*
X163408603Y-91426700D01*
X163405255Y-91423006D01*
X163374127Y-91385077D01*
X163371157Y-91381072D01*
X163343897Y-91340273D01*
X163341335Y-91335999D01*
X163318204Y-91292726D01*
X163316072Y-91288218D01*
X163297295Y-91242885D01*
X163295616Y-91238192D01*
X163281372Y-91191237D01*
X163280160Y-91186400D01*
X163270588Y-91138275D01*
X163269857Y-91133345D01*
X163265047Y-91084514D01*
X163264802Y-91079534D01*
X163264802Y-91061113D01*
X163264200Y-91055000D01*
X163264200Y-90555000D01*
X163264802Y-90548887D01*
X163264802Y-90530466D01*
X163265047Y-90525486D01*
X163269857Y-90476655D01*
X163270588Y-90471725D01*
X163280160Y-90423600D01*
X163281372Y-90418763D01*
X163295616Y-90371808D01*
X163297295Y-90367115D01*
X163316072Y-90321782D01*
X163318204Y-90317274D01*
X163341335Y-90274001D01*
X163343897Y-90269727D01*
X163371157Y-90228928D01*
X163374127Y-90224923D01*
X163405255Y-90186994D01*
X163408603Y-90183300D01*
X163443300Y-90148603D01*
X163446994Y-90145255D01*
X163484923Y-90114127D01*
X163488928Y-90111157D01*
X163529727Y-90083897D01*
X163534001Y-90081335D01*
X163577274Y-90058204D01*
X163581782Y-90056072D01*
X163627115Y-90037295D01*
X163631808Y-90035616D01*
X163678763Y-90021372D01*
X163683600Y-90020160D01*
X163731725Y-90010588D01*
X163736655Y-90009857D01*
X163785486Y-90005047D01*
X163790466Y-90004802D01*
X163808887Y-90004802D01*
X163815000Y-90004200D01*
X164315000Y-90004200D01*
X164324911Y-90005176D01*
G37*
D13*
X134493000Y-100838000D03*
X163703000Y-100838000D03*
D14*
X171831000Y-107061000D03*
X170561000Y-107061000D03*
X171831000Y-108331000D03*
X170561000Y-108331000D03*
X171831000Y-109601000D03*
X170561000Y-109601000D03*
G36*
G01*
X144737200Y-89281000D02*
X144737200Y-89281000D01*
G75*
G02*
X145288000Y-88730200I550800J0D01*
G01*
X145288000Y-88730200D01*
G75*
G02*
X145838800Y-89281000I0J-550800D01*
G01*
X145838800Y-89281000D01*
G75*
G02*
X145288000Y-89831800I-550800J0D01*
G01*
X145288000Y-89831800D01*
G75*
G02*
X144737200Y-89281000I0J550800D01*
G01*
G37*
G36*
G01*
X130005200Y-110998000D02*
X130005200Y-110998000D01*
G75*
G02*
X130556000Y-110447200I550800J0D01*
G01*
X130556000Y-110447200D01*
G75*
G02*
X131106800Y-110998000I0J-550800D01*
G01*
X131106800Y-110998000D01*
G75*
G02*
X130556000Y-111548800I-550800J0D01*
G01*
X130556000Y-111548800D01*
G75*
G02*
X130005200Y-110998000I0J550800D01*
G01*
G37*
G36*
G01*
X169629200Y-89281000D02*
X169629200Y-89281000D01*
G75*
G02*
X170180000Y-88730200I550800J0D01*
G01*
X170180000Y-88730200D01*
G75*
G02*
X170730800Y-89281000I0J-550800D01*
G01*
X170730800Y-89281000D01*
G75*
G02*
X170180000Y-89831800I-550800J0D01*
G01*
X170180000Y-89831800D01*
G75*
G02*
X169629200Y-89281000I0J550800D01*
G01*
G37*
D15*
X124753400Y-99155000D03*
X124753400Y-90495000D03*
D16*
X130603400Y-97225000D03*
X130603400Y-96425000D03*
X130603400Y-95625000D03*
X130603400Y-92425000D03*
X130603400Y-93225000D03*
X130603400Y-94025000D03*
X131303400Y-97625000D03*
X131303400Y-96025000D03*
X131303400Y-95225000D03*
X131303400Y-92025000D03*
X131303400Y-93625000D03*
D17*
X130953400Y-90820000D03*
D16*
X131303400Y-94425000D03*
D18*
X131953400Y-98425000D03*
D17*
X130953400Y-98830000D03*
D15*
X130453400Y-99155000D03*
D18*
X131953400Y-91225000D03*
D15*
X130453400Y-90495000D03*
D19*
X159221500Y-83565000D03*
D18*
X158491500Y-85065000D03*
D19*
X150561500Y-83565000D03*
D20*
X150886500Y-84065000D03*
D18*
X151291500Y-85065000D03*
D16*
X155291500Y-84415000D03*
D20*
X158896500Y-84065000D03*
D16*
X156091500Y-84415000D03*
X157691500Y-84415000D03*
X154491500Y-84415000D03*
X153691500Y-84415000D03*
X152091500Y-84415000D03*
X155691500Y-83715000D03*
X156491500Y-83715000D03*
X157291500Y-83715000D03*
X154091500Y-83715000D03*
X153291500Y-83715000D03*
X152491500Y-83715000D03*
D19*
X159221500Y-77865000D03*
X150561500Y-77865000D03*
D21*
X179451000Y-86741000D03*
X176911000Y-86741000D03*
X179451000Y-89281000D03*
X176911000Y-89281000D03*
X179451000Y-91821000D03*
X176911000Y-91821000D03*
X179451000Y-94361000D03*
X176911000Y-94361000D03*
X179451000Y-96901000D03*
X176911000Y-96901000D03*
X179451000Y-99441000D03*
X176911000Y-99441000D03*
X179451000Y-101981000D03*
X176911000Y-101981000D03*
X179451000Y-104521000D03*
X176911000Y-104521000D03*
X179451000Y-107061000D03*
X176911000Y-107061000D03*
X179451000Y-109601000D03*
X176911000Y-109601000D03*
D22*
X169926000Y-114554000D03*
X125984000Y-114554000D03*
X125984000Y-78613000D03*
X176022000Y-78613000D03*
D23*
X161671000Y-83693000D03*
D12*
G36*
X162471198Y-84999113D02*
G01*
X162471198Y-85017534D01*
X162470953Y-85022514D01*
X162466143Y-85071345D01*
X162465412Y-85076275D01*
X162455840Y-85124400D01*
X162454628Y-85129237D01*
X162440384Y-85176192D01*
X162438705Y-85180885D01*
X162419928Y-85226218D01*
X162417796Y-85230726D01*
X162394665Y-85273999D01*
X162392103Y-85278273D01*
X162364843Y-85319072D01*
X162361873Y-85323077D01*
X162330745Y-85361006D01*
X162327397Y-85364700D01*
X162292700Y-85399397D01*
X162289006Y-85402745D01*
X162251077Y-85433873D01*
X162247072Y-85436843D01*
X162206273Y-85464103D01*
X162201999Y-85466665D01*
X162158726Y-85489796D01*
X162154218Y-85491928D01*
X162108885Y-85510705D01*
X162104192Y-85512384D01*
X162057237Y-85526628D01*
X162052400Y-85527840D01*
X162004275Y-85537412D01*
X161999345Y-85538143D01*
X161950514Y-85542953D01*
X161945534Y-85543198D01*
X161927113Y-85543198D01*
X161921000Y-85543800D01*
X161421000Y-85543800D01*
X161414887Y-85543198D01*
X161396466Y-85543198D01*
X161391486Y-85542953D01*
X161342655Y-85538143D01*
X161337725Y-85537412D01*
X161289600Y-85527840D01*
X161284763Y-85526628D01*
X161237808Y-85512384D01*
X161233115Y-85510705D01*
X161187782Y-85491928D01*
X161183274Y-85489796D01*
X161140001Y-85466665D01*
X161135727Y-85464103D01*
X161094928Y-85436843D01*
X161090923Y-85433873D01*
X161052994Y-85402745D01*
X161049300Y-85399397D01*
X161014603Y-85364700D01*
X161011255Y-85361006D01*
X160980127Y-85323077D01*
X160977157Y-85319072D01*
X160949897Y-85278273D01*
X160947335Y-85273999D01*
X160924204Y-85230726D01*
X160922072Y-85226218D01*
X160903295Y-85180885D01*
X160901616Y-85176192D01*
X160887372Y-85129237D01*
X160886160Y-85124400D01*
X160876588Y-85076275D01*
X160875857Y-85071345D01*
X160871047Y-85022514D01*
X160870802Y-85017534D01*
X160870802Y-84999113D01*
X160870200Y-84993000D01*
X160870200Y-84443000D01*
X160871176Y-84433089D01*
X160874067Y-84423560D01*
X160878761Y-84414777D01*
X160885079Y-84407079D01*
X160892777Y-84400761D01*
X160901560Y-84396067D01*
X160911089Y-84393176D01*
X160921000Y-84392200D01*
X162421000Y-84392200D01*
X162430911Y-84393176D01*
X162440440Y-84396067D01*
X162449223Y-84400761D01*
X162456921Y-84407079D01*
X162463239Y-84414777D01*
X162467933Y-84423560D01*
X162470824Y-84433089D01*
X162471800Y-84443000D01*
X162471800Y-84993000D01*
X162471198Y-84999113D01*
G37*
G36*
X162470824Y-82952911D02*
G01*
X162467933Y-82962440D01*
X162463239Y-82971223D01*
X162456921Y-82978921D01*
X162449223Y-82985239D01*
X162440440Y-82989933D01*
X162430911Y-82992824D01*
X162421000Y-82993800D01*
X160921000Y-82993800D01*
X160911089Y-82992824D01*
X160901560Y-82989933D01*
X160892777Y-82985239D01*
X160885079Y-82978921D01*
X160878761Y-82971223D01*
X160874067Y-82962440D01*
X160871176Y-82952911D01*
X160870200Y-82943000D01*
X160870200Y-82393000D01*
X160870802Y-82386887D01*
X160870802Y-82368466D01*
X160871047Y-82363486D01*
X160875857Y-82314655D01*
X160876588Y-82309725D01*
X160886160Y-82261600D01*
X160887372Y-82256763D01*
X160901616Y-82209808D01*
X160903295Y-82205115D01*
X160922072Y-82159782D01*
X160924204Y-82155274D01*
X160947335Y-82112001D01*
X160949897Y-82107727D01*
X160977157Y-82066928D01*
X160980127Y-82062923D01*
X161011255Y-82024994D01*
X161014603Y-82021300D01*
X161049300Y-81986603D01*
X161052994Y-81983255D01*
X161090923Y-81952127D01*
X161094928Y-81949157D01*
X161135727Y-81921897D01*
X161140001Y-81919335D01*
X161183274Y-81896204D01*
X161187782Y-81894072D01*
X161233115Y-81875295D01*
X161237808Y-81873616D01*
X161284763Y-81859372D01*
X161289600Y-81858160D01*
X161337725Y-81848588D01*
X161342655Y-81847857D01*
X161391486Y-81843047D01*
X161396466Y-81842802D01*
X161414887Y-81842802D01*
X161421000Y-81842200D01*
X161921000Y-81842200D01*
X161927113Y-81842802D01*
X161945534Y-81842802D01*
X161950514Y-81843047D01*
X161999345Y-81847857D01*
X162004275Y-81848588D01*
X162052400Y-81858160D01*
X162057237Y-81859372D01*
X162104192Y-81873616D01*
X162108885Y-81875295D01*
X162154218Y-81894072D01*
X162158726Y-81896204D01*
X162201999Y-81919335D01*
X162206273Y-81921897D01*
X162247072Y-81949157D01*
X162251077Y-81952127D01*
X162289006Y-81983255D01*
X162292700Y-81986603D01*
X162327397Y-82021300D01*
X162330745Y-82024994D01*
X162361873Y-82062923D01*
X162364843Y-82066928D01*
X162392103Y-82107727D01*
X162394665Y-82112001D01*
X162417796Y-82155274D01*
X162419928Y-82159782D01*
X162438705Y-82205115D01*
X162440384Y-82209808D01*
X162454628Y-82256763D01*
X162455840Y-82261600D01*
X162465412Y-82309725D01*
X162466143Y-82314655D01*
X162470953Y-82363486D01*
X162471198Y-82368466D01*
X162471198Y-82386887D01*
X162471800Y-82393000D01*
X162471800Y-82943000D01*
X162470824Y-82952911D01*
G37*
D23*
X164211000Y-83693000D03*
D12*
G36*
X165011198Y-84999113D02*
G01*
X165011198Y-85017534D01*
X165010953Y-85022514D01*
X165006143Y-85071345D01*
X165005412Y-85076275D01*
X164995840Y-85124400D01*
X164994628Y-85129237D01*
X164980384Y-85176192D01*
X164978705Y-85180885D01*
X164959928Y-85226218D01*
X164957796Y-85230726D01*
X164934665Y-85273999D01*
X164932103Y-85278273D01*
X164904843Y-85319072D01*
X164901873Y-85323077D01*
X164870745Y-85361006D01*
X164867397Y-85364700D01*
X164832700Y-85399397D01*
X164829006Y-85402745D01*
X164791077Y-85433873D01*
X164787072Y-85436843D01*
X164746273Y-85464103D01*
X164741999Y-85466665D01*
X164698726Y-85489796D01*
X164694218Y-85491928D01*
X164648885Y-85510705D01*
X164644192Y-85512384D01*
X164597237Y-85526628D01*
X164592400Y-85527840D01*
X164544275Y-85537412D01*
X164539345Y-85538143D01*
X164490514Y-85542953D01*
X164485534Y-85543198D01*
X164467113Y-85543198D01*
X164461000Y-85543800D01*
X163961000Y-85543800D01*
X163954887Y-85543198D01*
X163936466Y-85543198D01*
X163931486Y-85542953D01*
X163882655Y-85538143D01*
X163877725Y-85537412D01*
X163829600Y-85527840D01*
X163824763Y-85526628D01*
X163777808Y-85512384D01*
X163773115Y-85510705D01*
X163727782Y-85491928D01*
X163723274Y-85489796D01*
X163680001Y-85466665D01*
X163675727Y-85464103D01*
X163634928Y-85436843D01*
X163630923Y-85433873D01*
X163592994Y-85402745D01*
X163589300Y-85399397D01*
X163554603Y-85364700D01*
X163551255Y-85361006D01*
X163520127Y-85323077D01*
X163517157Y-85319072D01*
X163489897Y-85278273D01*
X163487335Y-85273999D01*
X163464204Y-85230726D01*
X163462072Y-85226218D01*
X163443295Y-85180885D01*
X163441616Y-85176192D01*
X163427372Y-85129237D01*
X163426160Y-85124400D01*
X163416588Y-85076275D01*
X163415857Y-85071345D01*
X163411047Y-85022514D01*
X163410802Y-85017534D01*
X163410802Y-84999113D01*
X163410200Y-84993000D01*
X163410200Y-84443000D01*
X163411176Y-84433089D01*
X163414067Y-84423560D01*
X163418761Y-84414777D01*
X163425079Y-84407079D01*
X163432777Y-84400761D01*
X163441560Y-84396067D01*
X163451089Y-84393176D01*
X163461000Y-84392200D01*
X164961000Y-84392200D01*
X164970911Y-84393176D01*
X164980440Y-84396067D01*
X164989223Y-84400761D01*
X164996921Y-84407079D01*
X165003239Y-84414777D01*
X165007933Y-84423560D01*
X165010824Y-84433089D01*
X165011800Y-84443000D01*
X165011800Y-84993000D01*
X165011198Y-84999113D01*
G37*
G36*
X165010824Y-82952911D02*
G01*
X165007933Y-82962440D01*
X165003239Y-82971223D01*
X164996921Y-82978921D01*
X164989223Y-82985239D01*
X164980440Y-82989933D01*
X164970911Y-82992824D01*
X164961000Y-82993800D01*
X163461000Y-82993800D01*
X163451089Y-82992824D01*
X163441560Y-82989933D01*
X163432777Y-82985239D01*
X163425079Y-82978921D01*
X163418761Y-82971223D01*
X163414067Y-82962440D01*
X163411176Y-82952911D01*
X163410200Y-82943000D01*
X163410200Y-82393000D01*
X163410802Y-82386887D01*
X163410802Y-82368466D01*
X163411047Y-82363486D01*
X163415857Y-82314655D01*
X163416588Y-82309725D01*
X163426160Y-82261600D01*
X163427372Y-82256763D01*
X163441616Y-82209808D01*
X163443295Y-82205115D01*
X163462072Y-82159782D01*
X163464204Y-82155274D01*
X163487335Y-82112001D01*
X163489897Y-82107727D01*
X163517157Y-82066928D01*
X163520127Y-82062923D01*
X163551255Y-82024994D01*
X163554603Y-82021300D01*
X163589300Y-81986603D01*
X163592994Y-81983255D01*
X163630923Y-81952127D01*
X163634928Y-81949157D01*
X163675727Y-81921897D01*
X163680001Y-81919335D01*
X163723274Y-81896204D01*
X163727782Y-81894072D01*
X163773115Y-81875295D01*
X163777808Y-81873616D01*
X163824763Y-81859372D01*
X163829600Y-81858160D01*
X163877725Y-81848588D01*
X163882655Y-81847857D01*
X163931486Y-81843047D01*
X163936466Y-81842802D01*
X163954887Y-81842802D01*
X163961000Y-81842200D01*
X164461000Y-81842200D01*
X164467113Y-81842802D01*
X164485534Y-81842802D01*
X164490514Y-81843047D01*
X164539345Y-81847857D01*
X164544275Y-81848588D01*
X164592400Y-81858160D01*
X164597237Y-81859372D01*
X164644192Y-81873616D01*
X164648885Y-81875295D01*
X164694218Y-81894072D01*
X164698726Y-81896204D01*
X164741999Y-81919335D01*
X164746273Y-81921897D01*
X164787072Y-81949157D01*
X164791077Y-81952127D01*
X164829006Y-81983255D01*
X164832700Y-81986603D01*
X164867397Y-82021300D01*
X164870745Y-82024994D01*
X164901873Y-82062923D01*
X164904843Y-82066928D01*
X164932103Y-82107727D01*
X164934665Y-82112001D01*
X164957796Y-82155274D01*
X164959928Y-82159782D01*
X164978705Y-82205115D01*
X164980384Y-82209808D01*
X164994628Y-82256763D01*
X164995840Y-82261600D01*
X165005412Y-82309725D01*
X165006143Y-82314655D01*
X165010953Y-82363486D01*
X165011198Y-82368466D01*
X165011198Y-82386887D01*
X165011800Y-82393000D01*
X165011800Y-82943000D01*
X165010824Y-82952911D01*
G37*
D24*
X133619000Y-106553000D03*
X126619000Y-106553000D03*
X167894000Y-79629000D03*
X167894000Y-86629000D03*
D23*
X169545000Y-83693000D03*
D12*
G36*
X168744802Y-82386887D02*
G01*
X168744802Y-82368466D01*
X168745047Y-82363486D01*
X168749857Y-82314655D01*
X168750588Y-82309725D01*
X168760160Y-82261600D01*
X168761372Y-82256763D01*
X168775616Y-82209808D01*
X168777295Y-82205115D01*
X168796072Y-82159782D01*
X168798204Y-82155274D01*
X168821335Y-82112001D01*
X168823897Y-82107727D01*
X168851157Y-82066928D01*
X168854127Y-82062923D01*
X168885255Y-82024994D01*
X168888603Y-82021300D01*
X168923300Y-81986603D01*
X168926994Y-81983255D01*
X168964923Y-81952127D01*
X168968928Y-81949157D01*
X169009727Y-81921897D01*
X169014001Y-81919335D01*
X169057274Y-81896204D01*
X169061782Y-81894072D01*
X169107115Y-81875295D01*
X169111808Y-81873616D01*
X169158763Y-81859372D01*
X169163600Y-81858160D01*
X169211725Y-81848588D01*
X169216655Y-81847857D01*
X169265486Y-81843047D01*
X169270466Y-81842802D01*
X169288887Y-81842802D01*
X169295000Y-81842200D01*
X169795000Y-81842200D01*
X169801113Y-81842802D01*
X169819534Y-81842802D01*
X169824514Y-81843047D01*
X169873345Y-81847857D01*
X169878275Y-81848588D01*
X169926400Y-81858160D01*
X169931237Y-81859372D01*
X169978192Y-81873616D01*
X169982885Y-81875295D01*
X170028218Y-81894072D01*
X170032726Y-81896204D01*
X170075999Y-81919335D01*
X170080273Y-81921897D01*
X170121072Y-81949157D01*
X170125077Y-81952127D01*
X170163006Y-81983255D01*
X170166700Y-81986603D01*
X170201397Y-82021300D01*
X170204745Y-82024994D01*
X170235873Y-82062923D01*
X170238843Y-82066928D01*
X170266103Y-82107727D01*
X170268665Y-82112001D01*
X170291796Y-82155274D01*
X170293928Y-82159782D01*
X170312705Y-82205115D01*
X170314384Y-82209808D01*
X170328628Y-82256763D01*
X170329840Y-82261600D01*
X170339412Y-82309725D01*
X170340143Y-82314655D01*
X170344953Y-82363486D01*
X170345198Y-82368466D01*
X170345198Y-82386887D01*
X170345800Y-82393000D01*
X170345800Y-82943000D01*
X170344824Y-82952911D01*
X170341933Y-82962440D01*
X170337239Y-82971223D01*
X170330921Y-82978921D01*
X170323223Y-82985239D01*
X170314440Y-82989933D01*
X170304911Y-82992824D01*
X170295000Y-82993800D01*
X168795000Y-82993800D01*
X168785089Y-82992824D01*
X168775560Y-82989933D01*
X168766777Y-82985239D01*
X168759079Y-82978921D01*
X168752761Y-82971223D01*
X168748067Y-82962440D01*
X168745176Y-82952911D01*
X168744200Y-82943000D01*
X168744200Y-82393000D01*
X168744802Y-82386887D01*
G37*
G36*
X168745176Y-84433089D02*
G01*
X168748067Y-84423560D01*
X168752761Y-84414777D01*
X168759079Y-84407079D01*
X168766777Y-84400761D01*
X168775560Y-84396067D01*
X168785089Y-84393176D01*
X168795000Y-84392200D01*
X170295000Y-84392200D01*
X170304911Y-84393176D01*
X170314440Y-84396067D01*
X170323223Y-84400761D01*
X170330921Y-84407079D01*
X170337239Y-84414777D01*
X170341933Y-84423560D01*
X170344824Y-84433089D01*
X170345800Y-84443000D01*
X170345800Y-84993000D01*
X170345198Y-84999113D01*
X170345198Y-85017534D01*
X170344953Y-85022514D01*
X170340143Y-85071345D01*
X170339412Y-85076275D01*
X170329840Y-85124400D01*
X170328628Y-85129237D01*
X170314384Y-85176192D01*
X170312705Y-85180885D01*
X170293928Y-85226218D01*
X170291796Y-85230726D01*
X170268665Y-85273999D01*
X170266103Y-85278273D01*
X170238843Y-85319072D01*
X170235873Y-85323077D01*
X170204745Y-85361006D01*
X170201397Y-85364700D01*
X170166700Y-85399397D01*
X170163006Y-85402745D01*
X170125077Y-85433873D01*
X170121072Y-85436843D01*
X170080273Y-85464103D01*
X170075999Y-85466665D01*
X170032726Y-85489796D01*
X170028218Y-85491928D01*
X169982885Y-85510705D01*
X169978192Y-85512384D01*
X169931237Y-85526628D01*
X169926400Y-85527840D01*
X169878275Y-85537412D01*
X169873345Y-85538143D01*
X169824514Y-85542953D01*
X169819534Y-85543198D01*
X169801113Y-85543198D01*
X169795000Y-85543800D01*
X169295000Y-85543800D01*
X169288887Y-85543198D01*
X169270466Y-85543198D01*
X169265486Y-85542953D01*
X169216655Y-85538143D01*
X169211725Y-85537412D01*
X169163600Y-85527840D01*
X169158763Y-85526628D01*
X169111808Y-85512384D01*
X169107115Y-85510705D01*
X169061782Y-85491928D01*
X169057274Y-85489796D01*
X169014001Y-85466665D01*
X169009727Y-85464103D01*
X168968928Y-85436843D01*
X168964923Y-85433873D01*
X168926994Y-85402745D01*
X168923300Y-85399397D01*
X168888603Y-85364700D01*
X168885255Y-85361006D01*
X168854127Y-85323077D01*
X168851157Y-85319072D01*
X168823897Y-85278273D01*
X168821335Y-85273999D01*
X168798204Y-85230726D01*
X168796072Y-85226218D01*
X168777295Y-85180885D01*
X168775616Y-85176192D01*
X168761372Y-85129237D01*
X168760160Y-85124400D01*
X168750588Y-85076275D01*
X168749857Y-85071345D01*
X168745047Y-85022514D01*
X168744802Y-85017534D01*
X168744802Y-84999113D01*
X168744200Y-84993000D01*
X168744200Y-84443000D01*
X168745176Y-84433089D01*
G37*
G36*
X167677824Y-82952911D02*
G01*
X167674933Y-82962440D01*
X167670239Y-82971223D01*
X167663921Y-82978921D01*
X167656223Y-82985239D01*
X167647440Y-82989933D01*
X167637911Y-82992824D01*
X167628000Y-82993800D01*
X166128000Y-82993800D01*
X166118089Y-82992824D01*
X166108560Y-82989933D01*
X166099777Y-82985239D01*
X166092079Y-82978921D01*
X166085761Y-82971223D01*
X166081067Y-82962440D01*
X166078176Y-82952911D01*
X166077200Y-82943000D01*
X166077200Y-82393000D01*
X166077802Y-82386887D01*
X166077802Y-82368466D01*
X166078047Y-82363486D01*
X166082857Y-82314655D01*
X166083588Y-82309725D01*
X166093160Y-82261600D01*
X166094372Y-82256763D01*
X166108616Y-82209808D01*
X166110295Y-82205115D01*
X166129072Y-82159782D01*
X166131204Y-82155274D01*
X166154335Y-82112001D01*
X166156897Y-82107727D01*
X166184157Y-82066928D01*
X166187127Y-82062923D01*
X166218255Y-82024994D01*
X166221603Y-82021300D01*
X166256300Y-81986603D01*
X166259994Y-81983255D01*
X166297923Y-81952127D01*
X166301928Y-81949157D01*
X166342727Y-81921897D01*
X166347001Y-81919335D01*
X166390274Y-81896204D01*
X166394782Y-81894072D01*
X166440115Y-81875295D01*
X166444808Y-81873616D01*
X166491763Y-81859372D01*
X166496600Y-81858160D01*
X166544725Y-81848588D01*
X166549655Y-81847857D01*
X166598486Y-81843047D01*
X166603466Y-81842802D01*
X166621887Y-81842802D01*
X166628000Y-81842200D01*
X167128000Y-81842200D01*
X167134113Y-81842802D01*
X167152534Y-81842802D01*
X167157514Y-81843047D01*
X167206345Y-81847857D01*
X167211275Y-81848588D01*
X167259400Y-81858160D01*
X167264237Y-81859372D01*
X167311192Y-81873616D01*
X167315885Y-81875295D01*
X167361218Y-81894072D01*
X167365726Y-81896204D01*
X167408999Y-81919335D01*
X167413273Y-81921897D01*
X167454072Y-81949157D01*
X167458077Y-81952127D01*
X167496006Y-81983255D01*
X167499700Y-81986603D01*
X167534397Y-82021300D01*
X167537745Y-82024994D01*
X167568873Y-82062923D01*
X167571843Y-82066928D01*
X167599103Y-82107727D01*
X167601665Y-82112001D01*
X167624796Y-82155274D01*
X167626928Y-82159782D01*
X167645705Y-82205115D01*
X167647384Y-82209808D01*
X167661628Y-82256763D01*
X167662840Y-82261600D01*
X167672412Y-82309725D01*
X167673143Y-82314655D01*
X167677953Y-82363486D01*
X167678198Y-82368466D01*
X167678198Y-82386887D01*
X167678800Y-82393000D01*
X167678800Y-82943000D01*
X167677824Y-82952911D01*
G37*
G36*
X167678198Y-84999113D02*
G01*
X167678198Y-85017534D01*
X167677953Y-85022514D01*
X167673143Y-85071345D01*
X167672412Y-85076275D01*
X167662840Y-85124400D01*
X167661628Y-85129237D01*
X167647384Y-85176192D01*
X167645705Y-85180885D01*
X167626928Y-85226218D01*
X167624796Y-85230726D01*
X167601665Y-85273999D01*
X167599103Y-85278273D01*
X167571843Y-85319072D01*
X167568873Y-85323077D01*
X167537745Y-85361006D01*
X167534397Y-85364700D01*
X167499700Y-85399397D01*
X167496006Y-85402745D01*
X167458077Y-85433873D01*
X167454072Y-85436843D01*
X167413273Y-85464103D01*
X167408999Y-85466665D01*
X167365726Y-85489796D01*
X167361218Y-85491928D01*
X167315885Y-85510705D01*
X167311192Y-85512384D01*
X167264237Y-85526628D01*
X167259400Y-85527840D01*
X167211275Y-85537412D01*
X167206345Y-85538143D01*
X167157514Y-85542953D01*
X167152534Y-85543198D01*
X167134113Y-85543198D01*
X167128000Y-85543800D01*
X166628000Y-85543800D01*
X166621887Y-85543198D01*
X166603466Y-85543198D01*
X166598486Y-85542953D01*
X166549655Y-85538143D01*
X166544725Y-85537412D01*
X166496600Y-85527840D01*
X166491763Y-85526628D01*
X166444808Y-85512384D01*
X166440115Y-85510705D01*
X166394782Y-85491928D01*
X166390274Y-85489796D01*
X166347001Y-85466665D01*
X166342727Y-85464103D01*
X166301928Y-85436843D01*
X166297923Y-85433873D01*
X166259994Y-85402745D01*
X166256300Y-85399397D01*
X166221603Y-85364700D01*
X166218255Y-85361006D01*
X166187127Y-85323077D01*
X166184157Y-85319072D01*
X166156897Y-85278273D01*
X166154335Y-85273999D01*
X166131204Y-85230726D01*
X166129072Y-85226218D01*
X166110295Y-85180885D01*
X166108616Y-85176192D01*
X166094372Y-85129237D01*
X166093160Y-85124400D01*
X166083588Y-85076275D01*
X166082857Y-85071345D01*
X166078047Y-85022514D01*
X166077802Y-85017534D01*
X166077802Y-84999113D01*
X166077200Y-84993000D01*
X166077200Y-84443000D01*
X166078176Y-84433089D01*
X166081067Y-84423560D01*
X166085761Y-84414777D01*
X166092079Y-84407079D01*
X166099777Y-84400761D01*
X166108560Y-84396067D01*
X166118089Y-84393176D01*
X166128000Y-84392200D01*
X167628000Y-84392200D01*
X167637911Y-84393176D01*
X167647440Y-84396067D01*
X167656223Y-84400761D01*
X167663921Y-84407079D01*
X167670239Y-84414777D01*
X167674933Y-84423560D01*
X167677824Y-84433089D01*
X167678800Y-84443000D01*
X167678800Y-84993000D01*
X167678198Y-84999113D01*
G37*
D23*
X166878000Y-83693000D03*
D25*
X172212000Y-110871000D03*
X170180000Y-110871000D03*
X171196000Y-105791000D03*
M02*
