G04 #@! TF.GenerationSoftware,KiCad,Pcbnew,(5.1.6-0-10_14)*
G04 #@! TF.CreationDate,2021-09-10T12:16:29-05:00*
G04 #@! TF.ProjectId,DFC_REV_D,4446435f-5245-4565-9f44-2e6b69636164,rev?*
G04 #@! TF.SameCoordinates,Original*
G04 #@! TF.FileFunction,Paste,Top*
G04 #@! TF.FilePolarity,Positive*
%FSLAX46Y46*%
G04 Gerber Fmt 4.6, Leading zero omitted, Abs format (unit mm)*
G04 Created by KiCad (PCBNEW (5.1.6-0-10_14)) date 2021-09-10 12:16:29*
%MOMM*%
%LPD*%
G01*
G04 APERTURE LIST*
%ADD10C,0.100000*%
%ADD11R,3.000000X0.650000*%
%ADD12R,0.650000X3.000000*%
%ADD13O,1.800000X0.900000*%
%ADD14C,0.600000*%
%ADD15O,0.800000X1.600000*%
%ADD16R,0.700000X0.320000*%
%ADD17R,0.700000X0.250000*%
%ADD18C,0.850000*%
%ADD19O,0.900000X1.800000*%
%ADD20O,1.600000X0.800000*%
%ADD21R,0.320000X0.700000*%
%ADD22R,0.250000X0.700000*%
%ADD23R,1.549400X0.609600*%
%ADD24R,1.200000X1.200000*%
%ADD25R,0.800000X0.900000*%
%ADD26R,1.498600X0.711200*%
%ADD27R,2.800000X2.800000*%
%ADD28R,2.200000X2.800000*%
%ADD29R,2.600000X2.800000*%
%ADD30R,0.355600X1.473200*%
%ADD31R,1.000000X1.075000*%
%ADD32R,1.100000X1.900000*%
%ADD33R,0.900000X0.900000*%
%ADD34R,0.275000X0.500000*%
%ADD35R,1.075000X1.000000*%
%ADD36R,1.240000X1.500000*%
%ADD37R,1.500000X1.240000*%
%ADD38R,2.800000X2.600000*%
%ADD39R,2.800000X2.200000*%
%ADD40R,0.500000X0.500000*%
%ADD41R,1.800000X1.200000*%
%ADD42R,1.550000X0.600000*%
G04 APERTURE END LIST*
D10*
G36*
X143764000Y-85064600D02*
G01*
X143764000Y-81813400D01*
X145313400Y-81813400D01*
X145313400Y-85064600D01*
X143764000Y-85064600D01*
G37*
X143764000Y-85064600D02*
X143764000Y-81813400D01*
X145313400Y-81813400D01*
X145313400Y-85064600D01*
X143764000Y-85064600D01*
D11*
X136628000Y-100965000D03*
X133628000Y-102235000D03*
X142216000Y-100965000D03*
X139216000Y-102235000D03*
D12*
X161417000Y-91924000D03*
X160147000Y-88924000D03*
D13*
X124753400Y-99155000D03*
X124753400Y-90495000D03*
D14*
X130603400Y-97225000D03*
X130603400Y-96425000D03*
X130603400Y-95625000D03*
X130603400Y-92425000D03*
X130603400Y-93225000D03*
X130603400Y-94025000D03*
X131303400Y-97625000D03*
X131303400Y-96025000D03*
X131303400Y-95225000D03*
X131303400Y-92025000D03*
X131303400Y-93625000D03*
D15*
X130953400Y-90820000D03*
D14*
X131303400Y-94425000D03*
D16*
X132613400Y-97575000D03*
D17*
X132613400Y-97075000D03*
X132613400Y-96575000D03*
D16*
X132613400Y-96075000D03*
X132613400Y-95575000D03*
X132613400Y-95075000D03*
X132613400Y-94575000D03*
X132613400Y-94075000D03*
X132613400Y-93575000D03*
D17*
X132613400Y-93075000D03*
X132613400Y-92575000D03*
D16*
X132613400Y-92075000D03*
D18*
X131953400Y-98425000D03*
D15*
X130953400Y-98830000D03*
D13*
X130453400Y-99155000D03*
D18*
X131953400Y-91225000D03*
D13*
X130453400Y-90495000D03*
D19*
X159221500Y-83565000D03*
D18*
X158491500Y-85065000D03*
D19*
X150561500Y-83565000D03*
D20*
X150886500Y-84065000D03*
D18*
X151291500Y-85065000D03*
D21*
X157641500Y-85725000D03*
D22*
X157141500Y-85725000D03*
X156641500Y-85725000D03*
D21*
X156141500Y-85725000D03*
X155641500Y-85725000D03*
X155141500Y-85725000D03*
X154641500Y-85725000D03*
X154141500Y-85725000D03*
X153641500Y-85725000D03*
D22*
X153141500Y-85725000D03*
X152641500Y-85725000D03*
D21*
X152141500Y-85725000D03*
D14*
X155291500Y-84415000D03*
D20*
X158896500Y-84065000D03*
D14*
X156091500Y-84415000D03*
X157691500Y-84415000D03*
X154491500Y-84415000D03*
X153691500Y-84415000D03*
X152091500Y-84415000D03*
X155691500Y-83715000D03*
X156491500Y-83715000D03*
X157291500Y-83715000D03*
X154091500Y-83715000D03*
X153291500Y-83715000D03*
X152491500Y-83715000D03*
D19*
X159221500Y-77865000D03*
X150561500Y-77865000D03*
D23*
X138506200Y-81140300D03*
X138506200Y-83439000D03*
X138506200Y-85737700D03*
D24*
X159766000Y-112048000D03*
X159766000Y-109948000D03*
D25*
X134119000Y-81153000D03*
X131819000Y-81153000D03*
D26*
X138430000Y-87642700D03*
X138430000Y-92189300D03*
D27*
X134919000Y-110253000D03*
D28*
X125519000Y-110253000D03*
X127519000Y-102853000D03*
D29*
X138919000Y-105803000D03*
D30*
X166500998Y-107061000D03*
X165850999Y-107061000D03*
X165200998Y-107061000D03*
X164550999Y-107061000D03*
X163900998Y-107061000D03*
X163250999Y-107061000D03*
X162600998Y-107061000D03*
X161950999Y-107061000D03*
X161300998Y-107061000D03*
X160651000Y-107061000D03*
X160651002Y-101219000D03*
X161301001Y-101219000D03*
X161951002Y-101219000D03*
X162601001Y-101219000D03*
X163251002Y-101219000D03*
X163901001Y-101219000D03*
X164550999Y-101219000D03*
X165201001Y-101219000D03*
X165850999Y-101219000D03*
X166501000Y-101219000D03*
D31*
X163830000Y-110832000D03*
X163830000Y-109132000D03*
X160798000Y-97360000D03*
X160798000Y-99060000D03*
X165862000Y-97360000D03*
X165862000Y-99060000D03*
X166116000Y-110832000D03*
X166116000Y-109132000D03*
X162560000Y-97360000D03*
X162560000Y-99060000D03*
X164172000Y-97360000D03*
X164172000Y-99060000D03*
X167894000Y-102958000D03*
X167894000Y-101258000D03*
D32*
X158680000Y-106934000D03*
X156280000Y-106934000D03*
D33*
X168257000Y-96355000D03*
X168257000Y-97955000D03*
X172357000Y-97955000D03*
X172357000Y-96355000D03*
D34*
X143752000Y-107131000D03*
X143252000Y-107131000D03*
X142752000Y-107131000D03*
X142252000Y-107131000D03*
X143752000Y-109531000D03*
X143252000Y-109531000D03*
X142752000Y-109531000D03*
X142252000Y-109531000D03*
D35*
X134151000Y-79629000D03*
X135851000Y-79629000D03*
X158076000Y-109220000D03*
X156376000Y-109220000D03*
X158076000Y-104648000D03*
X156376000Y-104648000D03*
X154090000Y-100457000D03*
X155790000Y-100457000D03*
D36*
X150561000Y-100203000D03*
X152461000Y-100203000D03*
D37*
X135382000Y-91755000D03*
X135382000Y-89855000D03*
X135382000Y-87564000D03*
X135382000Y-85664000D03*
X136017000Y-83119000D03*
X136017000Y-81219000D03*
D31*
X161544000Y-111721000D03*
X161544000Y-110021000D03*
X145288000Y-99226000D03*
X145288000Y-100926000D03*
X146685000Y-99226000D03*
X146685000Y-100926000D03*
D38*
X168644000Y-91929000D03*
D39*
X171594000Y-80529000D03*
X164194000Y-78529000D03*
D27*
X164194000Y-87929000D03*
D40*
X154260000Y-112197000D03*
X153360000Y-111647000D03*
X154260000Y-111097000D03*
X153360000Y-110547000D03*
X154260000Y-109997000D03*
X153360000Y-109447000D03*
X154260000Y-108897000D03*
X153360000Y-108347000D03*
X154260000Y-107797000D03*
X153360000Y-107247000D03*
X154260000Y-106697000D03*
X153360000Y-106147000D03*
X154260000Y-105597000D03*
X153360000Y-105047000D03*
X154260000Y-104497000D03*
X154260000Y-103397000D03*
X153160000Y-103397000D03*
X152610000Y-104297000D03*
X152060000Y-103397000D03*
X151510000Y-104297000D03*
X150960000Y-103397000D03*
X150410000Y-104297000D03*
X149860000Y-103397000D03*
X149310000Y-104297000D03*
X148760000Y-103397000D03*
X148210000Y-104297000D03*
X147660000Y-103397000D03*
X147110000Y-104297000D03*
X146560000Y-103397000D03*
X145460000Y-103397000D03*
X145460000Y-104497000D03*
X146360000Y-105047000D03*
X145460000Y-105597000D03*
X146360000Y-106147000D03*
X145460000Y-106697000D03*
X146360000Y-107247000D03*
X145460000Y-107797000D03*
X146360000Y-108347000D03*
X145460000Y-108897000D03*
X146360000Y-109447000D03*
X145460000Y-109997000D03*
X146360000Y-110547000D03*
X145460000Y-111097000D03*
X146360000Y-111647000D03*
X145460000Y-112197000D03*
X148210000Y-112197000D03*
X151510000Y-112197000D03*
X152460000Y-111097000D03*
X152460000Y-109997000D03*
X152460000Y-108897000D03*
X152460000Y-107797000D03*
X152460000Y-106697000D03*
X150960000Y-105197000D03*
X149860000Y-105197000D03*
X148760000Y-105197000D03*
X147260000Y-106697000D03*
X147260000Y-107797000D03*
X147260000Y-108897000D03*
X147260000Y-109997000D03*
X147260000Y-111097000D03*
X153710000Y-102497000D03*
X152610000Y-102497000D03*
X151510000Y-102497000D03*
X150410000Y-102497000D03*
X149310000Y-102497000D03*
X148210000Y-102497000D03*
X147110000Y-102497000D03*
X146010000Y-102497000D03*
D41*
X126173000Y-88144000D03*
X126173000Y-82544000D03*
D42*
X130048000Y-83844000D03*
X130048000Y-84844000D03*
X130048000Y-85844000D03*
X130048000Y-86844000D03*
G36*
G01*
X132717250Y-83978000D02*
X132204750Y-83978000D01*
G75*
G02*
X131986000Y-83759250I0J218750D01*
G01*
X131986000Y-83321750D01*
G75*
G02*
X132204750Y-83103000I218750J0D01*
G01*
X132717250Y-83103000D01*
G75*
G02*
X132936000Y-83321750I0J-218750D01*
G01*
X132936000Y-83759250D01*
G75*
G02*
X132717250Y-83978000I-218750J0D01*
G01*
G37*
G36*
G01*
X132717250Y-85553000D02*
X132204750Y-85553000D01*
G75*
G02*
X131986000Y-85334250I0J218750D01*
G01*
X131986000Y-84896750D01*
G75*
G02*
X132204750Y-84678000I218750J0D01*
G01*
X132717250Y-84678000D01*
G75*
G02*
X132936000Y-84896750I0J-218750D01*
G01*
X132936000Y-85334250D01*
G75*
G02*
X132717250Y-85553000I-218750J0D01*
G01*
G37*
G36*
G01*
X132204750Y-86405000D02*
X132717250Y-86405000D01*
G75*
G02*
X132936000Y-86623750I0J-218750D01*
G01*
X132936000Y-87061250D01*
G75*
G02*
X132717250Y-87280000I-218750J0D01*
G01*
X132204750Y-87280000D01*
G75*
G02*
X131986000Y-87061250I0J218750D01*
G01*
X131986000Y-86623750D01*
G75*
G02*
X132204750Y-86405000I218750J0D01*
G01*
G37*
G36*
G01*
X132204750Y-87980000D02*
X132717250Y-87980000D01*
G75*
G02*
X132936000Y-88198750I0J-218750D01*
G01*
X132936000Y-88636250D01*
G75*
G02*
X132717250Y-88855000I-218750J0D01*
G01*
X132204750Y-88855000D01*
G75*
G02*
X131986000Y-88636250I0J218750D01*
G01*
X131986000Y-88198750D01*
G75*
G02*
X132204750Y-87980000I218750J0D01*
G01*
G37*
G36*
G01*
X141099250Y-92411000D02*
X140586750Y-92411000D01*
G75*
G02*
X140368000Y-92192250I0J218750D01*
G01*
X140368000Y-91754750D01*
G75*
G02*
X140586750Y-91536000I218750J0D01*
G01*
X141099250Y-91536000D01*
G75*
G02*
X141318000Y-91754750I0J-218750D01*
G01*
X141318000Y-92192250D01*
G75*
G02*
X141099250Y-92411000I-218750J0D01*
G01*
G37*
G36*
G01*
X141099250Y-90836000D02*
X140586750Y-90836000D01*
G75*
G02*
X140368000Y-90617250I0J218750D01*
G01*
X140368000Y-90179750D01*
G75*
G02*
X140586750Y-89961000I218750J0D01*
G01*
X141099250Y-89961000D01*
G75*
G02*
X141318000Y-90179750I0J-218750D01*
G01*
X141318000Y-90617250D01*
G75*
G02*
X141099250Y-90836000I-218750J0D01*
G01*
G37*
D11*
X145820000Y-89408000D03*
X148820000Y-88138000D03*
M02*
