G04 #@! TF.GenerationSoftware,KiCad,Pcbnew,(5.1.6-0-10_14)*
G04 #@! TF.CreationDate,2021-09-10T12:16:29-05:00*
G04 #@! TF.ProjectId,DFC_REV_D,4446435f-5245-4565-9f44-2e6b69636164,rev?*
G04 #@! TF.SameCoordinates,Original*
G04 #@! TF.FileFunction,Copper,L1,Top*
G04 #@! TF.FilePolarity,Positive*
%FSLAX46Y46*%
G04 Gerber Fmt 4.6, Leading zero omitted, Abs format (unit mm)*
G04 Created by KiCad (PCBNEW (5.1.6-0-10_14)) date 2021-09-10 12:16:29*
%MOMM*%
%LPD*%
G01*
G04 APERTURE LIST*
G04 #@! TA.AperFunction,EtchedComponent*
%ADD10C,0.152400*%
G04 #@! TD*
G04 #@! TA.AperFunction,SMDPad,CuDef*
%ADD11R,3.000000X0.650000*%
G04 #@! TD*
G04 #@! TA.AperFunction,SMDPad,CuDef*
%ADD12R,0.650000X3.000000*%
G04 #@! TD*
G04 #@! TA.AperFunction,ComponentPad*
%ADD13O,1.800000X0.900000*%
G04 #@! TD*
G04 #@! TA.AperFunction,ComponentPad*
%ADD14C,0.600000*%
G04 #@! TD*
G04 #@! TA.AperFunction,ComponentPad*
%ADD15O,0.800000X1.600000*%
G04 #@! TD*
G04 #@! TA.AperFunction,SMDPad,CuDef*
%ADD16R,0.700000X0.320000*%
G04 #@! TD*
G04 #@! TA.AperFunction,SMDPad,CuDef*
%ADD17R,0.700000X0.250000*%
G04 #@! TD*
G04 #@! TA.AperFunction,ComponentPad*
%ADD18O,0.900000X1.800000*%
G04 #@! TD*
G04 #@! TA.AperFunction,ComponentPad*
%ADD19O,1.600000X0.800000*%
G04 #@! TD*
G04 #@! TA.AperFunction,SMDPad,CuDef*
%ADD20R,0.320000X0.700000*%
G04 #@! TD*
G04 #@! TA.AperFunction,SMDPad,CuDef*
%ADD21R,0.250000X0.700000*%
G04 #@! TD*
G04 #@! TA.AperFunction,SMDPad,CuDef*
%ADD22R,1.549400X0.609600*%
G04 #@! TD*
G04 #@! TA.AperFunction,Conductor*
%ADD23R,9.000000X9.000000*%
G04 #@! TD*
G04 #@! TA.AperFunction,SMDPad,CuDef*
%ADD24R,1.200000X1.200000*%
G04 #@! TD*
G04 #@! TA.AperFunction,ComponentPad*
%ADD25C,1.498600*%
G04 #@! TD*
G04 #@! TA.AperFunction,SMDPad,CuDef*
%ADD26R,0.800000X0.900000*%
G04 #@! TD*
G04 #@! TA.AperFunction,SMDPad,CuDef*
%ADD27R,1.498600X0.711200*%
G04 #@! TD*
G04 #@! TA.AperFunction,SMDPad,CuDef*
%ADD28R,2.800000X2.800000*%
G04 #@! TD*
G04 #@! TA.AperFunction,SMDPad,CuDef*
%ADD29R,2.200000X2.800000*%
G04 #@! TD*
G04 #@! TA.AperFunction,SMDPad,CuDef*
%ADD30R,2.600000X2.800000*%
G04 #@! TD*
G04 #@! TA.AperFunction,SMDPad,CuDef*
%ADD31R,0.355600X1.473200*%
G04 #@! TD*
G04 #@! TA.AperFunction,SMDPad,CuDef*
%ADD32R,1.000000X1.075000*%
G04 #@! TD*
G04 #@! TA.AperFunction,SMDPad,CuDef*
%ADD33R,1.100000X1.900000*%
G04 #@! TD*
G04 #@! TA.AperFunction,SMDPad,CuDef*
%ADD34R,0.900000X0.900000*%
G04 #@! TD*
G04 #@! TA.AperFunction,SMDPad,CuDef*
%ADD35R,0.275000X0.500000*%
G04 #@! TD*
G04 #@! TA.AperFunction,SMDPad,CuDef*
%ADD36R,1.075000X1.000000*%
G04 #@! TD*
G04 #@! TA.AperFunction,SMDPad,CuDef*
%ADD37R,1.240000X1.500000*%
G04 #@! TD*
G04 #@! TA.AperFunction,SMDPad,CuDef*
%ADD38R,1.500000X1.240000*%
G04 #@! TD*
G04 #@! TA.AperFunction,SMDPad,CuDef*
%ADD39R,2.800000X2.600000*%
G04 #@! TD*
G04 #@! TA.AperFunction,SMDPad,CuDef*
%ADD40R,2.800000X2.200000*%
G04 #@! TD*
G04 #@! TA.AperFunction,SMDPad,CuDef*
%ADD41R,0.500000X0.500000*%
G04 #@! TD*
G04 #@! TA.AperFunction,SMDPad,CuDef*
%ADD42R,1.800000X1.200000*%
G04 #@! TD*
G04 #@! TA.AperFunction,SMDPad,CuDef*
%ADD43R,1.550000X0.600000*%
G04 #@! TD*
G04 #@! TA.AperFunction,ConnectorPad*
%ADD44C,0.787400*%
G04 #@! TD*
G04 #@! TA.AperFunction,ViaPad*
%ADD45C,0.800000*%
G04 #@! TD*
G04 #@! TA.AperFunction,Conductor*
%ADD46C,0.250000*%
G04 #@! TD*
G04 #@! TA.AperFunction,Conductor*
%ADD47C,0.200000*%
G04 #@! TD*
G04 #@! TA.AperFunction,Conductor*
%ADD48C,0.508000*%
G04 #@! TD*
G04 #@! TA.AperFunction,Conductor*
%ADD49C,0.320000*%
G04 #@! TD*
G04 #@! TA.AperFunction,Conductor*
%ADD50C,0.406400*%
G04 #@! TD*
G04 #@! TA.AperFunction,Conductor*
%ADD51C,0.609600*%
G04 #@! TD*
G04 #@! TA.AperFunction,Conductor*
%ADD52C,0.152400*%
G04 #@! TD*
G04 APERTURE END LIST*
D10*
X144183100Y-85064600D02*
X145732500Y-85064600D01*
X144183100Y-81813400D02*
X144183100Y-85064600D01*
X145732500Y-81813400D02*
X144183100Y-81813400D01*
X145732500Y-85064600D02*
X145732500Y-81813400D01*
D11*
X136628000Y-100965000D03*
X133628000Y-102235000D03*
X142216000Y-100965000D03*
X139216000Y-102235000D03*
D12*
X161417000Y-91924000D03*
X160147000Y-88924000D03*
G04 #@! TA.AperFunction,SMDPad,CuDef*
G36*
G01*
X131580000Y-77978000D02*
X131580000Y-77978000D01*
G75*
G02*
X132080000Y-77478000I500000J0D01*
G01*
X132080000Y-77478000D01*
G75*
G02*
X132580000Y-77978000I0J-500000D01*
G01*
X132580000Y-77978000D01*
G75*
G02*
X132080000Y-78478000I-500000J0D01*
G01*
X132080000Y-78478000D01*
G75*
G02*
X131580000Y-77978000I0J500000D01*
G01*
G37*
G04 #@! TD.AperFunction*
D13*
X124753400Y-99155000D03*
X124753400Y-90495000D03*
D14*
X130603400Y-97225000D03*
X130603400Y-96425000D03*
X130603400Y-95625000D03*
X130603400Y-92425000D03*
X130603400Y-93225000D03*
X130603400Y-94025000D03*
X131303400Y-97625000D03*
X131303400Y-96025000D03*
X131303400Y-95225000D03*
X131303400Y-92025000D03*
X131303400Y-93625000D03*
D15*
X130953400Y-90820000D03*
D14*
X131303400Y-94425000D03*
D16*
X132613400Y-97575000D03*
D17*
X132613400Y-97075000D03*
X132613400Y-96575000D03*
D16*
X132613400Y-96075000D03*
X132613400Y-95575000D03*
X132613400Y-95075000D03*
X132613400Y-94575000D03*
X132613400Y-94075000D03*
X132613400Y-93575000D03*
D17*
X132613400Y-93075000D03*
X132613400Y-92575000D03*
D16*
X132613400Y-92075000D03*
D15*
X130953400Y-98830000D03*
D13*
X130453400Y-99155000D03*
X130453400Y-90495000D03*
D18*
X159221500Y-83565000D03*
X150561500Y-83565000D03*
D19*
X150886500Y-84065000D03*
D20*
X157641500Y-85725000D03*
D21*
X157141500Y-85725000D03*
X156641500Y-85725000D03*
D20*
X156141500Y-85725000D03*
X155641500Y-85725000D03*
X155141500Y-85725000D03*
X154641500Y-85725000D03*
X154141500Y-85725000D03*
X153641500Y-85725000D03*
D21*
X153141500Y-85725000D03*
X152641500Y-85725000D03*
D20*
X152141500Y-85725000D03*
D14*
X155291500Y-84415000D03*
D19*
X158896500Y-84065000D03*
D14*
X156091500Y-84415000D03*
X157691500Y-84415000D03*
X154491500Y-84415000D03*
X153691500Y-84415000D03*
X152091500Y-84415000D03*
X155691500Y-83715000D03*
X156491500Y-83715000D03*
X157291500Y-83715000D03*
X154091500Y-83715000D03*
X153291500Y-83715000D03*
X152491500Y-83715000D03*
D18*
X159221500Y-77865000D03*
X150561500Y-77865000D03*
D22*
X138506200Y-81140300D03*
X138506200Y-83439000D03*
X138506200Y-85737700D03*
D23*
X144272000Y-82931000D03*
D24*
X159766000Y-112048000D03*
X159766000Y-109948000D03*
D25*
X179451000Y-86741000D03*
X176911000Y-86741000D03*
X179451000Y-89281000D03*
X176911000Y-89281000D03*
X179451000Y-91821000D03*
X176911000Y-91821000D03*
X179451000Y-94361000D03*
X176911000Y-94361000D03*
X179451000Y-96901000D03*
X176911000Y-96901000D03*
X179451000Y-99441000D03*
X176911000Y-99441000D03*
X179451000Y-101981000D03*
X176911000Y-101981000D03*
X179451000Y-104521000D03*
X176911000Y-104521000D03*
X179451000Y-107061000D03*
X176911000Y-107061000D03*
X179451000Y-109601000D03*
X176911000Y-109601000D03*
D26*
X134119000Y-81153000D03*
X131819000Y-81153000D03*
D27*
X138430000Y-87642700D03*
X138430000Y-92189300D03*
D28*
X134919000Y-110253000D03*
D29*
X125519000Y-110253000D03*
X127519000Y-102853000D03*
D30*
X138919000Y-105803000D03*
D31*
X166500998Y-107061000D03*
X165850999Y-107061000D03*
X165200998Y-107061000D03*
X164550999Y-107061000D03*
X163900998Y-107061000D03*
X163250999Y-107061000D03*
X162600998Y-107061000D03*
X161950999Y-107061000D03*
X161300998Y-107061000D03*
X160651000Y-107061000D03*
X160651002Y-101219000D03*
X161301001Y-101219000D03*
X161951002Y-101219000D03*
X162601001Y-101219000D03*
X163251002Y-101219000D03*
X163901001Y-101219000D03*
X164550999Y-101219000D03*
X165201001Y-101219000D03*
X165850999Y-101219000D03*
X166501000Y-101219000D03*
D32*
X163830000Y-110832000D03*
X163830000Y-109132000D03*
X160798000Y-97360000D03*
X160798000Y-99060000D03*
X165862000Y-97360000D03*
X165862000Y-99060000D03*
X166116000Y-110832000D03*
X166116000Y-109132000D03*
X162560000Y-97360000D03*
X162560000Y-99060000D03*
X164172000Y-97360000D03*
X164172000Y-99060000D03*
X167894000Y-102958000D03*
X167894000Y-101258000D03*
D33*
X158680000Y-106934000D03*
X156280000Y-106934000D03*
D34*
X168257000Y-96355000D03*
X168257000Y-97955000D03*
X172357000Y-97955000D03*
X172357000Y-96355000D03*
D35*
X143752000Y-107131000D03*
X143252000Y-107131000D03*
X142752000Y-107131000D03*
X142252000Y-107131000D03*
X143752000Y-109531000D03*
X143252000Y-109531000D03*
X142752000Y-109531000D03*
X142252000Y-109531000D03*
D36*
X134151000Y-79629000D03*
X135851000Y-79629000D03*
X158076000Y-109220000D03*
X156376000Y-109220000D03*
X158076000Y-104648000D03*
X156376000Y-104648000D03*
X154090000Y-100457000D03*
X155790000Y-100457000D03*
D37*
X150561000Y-100203000D03*
X152461000Y-100203000D03*
D38*
X135382000Y-91755000D03*
X135382000Y-89855000D03*
X135382000Y-87564000D03*
X135382000Y-85664000D03*
X136017000Y-83119000D03*
X136017000Y-81219000D03*
D32*
X161544000Y-111721000D03*
X161544000Y-110021000D03*
X145288000Y-99226000D03*
X145288000Y-100926000D03*
X146685000Y-99226000D03*
X146685000Y-100926000D03*
G04 #@! TA.AperFunction,SMDPad,CuDef*
G36*
G01*
X138946000Y-110998000D02*
X138946000Y-110998000D01*
G75*
G02*
X139446000Y-110498000I500000J0D01*
G01*
X139446000Y-110498000D01*
G75*
G02*
X139946000Y-110998000I0J-500000D01*
G01*
X139946000Y-110998000D01*
G75*
G02*
X139446000Y-111498000I-500000J0D01*
G01*
X139446000Y-111498000D01*
G75*
G02*
X138946000Y-110998000I0J500000D01*
G01*
G37*
G04 #@! TD.AperFunction*
G04 #@! TA.AperFunction,SMDPad,CuDef*
G36*
G01*
X163711000Y-92583000D02*
X163711000Y-92583000D01*
G75*
G02*
X164211000Y-92083000I500000J0D01*
G01*
X164211000Y-92083000D01*
G75*
G02*
X164711000Y-92583000I0J-500000D01*
G01*
X164711000Y-92583000D01*
G75*
G02*
X164211000Y-93083000I-500000J0D01*
G01*
X164211000Y-93083000D01*
G75*
G02*
X163711000Y-92583000I0J500000D01*
G01*
G37*
G04 #@! TD.AperFunction*
D39*
X168644000Y-91929000D03*
D40*
X171594000Y-80529000D03*
X164194000Y-78529000D03*
D28*
X164194000Y-87929000D03*
D41*
X154260000Y-112197000D03*
X153360000Y-111647000D03*
X154260000Y-111097000D03*
X153360000Y-110547000D03*
X154260000Y-109997000D03*
X153360000Y-109447000D03*
X154260000Y-108897000D03*
X153360000Y-108347000D03*
X154260000Y-107797000D03*
X153360000Y-107247000D03*
X154260000Y-106697000D03*
X153360000Y-106147000D03*
X154260000Y-105597000D03*
X153360000Y-105047000D03*
X154260000Y-104497000D03*
X154260000Y-103397000D03*
X153160000Y-103397000D03*
X152610000Y-104297000D03*
X152060000Y-103397000D03*
X151510000Y-104297000D03*
X150960000Y-103397000D03*
X150410000Y-104297000D03*
X149860000Y-103397000D03*
X149310000Y-104297000D03*
X148760000Y-103397000D03*
X148210000Y-104297000D03*
X147660000Y-103397000D03*
X147110000Y-104297000D03*
X146560000Y-103397000D03*
X145460000Y-103397000D03*
X145460000Y-104497000D03*
X146360000Y-105047000D03*
X145460000Y-105597000D03*
X146360000Y-106147000D03*
X145460000Y-106697000D03*
X146360000Y-107247000D03*
X145460000Y-107797000D03*
X146360000Y-108347000D03*
X145460000Y-108897000D03*
X146360000Y-109447000D03*
X145460000Y-109997000D03*
X146360000Y-110547000D03*
X145460000Y-111097000D03*
X146360000Y-111647000D03*
X145460000Y-112197000D03*
X148210000Y-112197000D03*
X151510000Y-112197000D03*
X152460000Y-111097000D03*
X152460000Y-109997000D03*
X152460000Y-108897000D03*
X152460000Y-107797000D03*
X152460000Y-106697000D03*
X150960000Y-105197000D03*
X149860000Y-105197000D03*
X148760000Y-105197000D03*
X147260000Y-106697000D03*
X147260000Y-107797000D03*
X147260000Y-108897000D03*
X147260000Y-109997000D03*
X147260000Y-111097000D03*
X153710000Y-102497000D03*
X152610000Y-102497000D03*
X151510000Y-102497000D03*
X150410000Y-102497000D03*
X149310000Y-102497000D03*
X148210000Y-102497000D03*
X147110000Y-102497000D03*
X146010000Y-102497000D03*
D42*
X126173000Y-88144000D03*
X126173000Y-82544000D03*
D43*
X130048000Y-83844000D03*
X130048000Y-84844000D03*
X130048000Y-85844000D03*
X130048000Y-86844000D03*
G04 #@! TA.AperFunction,SMDPad,CuDef*
G36*
G01*
X132717250Y-83978000D02*
X132204750Y-83978000D01*
G75*
G02*
X131986000Y-83759250I0J218750D01*
G01*
X131986000Y-83321750D01*
G75*
G02*
X132204750Y-83103000I218750J0D01*
G01*
X132717250Y-83103000D01*
G75*
G02*
X132936000Y-83321750I0J-218750D01*
G01*
X132936000Y-83759250D01*
G75*
G02*
X132717250Y-83978000I-218750J0D01*
G01*
G37*
G04 #@! TD.AperFunction*
G04 #@! TA.AperFunction,SMDPad,CuDef*
G36*
G01*
X132717250Y-85553000D02*
X132204750Y-85553000D01*
G75*
G02*
X131986000Y-85334250I0J218750D01*
G01*
X131986000Y-84896750D01*
G75*
G02*
X132204750Y-84678000I218750J0D01*
G01*
X132717250Y-84678000D01*
G75*
G02*
X132936000Y-84896750I0J-218750D01*
G01*
X132936000Y-85334250D01*
G75*
G02*
X132717250Y-85553000I-218750J0D01*
G01*
G37*
G04 #@! TD.AperFunction*
G04 #@! TA.AperFunction,SMDPad,CuDef*
G36*
G01*
X132204750Y-86405000D02*
X132717250Y-86405000D01*
G75*
G02*
X132936000Y-86623750I0J-218750D01*
G01*
X132936000Y-87061250D01*
G75*
G02*
X132717250Y-87280000I-218750J0D01*
G01*
X132204750Y-87280000D01*
G75*
G02*
X131986000Y-87061250I0J218750D01*
G01*
X131986000Y-86623750D01*
G75*
G02*
X132204750Y-86405000I218750J0D01*
G01*
G37*
G04 #@! TD.AperFunction*
G04 #@! TA.AperFunction,SMDPad,CuDef*
G36*
G01*
X132204750Y-87980000D02*
X132717250Y-87980000D01*
G75*
G02*
X132936000Y-88198750I0J-218750D01*
G01*
X132936000Y-88636250D01*
G75*
G02*
X132717250Y-88855000I-218750J0D01*
G01*
X132204750Y-88855000D01*
G75*
G02*
X131986000Y-88636250I0J218750D01*
G01*
X131986000Y-88198750D01*
G75*
G02*
X132204750Y-87980000I218750J0D01*
G01*
G37*
G04 #@! TD.AperFunction*
G04 #@! TA.AperFunction,SMDPad,CuDef*
G36*
G01*
X141099250Y-92411000D02*
X140586750Y-92411000D01*
G75*
G02*
X140368000Y-92192250I0J218750D01*
G01*
X140368000Y-91754750D01*
G75*
G02*
X140586750Y-91536000I218750J0D01*
G01*
X141099250Y-91536000D01*
G75*
G02*
X141318000Y-91754750I0J-218750D01*
G01*
X141318000Y-92192250D01*
G75*
G02*
X141099250Y-92411000I-218750J0D01*
G01*
G37*
G04 #@! TD.AperFunction*
G04 #@! TA.AperFunction,SMDPad,CuDef*
G36*
G01*
X141099250Y-90836000D02*
X140586750Y-90836000D01*
G75*
G02*
X140368000Y-90617250I0J218750D01*
G01*
X140368000Y-90179750D01*
G75*
G02*
X140586750Y-89961000I218750J0D01*
G01*
X141099250Y-89961000D01*
G75*
G02*
X141318000Y-90179750I0J-218750D01*
G01*
X141318000Y-90617250D01*
G75*
G02*
X141099250Y-90836000I-218750J0D01*
G01*
G37*
G04 #@! TD.AperFunction*
D44*
X170561000Y-107061000D03*
X171831000Y-107061000D03*
X170561000Y-108331000D03*
X171831000Y-108331000D03*
X170561000Y-109601000D03*
X171831000Y-109601000D03*
D11*
X145820000Y-89408000D03*
X148820000Y-88138000D03*
D45*
X149860000Y-96901000D03*
X148209000Y-98425000D03*
X168021000Y-100076000D03*
X152400000Y-105156000D03*
X165227000Y-105791000D03*
X152527000Y-112141000D03*
X133096000Y-91313000D03*
X158242000Y-86741000D03*
X151638000Y-86614000D03*
X149098000Y-112141000D03*
X144145000Y-112141000D03*
X150495000Y-110236000D03*
X155194000Y-110236000D03*
X141859000Y-91059000D03*
X155321000Y-99441000D03*
X152019000Y-98933000D03*
X154813000Y-102489000D03*
X157480000Y-103505000D03*
X158623000Y-110236000D03*
X135001000Y-88646000D03*
X136525000Y-90678000D03*
X137160000Y-81915000D03*
X139065000Y-81915000D03*
X169291000Y-96393000D03*
X171323000Y-96393000D03*
X164465000Y-79883000D03*
X127254000Y-110363000D03*
X128651000Y-83820000D03*
X155956000Y-112141000D03*
X133604000Y-97790000D03*
X149098000Y-106045000D03*
X144653000Y-103251000D03*
X143129000Y-108585000D03*
X155575000Y-111125000D03*
X150622000Y-112141000D03*
X164973000Y-108458000D03*
X164973000Y-110490000D03*
X161417000Y-96393000D03*
X163195000Y-96393000D03*
X165227000Y-96393000D03*
X171196000Y-110426500D03*
X135509000Y-78613000D03*
X142240000Y-108077000D03*
X137287000Y-82931000D03*
X133604000Y-82042000D03*
X151003000Y-98933000D03*
X154305000Y-99441000D03*
X133350000Y-89154000D03*
X131572000Y-82804000D03*
X128651000Y-84836000D03*
X165100000Y-109474000D03*
X169799000Y-106299000D03*
X172339000Y-106172000D03*
X134493000Y-78613000D03*
X138303000Y-82677000D03*
X132588000Y-81661000D03*
X144526000Y-108585000D03*
X168783000Y-106299000D03*
X168783000Y-104013000D03*
X166497000Y-93345000D03*
X144272000Y-105791000D03*
X144399000Y-104267000D03*
X173990000Y-94488000D03*
X142875000Y-104267000D03*
X141859000Y-104267000D03*
X147320000Y-105156000D03*
X136906000Y-102489000D03*
X128651000Y-86868000D03*
X168783000Y-111506000D03*
X149479000Y-107061000D03*
X167894000Y-112268000D03*
X144145000Y-111125000D03*
X169164000Y-108331000D03*
X167132000Y-113157000D03*
X147320000Y-112014000D03*
X168021000Y-107061000D03*
X148082000Y-109347000D03*
X142748000Y-110617000D03*
X148209000Y-108331000D03*
X141732000Y-110490000D03*
X148336000Y-107315000D03*
X142748000Y-106045000D03*
X155067000Y-108204000D03*
X159639000Y-108458000D03*
X130937000Y-100711000D03*
X127508000Y-100965000D03*
X169545000Y-81280000D03*
X160528000Y-81661000D03*
X134874000Y-108204000D03*
X161671000Y-86106000D03*
X164211000Y-85979000D03*
X139573000Y-97663000D03*
X157861000Y-92456000D03*
X162560000Y-91059000D03*
X155194000Y-109220000D03*
X162687000Y-108458000D03*
X161925000Y-105664000D03*
X151511000Y-108077000D03*
X157480000Y-102489000D03*
X151511000Y-109220000D03*
X160274000Y-92710000D03*
X148590000Y-110236000D03*
X155067000Y-106680000D03*
X166497000Y-105537000D03*
X165608000Y-83693000D03*
X155498482Y-88569482D03*
X152654000Y-91440000D03*
X134366000Y-94615000D03*
X130937000Y-101711003D03*
X138811000Y-101473000D03*
X168275000Y-83693000D03*
X155067000Y-81026000D03*
X135128000Y-95631000D03*
X155321000Y-90170000D03*
X153924000Y-91821000D03*
X136779000Y-99949000D03*
X157861000Y-82677000D03*
X156210000Y-81026000D03*
X135128000Y-93726000D03*
X153543000Y-90678000D03*
X158496000Y-81534000D03*
X155067000Y-91186000D03*
X153162000Y-87884000D03*
X156210000Y-87376000D03*
X154051000Y-101727000D03*
X167132000Y-99568000D03*
X138557000Y-97409000D03*
X140208000Y-89408000D03*
X155194000Y-104267000D03*
X152019000Y-101600000D03*
X151511000Y-106045000D03*
X171196000Y-102489000D03*
X150939500Y-101600000D03*
X149860000Y-101600000D03*
X148971000Y-100330000D03*
X148082000Y-105918000D03*
X175260000Y-94361000D03*
X151511000Y-107061000D03*
X170053000Y-103632000D03*
D46*
X132563400Y-92025000D02*
X132613400Y-92075000D01*
D47*
X132602406Y-97564006D02*
X132613400Y-97575000D01*
X132302448Y-97564006D02*
X132602406Y-97564006D01*
X131971818Y-97483420D02*
X131980725Y-97483420D01*
X131524664Y-97475001D02*
X131963399Y-97475001D01*
X131980725Y-97483420D02*
X132302448Y-97564006D01*
X131374665Y-97625000D02*
X131524664Y-97475001D01*
X131963399Y-97475001D02*
X131971818Y-97483420D01*
X131303400Y-97625000D02*
X131374665Y-97625000D01*
D46*
X131303400Y-92025000D02*
X132563400Y-92025000D01*
D47*
X155547000Y-111097000D02*
X155575000Y-111125000D01*
X154260000Y-111097000D02*
X155547000Y-111097000D01*
D46*
X157641500Y-86140500D02*
X158242000Y-86741000D01*
X157641500Y-85725000D02*
X157641500Y-86140500D01*
X157641500Y-84465000D02*
X157691500Y-84415000D01*
X157641500Y-85725000D02*
X157641500Y-84465000D01*
D48*
X136095700Y-81140300D02*
X136017000Y-81219000D01*
X138506200Y-81140300D02*
X136095700Y-81140300D01*
X127144000Y-110253000D02*
X127254000Y-110363000D01*
X125519000Y-110253000D02*
X127144000Y-110253000D01*
X163957000Y-78766000D02*
X164194000Y-78529000D01*
X130048000Y-83844000D02*
X129564000Y-83844000D01*
D47*
X155956000Y-111887000D02*
X155829000Y-111887000D01*
D48*
X135851000Y-81053000D02*
X136017000Y-81219000D01*
X135851000Y-79629000D02*
X135851000Y-81053000D01*
D46*
X133565000Y-97575000D02*
X133604000Y-97536000D01*
D48*
X169253000Y-96355000D02*
X169291000Y-96393000D01*
X168257000Y-96355000D02*
X169253000Y-96355000D01*
X171361000Y-96355000D02*
X171323000Y-96393000D01*
X172357000Y-96355000D02*
X171361000Y-96355000D01*
D47*
X144672000Y-103397000D02*
X144653000Y-103378000D01*
X146560000Y-103397000D02*
X144672000Y-103397000D01*
X148281000Y-112268000D02*
X148210000Y-112197000D01*
X154260000Y-103042000D02*
X154813000Y-102489000D01*
X154260000Y-103397000D02*
X154260000Y-103042000D01*
X155702000Y-111887000D02*
X155956000Y-112141000D01*
X154570000Y-111887000D02*
X155702000Y-111887000D01*
X154260000Y-112197000D02*
X154570000Y-111887000D01*
X152329000Y-112197000D02*
X152400000Y-112268000D01*
X150678000Y-112197000D02*
X150622000Y-112141000D01*
X151510000Y-112197000D02*
X150678000Y-112197000D01*
X149042000Y-112197000D02*
X149098000Y-112141000D01*
X148210000Y-112197000D02*
X149042000Y-112197000D01*
X151566000Y-112141000D02*
X151510000Y-112197000D01*
X152527000Y-112141000D02*
X151566000Y-112141000D01*
X152866000Y-112141000D02*
X153360000Y-111647000D01*
X152527000Y-112141000D02*
X152866000Y-112141000D01*
X144201000Y-112197000D02*
X144145000Y-112141000D01*
X145460000Y-112197000D02*
X144201000Y-112197000D01*
X143752000Y-109208000D02*
X143129000Y-108585000D01*
X143752000Y-109531000D02*
X143752000Y-109208000D01*
X152076000Y-110547000D02*
X153360000Y-110547000D01*
X151765000Y-110236000D02*
X152076000Y-110547000D01*
X150495000Y-110236000D02*
X151765000Y-110236000D01*
X155209000Y-109997000D02*
X155321000Y-110109000D01*
D49*
X158076000Y-104101000D02*
X157480000Y-103505000D01*
X158076000Y-104648000D02*
X158076000Y-104101000D01*
D46*
X152400000Y-104507000D02*
X152610000Y-104297000D01*
X152400000Y-105156000D02*
X152400000Y-104507000D01*
D49*
X154955000Y-109997000D02*
X155194000Y-110236000D01*
X154260000Y-109997000D02*
X154955000Y-109997000D01*
X158076000Y-109220000D02*
X158076000Y-109259000D01*
D47*
X148760000Y-105707000D02*
X149098000Y-106045000D01*
X148760000Y-105197000D02*
X148760000Y-105707000D01*
D46*
X132613400Y-91795600D02*
X133096000Y-91313000D01*
X132613400Y-92075000D02*
X132613400Y-91795600D01*
D49*
X133155001Y-97595001D02*
X132613400Y-97595001D01*
X133350000Y-97790000D02*
X133155001Y-97595001D01*
X133604000Y-97790000D02*
X133350000Y-97790000D01*
D46*
X152141500Y-85725000D02*
X152141500Y-86110500D01*
X162560000Y-97360000D02*
X162560000Y-97155000D01*
X162560000Y-97028000D02*
X163195000Y-96393000D01*
X162560000Y-97360000D02*
X162560000Y-97028000D01*
X165862000Y-97028000D02*
X165227000Y-96393000D01*
X165862000Y-97360000D02*
X165862000Y-97028000D01*
D49*
X160798000Y-97012000D02*
X161417000Y-96393000D01*
X160798000Y-97360000D02*
X160798000Y-97012000D01*
X165227000Y-107034998D02*
X165200998Y-107061000D01*
D47*
X153710000Y-110547000D02*
X154260000Y-109997000D01*
X153710000Y-110547000D02*
X154260000Y-111097000D01*
X153360000Y-110547000D02*
X153710000Y-110547000D01*
X154260000Y-111097000D02*
X154260000Y-112197000D01*
X153710000Y-111647000D02*
X154260000Y-111097000D01*
X153710000Y-111647000D02*
X154260000Y-112197000D01*
X153360000Y-111647000D02*
X153710000Y-111647000D01*
X154260000Y-109997000D02*
X154260000Y-111097000D01*
X152152493Y-85714007D02*
X152141500Y-85725000D01*
X152152493Y-85414048D02*
X152152493Y-85714007D01*
X152224359Y-85127139D02*
X152152493Y-85414048D01*
X152391499Y-84959999D02*
X152224359Y-85127139D01*
X152391499Y-84714999D02*
X152391499Y-84959999D01*
X152091500Y-84415000D02*
X152391499Y-84714999D01*
D49*
X166116000Y-110832000D02*
X166409000Y-110832000D01*
D46*
X170561000Y-109601000D02*
X170561000Y-109855000D01*
X170561000Y-109791500D02*
X171196000Y-110426500D01*
X170561000Y-109601000D02*
X170561000Y-109791500D01*
D48*
X164194000Y-79612000D02*
X164465000Y-79883000D01*
X164194000Y-78529000D02*
X164194000Y-79612000D01*
D50*
X165200998Y-105891998D02*
X165100000Y-105791000D01*
D49*
X165200998Y-105817002D02*
X165227000Y-105791000D01*
X165200998Y-107061000D02*
X165200998Y-105817002D01*
X165200998Y-108230002D02*
X164973000Y-108458000D01*
X165200998Y-107061000D02*
X165200998Y-108230002D01*
D50*
X165315000Y-110832000D02*
X164973000Y-110490000D01*
X166116000Y-110832000D02*
X165315000Y-110832000D01*
X164631000Y-110832000D02*
X164973000Y-110490000D01*
X163830000Y-110832000D02*
X164631000Y-110832000D01*
X158076000Y-109689000D02*
X158623000Y-110236000D01*
X158076000Y-109220000D02*
X158076000Y-109689000D01*
X158911000Y-109948000D02*
X158623000Y-110236000D01*
X159766000Y-109948000D02*
X158911000Y-109948000D01*
D48*
X155790000Y-99910000D02*
X155321000Y-99441000D01*
X155790000Y-100457000D02*
X155790000Y-99910000D01*
X152461000Y-99375000D02*
X152019000Y-98933000D01*
X152461000Y-100203000D02*
X152461000Y-99375000D01*
X141198500Y-90398500D02*
X141859000Y-91059000D01*
X140843000Y-90398500D02*
X141198500Y-90398500D01*
D46*
X152141500Y-86110500D02*
X151638000Y-86614000D01*
D48*
X128675000Y-83844000D02*
X128651000Y-83820000D01*
X130048000Y-83844000D02*
X128675000Y-83844000D01*
X135851000Y-78955000D02*
X135509000Y-78613000D01*
X135851000Y-79629000D02*
X135851000Y-78955000D01*
X138506200Y-81356200D02*
X139065000Y-81915000D01*
X138506200Y-81140300D02*
X138506200Y-81356200D01*
X136464000Y-81219000D02*
X137160000Y-81915000D01*
X136017000Y-81219000D02*
X136464000Y-81219000D01*
X135702000Y-89855000D02*
X136525000Y-90678000D01*
X135382000Y-89855000D02*
X135702000Y-89855000D01*
X135382000Y-88265000D02*
X135001000Y-88646000D01*
X135382000Y-87564000D02*
X135382000Y-88265000D01*
X135382000Y-89855000D02*
X135382000Y-87564000D01*
D46*
X153641500Y-85823500D02*
X153646000Y-85828000D01*
X153641500Y-85725000D02*
X153641500Y-85823500D01*
X132676400Y-96075000D02*
X132686899Y-96085499D01*
X132613400Y-96075000D02*
X132676400Y-96075000D01*
X156141500Y-84465000D02*
X156091500Y-84415000D01*
X156141500Y-85725000D02*
X156141500Y-84465000D01*
X132779000Y-96075000D02*
X132789499Y-96085499D01*
X132613400Y-96075000D02*
X132779000Y-96075000D01*
X153641500Y-86320002D02*
X153641500Y-85725000D01*
X153641500Y-84465000D02*
X153641500Y-85725000D01*
D47*
X153691500Y-84415000D02*
X153641500Y-84465000D01*
D46*
X156141500Y-85783500D02*
X156156499Y-85798499D01*
X156141500Y-85725000D02*
X156141500Y-85783500D01*
X131353400Y-93575000D02*
X132613400Y-93575000D01*
X131303400Y-93625000D02*
X131353400Y-93575000D01*
D51*
X135382000Y-91755000D02*
X135134401Y-91755000D01*
X137995700Y-91755000D02*
X138430000Y-92189300D01*
X135382000Y-91755000D02*
X137995700Y-91755000D01*
X153381701Y-86579801D02*
X153511690Y-86579801D01*
X153064926Y-86645310D02*
X153316192Y-86645310D01*
X146939000Y-92202000D02*
X147508236Y-92202000D01*
X146926300Y-92189300D02*
X146939000Y-92202000D01*
X153316192Y-86645310D02*
X153381701Y-86579801D01*
X138430000Y-92189300D02*
X146926300Y-92189300D01*
D46*
X132661999Y-93525001D02*
X133169999Y-93525001D01*
X132613400Y-93573600D02*
X132661999Y-93525001D01*
X132613400Y-93575000D02*
X132613400Y-93573600D01*
D51*
X135382000Y-91755000D02*
X134940000Y-91755000D01*
X134940000Y-91755000D02*
X133477000Y-93218000D01*
D46*
X133169999Y-93525001D02*
X133477000Y-93218000D01*
X133173402Y-96075000D02*
X133477000Y-96378598D01*
X132613400Y-96075000D02*
X133173402Y-96075000D01*
D48*
X133477000Y-96520000D02*
X133477000Y-96378598D01*
D46*
X156141500Y-85725000D02*
X156141500Y-86325000D01*
D49*
X156251501Y-86435001D02*
X156141500Y-86325000D01*
D51*
X156787106Y-86614000D02*
X156752907Y-86579801D01*
X157114801Y-86883801D02*
X156845000Y-86614000D01*
X156845000Y-86614000D02*
X156787106Y-86614000D01*
X154463865Y-93244821D02*
X157114801Y-90593885D01*
X148699389Y-95337856D02*
X150792424Y-93244821D01*
X135806873Y-96985811D02*
X137454828Y-95337856D01*
X134073910Y-96985811D02*
X135806873Y-96985811D01*
X150792424Y-93244821D02*
X154463865Y-93244821D01*
X133608100Y-96520000D02*
X134073910Y-96985811D01*
X137454828Y-95337856D02*
X148699389Y-95337856D01*
X157114801Y-90593885D02*
X157114801Y-86883801D01*
X133477000Y-96520000D02*
X133608100Y-96520000D01*
D49*
X156666001Y-86435001D02*
X156845000Y-86614000D01*
X156251501Y-86435001D02*
X156666001Y-86435001D01*
X156251501Y-86435001D02*
X156285001Y-86435001D01*
X156285001Y-86435001D02*
X156464000Y-86614000D01*
D46*
X131353400Y-96075000D02*
X131303400Y-96025000D01*
X132613400Y-96075000D02*
X131353400Y-96075000D01*
D49*
X148820000Y-88138000D02*
X150876000Y-88138000D01*
X150876000Y-88138000D02*
X151224118Y-88486118D01*
D51*
X151224118Y-88486118D02*
X153064926Y-86645310D01*
X147508236Y-92202000D02*
X151224118Y-88486118D01*
D49*
X135702000Y-82804000D02*
X136017000Y-83119000D01*
X136398000Y-83500000D02*
X136017000Y-83119000D01*
D47*
X154090000Y-100822998D02*
X154090000Y-100457000D01*
D46*
X166104999Y-109120999D02*
X166116000Y-109132000D01*
X165850999Y-107061000D02*
X165850999Y-109120999D01*
D49*
X150561000Y-100203000D02*
X150368000Y-100203000D01*
D48*
X134151000Y-81121000D02*
X134119000Y-81153000D01*
X134151000Y-79629000D02*
X134151000Y-81121000D01*
X128659000Y-84844000D02*
X128651000Y-84836000D01*
X130048000Y-84844000D02*
X128659000Y-84844000D01*
X132308500Y-83540500D02*
X131572000Y-82804000D01*
X132461000Y-83540500D02*
X132308500Y-83540500D01*
X132613500Y-88417500D02*
X133350000Y-89154000D01*
X132461000Y-88417500D02*
X132613500Y-88417500D01*
D47*
X150093998Y-100203000D02*
X150561000Y-100203000D01*
X150368000Y-100010000D02*
X150561000Y-100203000D01*
X149136208Y-101287790D02*
X150220998Y-100203000D01*
X149136208Y-102146208D02*
X149136208Y-101287790D01*
X149310000Y-102320000D02*
X149136208Y-102146208D01*
X150220998Y-100203000D02*
X150561000Y-100203000D01*
X149310000Y-102497000D02*
X149310000Y-102320000D01*
D52*
X153159999Y-101387001D02*
X154090000Y-100457000D01*
X153160000Y-103397000D02*
X153159999Y-101387001D01*
D47*
X142252000Y-108065000D02*
X142240000Y-108077000D01*
X142252000Y-107131000D02*
X142252000Y-108065000D01*
D49*
X169799000Y-106299000D02*
X170561000Y-107061000D01*
D50*
X165442000Y-109132000D02*
X165100000Y-109474000D01*
X166116000Y-109132000D02*
X165442000Y-109132000D01*
D48*
X154090000Y-99656000D02*
X154305000Y-99441000D01*
X154090000Y-100457000D02*
X154090000Y-99656000D01*
X150561000Y-99375000D02*
X151003000Y-98933000D01*
X150561000Y-100203000D02*
X150561000Y-99375000D01*
X134151000Y-78955000D02*
X134493000Y-78613000D01*
X134151000Y-79629000D02*
X134151000Y-78955000D01*
X138506200Y-82880200D02*
X138303000Y-82677000D01*
X138506200Y-83439000D02*
X138506200Y-82880200D01*
X136337000Y-83439000D02*
X136017000Y-83119000D01*
X138506200Y-83439000D02*
X136337000Y-83439000D01*
X137099000Y-83119000D02*
X137287000Y-82931000D01*
X136017000Y-83119000D02*
X137099000Y-83119000D01*
X134119000Y-81527000D02*
X133604000Y-82042000D01*
X134119000Y-81153000D02*
X134119000Y-81527000D01*
X132080000Y-81153000D02*
X132588000Y-81661000D01*
X131819000Y-81153000D02*
X132080000Y-81153000D01*
X168257000Y-97955000D02*
X172357000Y-97955000D01*
D47*
X144838000Y-108897000D02*
X144526000Y-108585000D01*
X145460000Y-108897000D02*
X144838000Y-108897000D01*
D46*
X168155999Y-97853999D02*
X168257000Y-97955000D01*
D47*
X166497000Y-96195000D02*
X168257000Y-97955000D01*
X166497000Y-93345000D02*
X166497000Y-96195000D01*
X168783000Y-98481000D02*
X168783000Y-104013000D01*
X168257000Y-97955000D02*
X168783000Y-98481000D01*
D46*
X168783000Y-106553000D02*
X170561000Y-108331000D01*
X168783000Y-106299000D02*
X168783000Y-106553000D01*
D47*
X145460000Y-105597000D02*
X144974000Y-105597000D01*
X144780000Y-105791000D02*
X144272000Y-105791000D01*
X144974000Y-105597000D02*
X144780000Y-105791000D01*
X144629000Y-104497000D02*
X144399000Y-104267000D01*
X145460000Y-104497000D02*
X144629000Y-104497000D01*
X178401699Y-100931699D02*
X179451000Y-101981000D01*
X178401699Y-99378733D02*
X178401699Y-100931699D01*
X177414665Y-98391699D02*
X178401699Y-99378733D01*
X176848733Y-98391699D02*
X177414665Y-98391699D01*
X173990000Y-95532966D02*
X176848733Y-98391699D01*
X173990000Y-94488000D02*
X173990000Y-95532966D01*
X143655000Y-105047000D02*
X142875000Y-104267000D01*
X146360000Y-105047000D02*
X143655000Y-105047000D01*
X147110000Y-105073000D02*
X147193000Y-105156000D01*
X130040000Y-85852000D02*
X130048000Y-85844000D01*
X147110000Y-104946000D02*
X147320000Y-105156000D01*
X147110000Y-104297000D02*
X147110000Y-104946000D01*
D46*
X131732500Y-85844000D02*
X132461000Y-85115500D01*
X130048000Y-85844000D02*
X131732500Y-85844000D01*
X128601998Y-85844000D02*
X130048000Y-85844000D01*
X127635000Y-86810998D02*
X128601998Y-85844000D01*
X132019996Y-103867001D02*
X127635000Y-99482005D01*
X141859000Y-104267000D02*
X141459001Y-103867001D01*
X127635000Y-99482005D02*
X127635000Y-86810998D01*
X141459001Y-103867001D02*
X132019996Y-103867001D01*
D47*
X130049500Y-86842500D02*
X130048000Y-86844000D01*
D46*
X130024000Y-86868000D02*
X130048000Y-86844000D01*
X128651000Y-86868000D02*
X130024000Y-86868000D01*
X132459500Y-86844000D02*
X132461000Y-86842500D01*
X130048000Y-86844000D02*
X132459500Y-86844000D01*
D47*
X144547999Y-100088499D02*
X144016001Y-100620497D01*
X147425001Y-100088499D02*
X144547999Y-100088499D01*
X147660000Y-100323498D02*
X147425001Y-100088499D01*
X147660000Y-103397000D02*
X147660000Y-100323498D01*
X142686001Y-102860001D02*
X137277001Y-102860001D01*
X144016001Y-101530001D02*
X142686001Y-102860001D01*
X137277001Y-102860001D02*
X136906000Y-102489000D01*
X144016001Y-100620497D02*
X144016001Y-101530001D01*
D52*
X148691021Y-106638799D02*
X149113222Y-107061000D01*
X148011423Y-106638799D02*
X148691021Y-106638799D01*
X149113222Y-107061000D02*
X149479000Y-107061000D01*
X147953222Y-106697000D02*
X148011423Y-106638799D01*
X147260000Y-106697000D02*
X147953222Y-106697000D01*
D49*
X172387775Y-109601000D02*
X173067301Y-110280526D01*
X173067301Y-111281545D02*
X172622546Y-111726301D01*
X173067301Y-110280526D02*
X173067301Y-111281545D01*
X171831000Y-109601000D02*
X172387775Y-109601000D01*
X169003301Y-111726301D02*
X168783000Y-111506000D01*
X172622546Y-111726301D02*
X169003301Y-111726301D01*
D47*
X144173000Y-111097000D02*
X144145000Y-111125000D01*
X145460000Y-111097000D02*
X144173000Y-111097000D01*
D49*
X173587311Y-109530536D02*
X172387775Y-108331000D01*
X173587311Y-111496940D02*
X173587311Y-109530536D01*
X172387775Y-108331000D02*
X171831000Y-108331000D01*
X172816251Y-112268000D02*
X173587311Y-111496940D01*
X167894000Y-112268000D02*
X172816251Y-112268000D01*
D47*
X169164000Y-108354056D02*
X169164000Y-108331000D01*
D46*
X169164000Y-108389412D02*
X169164000Y-108331000D01*
X167894000Y-109659412D02*
X169164000Y-108389412D01*
X167894000Y-112268000D02*
X167894000Y-109659412D01*
D47*
X146360000Y-111647000D02*
X146798000Y-111647000D01*
X146953000Y-111647000D02*
X146360000Y-111647000D01*
X147320000Y-112014000D02*
X146953000Y-111647000D01*
D46*
X167168999Y-113120001D02*
X167132000Y-113157000D01*
X167168999Y-109748003D02*
X167168999Y-113120001D01*
X168021000Y-108896002D02*
X167168999Y-109748003D01*
X168021000Y-107061000D02*
X168021000Y-108896002D01*
D49*
X168129802Y-113157000D02*
X167132000Y-113157000D01*
X168498792Y-112788010D02*
X168129802Y-113157000D01*
X173031646Y-112788010D02*
X168498792Y-112788010D01*
X174107321Y-111712335D02*
X173031646Y-112788010D01*
X172387775Y-107061000D02*
X174107321Y-108780546D01*
X174107321Y-108780546D02*
X174107321Y-111712335D01*
X171831000Y-107061000D02*
X172387775Y-107061000D01*
D47*
X156104000Y-104793000D02*
X156122000Y-104775000D01*
X153360000Y-105047000D02*
X156104000Y-105047000D01*
X156394000Y-104521000D02*
X158680000Y-106807000D01*
X156376000Y-104521000D02*
X156394000Y-104521000D01*
X156280000Y-108997000D02*
X156376000Y-109093000D01*
X156280000Y-106807000D02*
X156280000Y-108997000D01*
X156280000Y-105784000D02*
X156280000Y-106934000D01*
X156093000Y-105597000D02*
X156280000Y-105784000D01*
X154260000Y-105597000D02*
X156093000Y-105597000D01*
X142752000Y-110613000D02*
X142748000Y-110617000D01*
X142752000Y-109531000D02*
X142752000Y-110613000D01*
X147982000Y-109447000D02*
X148082000Y-109347000D01*
X146360000Y-109447000D02*
X147982000Y-109447000D01*
X145375999Y-110081001D02*
X145460000Y-109997000D01*
X143374499Y-110081001D02*
X145375999Y-110081001D01*
X143252000Y-109958502D02*
X143374499Y-110081001D01*
X143252000Y-109531000D02*
X143252000Y-109958502D01*
X148193000Y-108347000D02*
X148209000Y-108331000D01*
X146360000Y-108347000D02*
X148193000Y-108347000D01*
X142252000Y-109970000D02*
X141732000Y-110490000D01*
X142252000Y-109531000D02*
X142252000Y-109970000D01*
X148268000Y-107247000D02*
X148336000Y-107315000D01*
X146360000Y-107247000D02*
X148268000Y-107247000D01*
X142752000Y-106049000D02*
X142748000Y-106045000D01*
X142752000Y-107131000D02*
X142752000Y-106049000D01*
X143252000Y-107558502D02*
X143252000Y-107131000D01*
X143490498Y-107797000D02*
X143252000Y-107558502D01*
X145460000Y-107797000D02*
X143490498Y-107797000D01*
X145026000Y-107131000D02*
X145460000Y-106697000D01*
X143752000Y-107131000D02*
X145026000Y-107131000D01*
X145288000Y-101521000D02*
X145288000Y-100799000D01*
X146010000Y-102497000D02*
X145288000Y-101775000D01*
X145288000Y-101775000D02*
X145288000Y-100926000D01*
X147232000Y-102375000D02*
X147110000Y-102497000D01*
X147110000Y-101224000D02*
X146685000Y-100799000D01*
X147110000Y-101351000D02*
X146685000Y-100926000D01*
X147110000Y-102497000D02*
X147110000Y-101351000D01*
D46*
X154660000Y-107797000D02*
X155067000Y-108204000D01*
X154260000Y-107797000D02*
X154660000Y-107797000D01*
X159981000Y-108458000D02*
X161544000Y-110021000D01*
X159639000Y-108458000D02*
X159981000Y-108458000D01*
D47*
X164550999Y-102023400D02*
X164550999Y-101219000D01*
X165485599Y-102958000D02*
X164550999Y-102023400D01*
X167894000Y-102958000D02*
X165485599Y-102958000D01*
X165850999Y-102155600D02*
X165850999Y-101219000D01*
X166933899Y-102255601D02*
X165951000Y-102255601D01*
X165951000Y-102255601D02*
X165850999Y-102155600D01*
X167894000Y-101295500D02*
X166933899Y-102255601D01*
X167894000Y-101258000D02*
X167894000Y-101295500D01*
X163360001Y-98171999D02*
X163360001Y-101110001D01*
X163360001Y-101110001D02*
X163251002Y-101219000D01*
X164172000Y-97360000D02*
X163360001Y-98171999D01*
X163901001Y-99330999D02*
X163901001Y-101219000D01*
X164172000Y-99060000D02*
X163901001Y-99330999D01*
X162560000Y-101177999D02*
X162601001Y-101219000D01*
X162560000Y-99060000D02*
X162560000Y-101177999D01*
X165201001Y-99720999D02*
X165201001Y-101219000D01*
X165862000Y-99060000D02*
X165201001Y-99720999D01*
X163900998Y-109061002D02*
X163830000Y-109132000D01*
X163900998Y-107061000D02*
X163900998Y-109061002D01*
D46*
X171594000Y-80529000D02*
X171594000Y-80882000D01*
X171594000Y-80529000D02*
X172858000Y-80529000D01*
D47*
X163900998Y-107061000D02*
X163900998Y-109184000D01*
D49*
X170296000Y-80529000D02*
X169545000Y-81280000D01*
X171594000Y-80529000D02*
X170296000Y-80529000D01*
X160528000Y-81661000D02*
X160528000Y-86141554D01*
X160528000Y-86141554D02*
X158468012Y-88201542D01*
X158468012Y-88201542D02*
X158468011Y-90746558D01*
X158468011Y-90746558D02*
X154904928Y-94309641D01*
X154904928Y-94309641D02*
X151233486Y-94309641D01*
X151233486Y-94309641D02*
X149140451Y-96402676D01*
X149140451Y-96402676D02*
X138344312Y-96402676D01*
X136696357Y-98050631D02*
X135029923Y-98050631D01*
X138344312Y-96402676D02*
X136696357Y-98050631D01*
X135029923Y-98050631D02*
X134068544Y-99012010D01*
X133284805Y-99012010D02*
X132347813Y-99949000D01*
X134068544Y-99012010D02*
X133284805Y-99012010D01*
X158468012Y-90746557D02*
X158468012Y-88201542D01*
X135029923Y-98050631D02*
X136696358Y-98050630D01*
X136696358Y-98050630D02*
X138344312Y-96402676D01*
X132347813Y-99949000D02*
X133284803Y-99012010D01*
X134068545Y-99012009D02*
X135029923Y-98050631D01*
X133284803Y-99012010D02*
X134068545Y-99012009D01*
D46*
X131536315Y-100711000D02*
X130937000Y-100711000D01*
X132298315Y-99949000D02*
X131536315Y-100711000D01*
X132347813Y-99949000D02*
X132298315Y-99949000D01*
D49*
X163900998Y-107061000D02*
X163900998Y-106242998D01*
X160981590Y-103847394D02*
X158739990Y-101605794D01*
X158739990Y-101605794D02*
X158739990Y-91018537D01*
X161286205Y-104152010D02*
X160981590Y-103847394D01*
X158739990Y-91018537D02*
X158468011Y-90746558D01*
X163900998Y-106242998D02*
X161810010Y-104152010D01*
X161810010Y-104152010D02*
X161286205Y-104152010D01*
X181608001Y-86376199D02*
X181608001Y-89663999D01*
X181608001Y-89663999D02*
X179451000Y-91821000D01*
X175760802Y-80529000D02*
X181608001Y-86376199D01*
X171594000Y-80529000D02*
X175760802Y-80529000D01*
X127519000Y-100976000D02*
X127508000Y-100965000D01*
X127519000Y-102853000D02*
X127519000Y-100976000D01*
D46*
X134919000Y-110253000D02*
X134002000Y-110253000D01*
X164194000Y-87929000D02*
X164194000Y-87232000D01*
D49*
X163494000Y-87929000D02*
X161671000Y-86106000D01*
X164194000Y-87929000D02*
X163494000Y-87929000D01*
X164194000Y-87929000D02*
X164194000Y-87012000D01*
X164194000Y-87929000D02*
X171377234Y-87929000D01*
X178341699Y-93251699D02*
X179451000Y-94361000D01*
X178341699Y-91609933D02*
X178341699Y-93251699D01*
X177122067Y-90390301D02*
X178341699Y-91609933D01*
X173838535Y-90390301D02*
X177122067Y-90390301D01*
X171377234Y-87929000D02*
X173838535Y-90390301D01*
X134874000Y-110208000D02*
X134919000Y-110253000D01*
X134874000Y-108204000D02*
X134874000Y-110208000D01*
X164194000Y-85996000D02*
X164211000Y-85979000D01*
X164194000Y-87929000D02*
X164194000Y-85996000D01*
X157861000Y-92456000D02*
X157861000Y-93091000D01*
X153289000Y-97663000D02*
X139573000Y-97663000D01*
X157861000Y-93091000D02*
X153289000Y-97663000D01*
D46*
X161130700Y-87929000D02*
X160147000Y-88912700D01*
X164194000Y-87929000D02*
X161130700Y-87929000D01*
D47*
X164550999Y-107061000D02*
X164465000Y-106975001D01*
D49*
X159259999Y-101390399D02*
X159259999Y-92430001D01*
X161501600Y-103632000D02*
X159259999Y-101390399D01*
X162034400Y-103632000D02*
X161501600Y-103632000D01*
X164550999Y-106148599D02*
X162034400Y-103632000D01*
X164550999Y-107061000D02*
X164550999Y-106148599D01*
X159767400Y-91922600D02*
X161417000Y-91922600D01*
X159259999Y-92430001D02*
X159767400Y-91922600D01*
X161695000Y-91924000D02*
X162560000Y-91059000D01*
X161417000Y-91924000D02*
X161695000Y-91924000D01*
D47*
X154871000Y-108897000D02*
X155194000Y-109220000D01*
X154260000Y-108897000D02*
X154871000Y-108897000D01*
X163250999Y-107061000D02*
X163250999Y-107894001D01*
X163250999Y-107894001D02*
X162687000Y-108458000D01*
X161950999Y-105689999D02*
X161925000Y-105664000D01*
X161950999Y-107061000D02*
X161950999Y-105689999D01*
X151527000Y-108347000D02*
X151511000Y-108331000D01*
X151781000Y-108347000D02*
X151511000Y-108077000D01*
X153360000Y-108347000D02*
X151781000Y-108347000D01*
X151738000Y-109447000D02*
X151511000Y-109220000D01*
X153360000Y-109447000D02*
X151738000Y-109447000D01*
X161300998Y-106309998D02*
X161300998Y-107061000D01*
X157480000Y-102489000D02*
X161300998Y-106309998D01*
X148279000Y-110547000D02*
X148590000Y-110236000D01*
X146360000Y-110547000D02*
X148279000Y-110547000D01*
X159720009Y-93263991D02*
X160274000Y-92710000D01*
X159720009Y-100288007D02*
X159720009Y-93263991D01*
X160651002Y-101219000D02*
X159720009Y-100288007D01*
X155050000Y-106697000D02*
X155067000Y-106680000D01*
X154260000Y-106697000D02*
X155050000Y-106697000D01*
X166497000Y-107057002D02*
X166500998Y-107061000D01*
X166497000Y-105537000D02*
X166497000Y-107057002D01*
D49*
X161217000Y-112048000D02*
X161544000Y-111721000D01*
X159766000Y-112048000D02*
X161217000Y-112048000D01*
D47*
X131215398Y-95225000D02*
X131303400Y-95225000D01*
X155259001Y-88330001D02*
X155498482Y-88569482D01*
X155141500Y-85725000D02*
X155141500Y-86922498D01*
X155141500Y-86922498D02*
X155259001Y-87039999D01*
X155259001Y-87039999D02*
X155259001Y-88330001D01*
X132613400Y-94575000D02*
X134326000Y-94575000D01*
D46*
X154491500Y-84289998D02*
X154491500Y-84415000D01*
X154716501Y-84064997D02*
X154491500Y-84289998D01*
X154716501Y-83408499D02*
X154716501Y-84064997D01*
X150433740Y-91440000D02*
X152654000Y-91440000D01*
X136118974Y-93808028D02*
X148065712Y-93808028D01*
X148065712Y-93808028D02*
X150433740Y-91440000D01*
X135312002Y-94615000D02*
X136118974Y-93808028D01*
X134366000Y-94615000D02*
X135312002Y-94615000D01*
D49*
X160581803Y-80590001D02*
X163176802Y-83185000D01*
X155844552Y-82042000D02*
X156289684Y-82042000D01*
X157741683Y-80590001D02*
X160581803Y-80590001D01*
X156289684Y-82042000D02*
X157741683Y-80590001D01*
X154716501Y-83170051D02*
X155844552Y-82042000D01*
X154716501Y-83408499D02*
X154716501Y-83170051D01*
X165100000Y-83185000D02*
X165608000Y-83693000D01*
X163176802Y-83185000D02*
X165100000Y-83185000D01*
D47*
X128853380Y-99631353D02*
X130812028Y-101590001D01*
X131091402Y-95225000D02*
X130891401Y-95024999D01*
X129663401Y-95024999D02*
X128853380Y-95835020D01*
X128853380Y-95835020D02*
X128853380Y-99631353D01*
X130891401Y-95024999D02*
X129663401Y-95024999D01*
X131303400Y-95225000D02*
X131091402Y-95225000D01*
X130815998Y-101590001D02*
X130937000Y-101711003D01*
X130812028Y-101590001D02*
X130815998Y-101590001D01*
X138811000Y-101830000D02*
X139216000Y-102235000D01*
X138811000Y-101473000D02*
X138811000Y-101830000D01*
X155291500Y-84503002D02*
X155291500Y-84415000D01*
X154641500Y-85153002D02*
X155291500Y-84503002D01*
X154641500Y-85725000D02*
X154641500Y-85153002D01*
X131413398Y-94425000D02*
X132063400Y-95075000D01*
X132063400Y-95075000D02*
X132613400Y-95075000D01*
X131303400Y-94425000D02*
X131413398Y-94425000D01*
X154641500Y-85725000D02*
X154681499Y-85764999D01*
X134210838Y-95631000D02*
X135128000Y-95631000D01*
X133654838Y-95075000D02*
X134210838Y-95631000D01*
X132613400Y-95075000D02*
X133654838Y-95075000D01*
X154641500Y-89490500D02*
X155321000Y-90170000D01*
X154641500Y-85725000D02*
X154641500Y-89490500D01*
D46*
X135128000Y-95631000D02*
X136500962Y-94258038D01*
X136500962Y-94258038D02*
X148252113Y-94258037D01*
X148252113Y-94258037D02*
X150345149Y-92165001D01*
X150345149Y-92165001D02*
X153579999Y-92165001D01*
X153579999Y-92165001D02*
X153924000Y-91821000D01*
D49*
X162638189Y-80069991D02*
X164993197Y-82424999D01*
X156023009Y-80069991D02*
X162638189Y-80069991D01*
X155067000Y-81026000D02*
X156023009Y-80069991D01*
X167006999Y-82424999D02*
X168275000Y-83693000D01*
X164993197Y-82424999D02*
X167006999Y-82424999D01*
D47*
X133628000Y-101599998D02*
X133628000Y-102235000D01*
X135278998Y-99949000D02*
X133628000Y-101599998D01*
X136779000Y-99949000D02*
X135278998Y-99949000D01*
X157999011Y-88011000D02*
X158008002Y-88011000D01*
X158008002Y-88011000D02*
X159995000Y-86024002D01*
X159996510Y-82829336D02*
X159532164Y-82364990D01*
X159996510Y-85598434D02*
X159996510Y-82829336D01*
X159995000Y-85599944D02*
X159996510Y-85598434D01*
X159995000Y-86024002D02*
X159995000Y-85599944D01*
X158173010Y-82364990D02*
X157861000Y-82677000D01*
X159532164Y-82364990D02*
X158173010Y-82364990D01*
X154091500Y-83144500D02*
X154091500Y-83715000D01*
X156210000Y-81026000D02*
X154091500Y-83144500D01*
X130179136Y-95625000D02*
X130603400Y-95625000D01*
X129253390Y-99465664D02*
X129253390Y-96550746D01*
X129717736Y-99930010D02*
X129253390Y-99465664D01*
X131716251Y-99930010D02*
X129717736Y-99930010D01*
X129253390Y-96550746D02*
X130179136Y-95625000D01*
X133094260Y-98552000D02*
X132777630Y-98868630D01*
X136505815Y-97590621D02*
X134839381Y-97590621D01*
X132777630Y-98868630D02*
X131716251Y-99930010D01*
X158008002Y-88011000D02*
X158008002Y-90556015D01*
X134839381Y-97590621D02*
X133878002Y-98552000D01*
X148949909Y-95942666D02*
X138153770Y-95942666D01*
X133878002Y-98552000D02*
X133094260Y-98552000D01*
X151042944Y-93849631D02*
X148949909Y-95942666D01*
X138153770Y-95942666D02*
X136505815Y-97590621D01*
X158008002Y-90556015D02*
X154714386Y-93849631D01*
X132833263Y-98812998D02*
X132777630Y-98868630D01*
X154714386Y-93849631D02*
X151042944Y-93849631D01*
D46*
X135128000Y-93599000D02*
X135368980Y-93358020D01*
X135128000Y-93726000D02*
X135128000Y-93599000D01*
X135368980Y-93358020D02*
X147879311Y-93358019D01*
X150559330Y-90678000D02*
X153543000Y-90678000D01*
X147879311Y-93358019D02*
X150559330Y-90678000D01*
D47*
X155691500Y-83715000D02*
X155691500Y-83290736D01*
D49*
X157879198Y-81534000D02*
X158496000Y-81534000D01*
X156358199Y-83054999D02*
X157879198Y-81534000D01*
X155927237Y-83054999D02*
X156358199Y-83054999D01*
X155691500Y-83290736D02*
X155927237Y-83054999D01*
D47*
X154178000Y-85758290D02*
X154144710Y-85725000D01*
X154141500Y-86777500D02*
X154141500Y-85725000D01*
X132613400Y-95575000D02*
X132644000Y-95575000D01*
X132644000Y-95575000D02*
X132683999Y-95535001D01*
X132683999Y-95535001D02*
X133508001Y-95535001D01*
D46*
X154141500Y-86777500D02*
X154141500Y-90260500D01*
X150531549Y-92615011D02*
X154202991Y-92615011D01*
X148438514Y-94708046D02*
X150531549Y-92615011D01*
X133508001Y-95535001D02*
X133513785Y-95535001D01*
X134334785Y-96356001D02*
X135545999Y-96356001D01*
X137193954Y-94708046D02*
X148438514Y-94708046D01*
X135545999Y-96356001D02*
X137193954Y-94708046D01*
X133513785Y-95535001D02*
X134334785Y-96356001D01*
X154141500Y-90260500D02*
X155067000Y-91186000D01*
X155067000Y-91751002D02*
X155067000Y-91186000D01*
X154202991Y-92615011D02*
X155067000Y-91751002D01*
D47*
X155641500Y-85725000D02*
X155641500Y-86856799D01*
X155641500Y-86856799D02*
X156198483Y-87413782D01*
X133597889Y-94075000D02*
X132613400Y-94075000D01*
D46*
X147692910Y-92908010D02*
X134872988Y-92908010D01*
X133705998Y-94075000D02*
X133597889Y-94075000D01*
X134872988Y-92908010D02*
X133705998Y-94075000D01*
X152716920Y-87884000D02*
X147692910Y-92908010D01*
X152716920Y-87884000D02*
X153162000Y-87884000D01*
D48*
X135455700Y-85737700D02*
X135382000Y-85664000D01*
X138506200Y-85737700D02*
X135455700Y-85737700D01*
X138430000Y-85813900D02*
X138506200Y-85737700D01*
X138430000Y-87642700D02*
X138430000Y-85813900D01*
D47*
X166501000Y-101219000D02*
X166501000Y-100199000D01*
X166501000Y-100199000D02*
X167132000Y-99568000D01*
X153710000Y-102068000D02*
X154051000Y-101727000D01*
X153710000Y-102497000D02*
X153710000Y-102068000D01*
X126173000Y-82544000D02*
X126173000Y-88144000D01*
D46*
X174370689Y-104520689D02*
X176911000Y-107061000D01*
X167513000Y-104775000D02*
X170361544Y-104775000D01*
X167099990Y-104361990D02*
X167513000Y-104775000D01*
X164107392Y-104361990D02*
X167099990Y-104361990D01*
X170615855Y-104520689D02*
X174370689Y-104520689D01*
X161951002Y-102205600D02*
X164107392Y-104361990D01*
X170361544Y-104775000D02*
X170615855Y-104520689D01*
X161951002Y-101219000D02*
X161951002Y-102205600D01*
D47*
X154964000Y-104497000D02*
X155194000Y-104267000D01*
X154260000Y-104497000D02*
X154964000Y-104497000D01*
X152060000Y-101387000D02*
X152019000Y-101346000D01*
X152060000Y-103397000D02*
X152060000Y-101641000D01*
X151510000Y-106044000D02*
X151511000Y-106045000D01*
X151510000Y-104297000D02*
X151510000Y-106044000D01*
X176403000Y-102489000D02*
X176911000Y-101981000D01*
X171196000Y-102489000D02*
X176403000Y-102489000D01*
X150960000Y-101747500D02*
X150939500Y-101727000D01*
X150960000Y-103397000D02*
X150960000Y-101747500D01*
X149860000Y-103397000D02*
X149860000Y-101727000D01*
D52*
X148635993Y-101882993D02*
X148635993Y-100665007D01*
X148635993Y-100665007D02*
X148971000Y-100330000D01*
X148759999Y-102006999D02*
X148635993Y-101882993D01*
X148760000Y-103397000D02*
X148759999Y-102006999D01*
D47*
X148210000Y-105917000D02*
X148082000Y-106045000D01*
X148210000Y-105790000D02*
X148082000Y-105918000D01*
X148210000Y-104297000D02*
X148210000Y-105790000D01*
X176612572Y-91821000D02*
X176911000Y-91821000D01*
X175260000Y-93472000D02*
X176911000Y-91821000D01*
X175260000Y-94361000D02*
X175260000Y-93472000D01*
X152460000Y-106697000D02*
X151875000Y-106697000D01*
X151875000Y-106697000D02*
X151511000Y-107061000D01*
X173207998Y-99441000D02*
X176911000Y-99441000D01*
X170053000Y-102595998D02*
X173207998Y-99441000D01*
X170053000Y-103632000D02*
X170053000Y-102595998D01*
X161301001Y-99563001D02*
X161301001Y-101219000D01*
X160798000Y-99060000D02*
X161301001Y-99563001D01*
D46*
X172280699Y-104970699D02*
X176911000Y-109601000D01*
X170489954Y-105283000D02*
X170802255Y-104970699D01*
X170802255Y-104970699D02*
X172280699Y-104970699D01*
X167384590Y-105283000D02*
X170489954Y-105283000D01*
X166913589Y-104811999D02*
X167384590Y-105283000D01*
X163907400Y-104811999D02*
X166913589Y-104811999D01*
X161301001Y-102205600D02*
X163907400Y-104811999D01*
X161301001Y-101219000D02*
X161301001Y-102205600D01*
D47*
X143510000Y-98171000D02*
X146050000Y-98171000D01*
X146685000Y-98806000D02*
X146685000Y-99226000D01*
X146050000Y-98171000D02*
X146685000Y-98806000D01*
X138328000Y-100965000D02*
X136628000Y-100965000D01*
X140929999Y-98363001D02*
X138328000Y-100965000D01*
X143317999Y-98363001D02*
X140929999Y-98363001D01*
X143510000Y-98171000D02*
X143317999Y-98363001D01*
X143955000Y-99226000D02*
X142216000Y-100965000D01*
X145288000Y-99226000D02*
X143955000Y-99226000D01*
X140208000Y-89408000D02*
X145820000Y-89408000D01*
X148210000Y-98426000D02*
X148209000Y-98425000D01*
X148210000Y-102497000D02*
X148210000Y-99188000D01*
X148210000Y-99188000D02*
X148210000Y-98426000D01*
X148210000Y-99188000D02*
X148210000Y-98934000D01*
X139065000Y-96901000D02*
X138557000Y-97409000D01*
X149860000Y-96901000D02*
X139065000Y-96901000D01*
M02*
