G04 #@! TF.GenerationSoftware,KiCad,Pcbnew,(5.1.6-0-10_14)*
G04 #@! TF.CreationDate,2021-09-10T12:16:29-05:00*
G04 #@! TF.ProjectId,DFC_REV_D,4446435f-5245-4565-9f44-2e6b69636164,rev?*
G04 #@! TF.SameCoordinates,Original*
G04 #@! TF.FileFunction,Profile,NP*
%FSLAX46Y46*%
G04 Gerber Fmt 4.6, Leading zero omitted, Abs format (unit mm)*
G04 Created by KiCad (PCBNEW (5.1.6-0-10_14)) date 2021-09-10 12:16:29*
%MOMM*%
%LPD*%
G01*
G04 APERTURE LIST*
G04 #@! TA.AperFunction,Profile*
%ADD10C,0.050000*%
G04 #@! TD*
G04 #@! TA.AperFunction,Profile*
%ADD11C,0.100000*%
G04 #@! TD*
G04 APERTURE END LIST*
D10*
X183261000Y-78613000D02*
X183261000Y-114681000D01*
X123062714Y-114681000D02*
G75*
G03*
X125641100Y-117221000I2540286J0D01*
G01*
X180721000Y-76073000D02*
X125603000Y-76073000D01*
X183261000Y-78613000D02*
G75*
G03*
X180721000Y-76073000I-2540000J0D01*
G01*
X180721000Y-117221000D02*
G75*
G03*
X183261000Y-114681000I0J2540000D01*
G01*
X180721000Y-117221000D02*
X125641100Y-117221000D01*
X123063000Y-114681000D02*
X123063000Y-78613000D01*
X125603000Y-76073000D02*
G75*
G03*
X123063000Y-78613000I0J-2540000D01*
G01*
D11*
X131528400Y-98275000D02*
X131528400Y-98575000D01*
X132378400Y-98275000D02*
X132378400Y-98575000D01*
X130453400Y-99455000D02*
X130953400Y-99455000D01*
X130653400Y-98855000D02*
X130453400Y-98855000D01*
X130653400Y-90795000D02*
X130453400Y-90795000D01*
X130653400Y-98855000D02*
X130653400Y-98505000D01*
X130653400Y-91145000D02*
X130653400Y-90795000D01*
X131253400Y-98505000D02*
X131253400Y-99155000D01*
X130453400Y-90195000D02*
X130953400Y-90195000D01*
X131253400Y-90495000D02*
X131253400Y-91145000D01*
X132378400Y-98275000D02*
G75*
G03*
X131528400Y-98275000I-425000J0D01*
G01*
X132378400Y-98575000D02*
G75*
G02*
X131528400Y-98575000I-425000J0D01*
G01*
X130453400Y-99455000D02*
G75*
G02*
X130453400Y-98855000I0J300000D01*
G01*
X131253400Y-99155000D02*
G75*
G02*
X130953400Y-99455000I-300000J0D01*
G01*
X130653400Y-98505000D02*
G75*
G02*
X131253400Y-98505000I300000J0D01*
G01*
X130953400Y-90195000D02*
G75*
G02*
X131253400Y-90495000I0J-300000D01*
G01*
X130453400Y-90795000D02*
G75*
G02*
X130453400Y-90195000I0J300000D01*
G01*
X131253400Y-91145000D02*
G75*
G02*
X130653400Y-91145000I-300000J0D01*
G01*
X159221500Y-84365000D02*
X158571500Y-84365000D01*
X159521500Y-83565000D02*
X159521500Y-84065000D01*
X151211500Y-84365000D02*
X150561500Y-84365000D01*
X158571500Y-83765000D02*
X158921500Y-83765000D01*
X150861500Y-83765000D02*
X151211500Y-83765000D01*
X158921500Y-83765000D02*
X158921500Y-83565000D01*
X150861500Y-83765000D02*
X150861500Y-83565000D01*
X150261500Y-83565000D02*
X150261500Y-84065000D01*
X151441500Y-85490000D02*
X151141500Y-85490000D01*
X151441500Y-84640000D02*
X151141500Y-84640000D01*
X158571500Y-84365000D02*
G75*
G02*
X158571500Y-83765000I0J300000D01*
G01*
X158921500Y-83565000D02*
G75*
G02*
X159521500Y-83565000I300000J0D01*
G01*
X159521500Y-84065000D02*
G75*
G02*
X159221500Y-84365000I-300000J0D01*
G01*
X151211500Y-83765000D02*
G75*
G02*
X151211500Y-84365000I0J-300000D01*
G01*
X150561500Y-84365000D02*
G75*
G02*
X150261500Y-84065000I0J300000D01*
G01*
X150261500Y-83565000D02*
G75*
G02*
X150861500Y-83565000I300000J0D01*
G01*
X151141500Y-85490000D02*
G75*
G02*
X151141500Y-84640000I0J425000D01*
G01*
X151441500Y-85490000D02*
G75*
G03*
X151441500Y-84640000I0J425000D01*
G01*
M02*
